<?xml version="1.0" encoding="UTF-8" standalone="no"?>
<svg
   xmlns:dc="http://purl.org/dc/elements/1.1/"
   xmlns:cc="http://creativecommons.org/ns#"
   xmlns:rdf="http://www.w3.org/1999/02/22-rdf-syntax-ns#"
   xmlns:svg="http://www.w3.org/2000/svg"
   xmlns="http://www.w3.org/2000/svg"
   xmlns:sodipodi="http://sodipodi.sourceforge.net/DTD/sodipodi-0.dtd"
   xmlns:inkscape="http://www.inkscape.org/namespaces/inkscape"
   width="210mm"
   height="240mm"
   viewBox="0 0 210 240"
   version="1.1"
   id="svg8"
   inkscape:version="1.0beta1 (08a003b, 2019-11-10)"
   sodipodi:docname="faq11.svg">
  <defs
     id="defs2">
    <inkscape:path-effect
       effect="simplify"
       id="path-effect2548"
       is_visible="true"
       steps="1"
       threshold="0.00108696"
       smooth_angles="360"
       helper_size="0"
       simplify_individual_paths="false"
       simplify_just_coalesce="false" />
  </defs>
  <sodipodi:namedview
     id="base"
     pagecolor="#ffffff"
     bordercolor="#666666"
     borderopacity="1.0"
     inkscape:pageopacity="0"
     inkscape:pageshadow="2"
     inkscape:zoom="0.5"
     inkscape:cx="227.58909"
     inkscape:cy="434.65509"
     inkscape:document-units="mm"
     inkscape:current-layer="g2934"
     inkscape:document-rotation="0"
     showgrid="false"
     inkscape:pagecheckerboard="false"
     showborder="true"
     inkscape:showpageshadow="true"
     borderlayer="false"
     inkscape:window-width="1920"
     inkscape:window-height="1003"
     inkscape:window-x="0"
     inkscape:window-y="0"
     inkscape:window-maximized="1" />
  <metadata
     id="metadata5">
    <rdf:RDF>
      <cc:Work
         rdf:about="">
        <dc:format>image/svg+xml</dc:format>
        <dc:type
           rdf:resource="http://purl.org/dc/dcmitype/StillImage" />
        <dc:title />
      </cc:Work>
    </rdf:RDF>
  </metadata>
  <g
     inkscape:label="Layer 1"
     inkscape:groupmode="layer"
     id="layer1">
    <g
       id="g2514"
       transform="translate(-4.1010419,-4.6302088)"
       style="fill:#ffe600;fill-opacity:1" />
    <g
       id="g2574">
      <g
         id="g2934">
        <g
           id="g3477">
          <path
             id="rect2501"
             style="fill:#293234;fill-opacity:0.947581;stroke-width:0.598209;stroke-linecap:round;stroke-linejoin:round;paint-order:markers stroke fill"
             d="M 0,0 H 209.99806 V 239.99739 H 0 Z"
             inkscape:connector-curvature="0" />
          <g
             style="font-size:15.8516px;line-height:1.25;font-family:sans-serif;fill:#ffffff;stroke-width:0.594433"
             id="text2944"
             aria-label="a geospatial software with minimalistic UI in multiple languages, it is apt for digitization / production grade workforce.">
            <path
               inkscape:connector-curvature="0"
               id="path919"
               style="fill:#ffffff;stroke-width:0.594433"
               d="m 19.754573,87.491524 h -1.447387 v -0.921065 q -0.193501,0.131581 -0.526323,0.371522 -0.325082,0.232201 -0.634683,0.371522 -0.363782,0.178021 -0.835924,0.294121 -0.472143,0.123841 -1.106826,0.123841 -1.168746,0 -1.98145,-0.774004 -0.812704,-0.774004 -0.812704,-1.97371 0,-0.982985 0.417962,-1.586708 0.425702,-0.611463 1.207446,-0.959765 0.789484,-0.348301 1.89631,-0.472142 1.106825,-0.123841 2.376192,-0.185761 v -0.224461 q 0,-0.495363 -0.178021,-0.820444 -0.170281,-0.325082 -0.495363,-0.510843 -0.309601,-0.178021 -0.743043,-0.239941 -0.433443,-0.06192 -0.905585,-0.06192 -0.572763,0 -1.277106,0.1548 -0.704344,0.147061 -1.455128,0.433443 h -0.0774 v -1.478348 q 0.425702,-0.1161 1.230666,-0.255421 0.804964,-0.139321 1.586708,-0.139321 0.913325,0 1.586708,0.154801 0.681123,0.147061 1.176486,0.510843 0.487622,0.356041 0.743044,0.921064 0.255421,0.565023 0.255421,1.400947 z m -1.447387,-2.128511 v -2.407152 q -0.665644,0.0387 -1.571228,0.116101 -0.897845,0.0774 -1.424167,0.224461 -0.626944,0.178021 -1.013946,0.557282 -0.387001,0.371522 -0.387001,1.029426 0,0.743043 0.448922,1.122305 0.448922,0.371522 1.369987,0.371522 0.766264,0 1.400947,-0.294121 0.634683,-0.301862 1.176486,-0.719824 z" />
            <path
               inkscape:connector-curvature="0"
               id="path921"
               style="fill:#ffffff;stroke-width:0.594433"
               d="m 35.157249,86.508539 q 0,2.198171 -0.998465,3.227596 -0.998465,1.029425 -3.072795,1.029425 -0.688864,0 -1.346767,-0.10062 -0.650163,-0.09288 -1.284846,-0.270902 v -1.486087 h 0.0774 q 0.356042,0.139321 1.130046,0.340562 0.774004,0.208981 1.548007,0.208981 0.743044,0 1.230667,-0.178021 0.487622,-0.178021 0.758523,-0.495363 0.270902,-0.301861 0.387002,-0.727563 0.116101,-0.425703 0.116101,-0.952025 v -0.789484 q -0.657903,0.526322 -1.261626,0.789484 -0.595983,0.255421 -1.524788,0.255421 -1.548008,0 -2.461332,-1.114566 -0.905585,-1.122305 -0.905585,-3.157935 0,-1.114566 0.309602,-1.91953 0.317341,-0.812704 0.859144,-1.400947 0.503102,-0.549543 1.222926,-0.851404 0.719824,-0.309602 1.431907,-0.309602 0.750784,0 1.253887,0.154801 0.510842,0.147061 1.075865,0.456662 l 0.09288,-0.371522 h 1.362247 z m -1.455127,-1.393207 v -4.713684 q -0.580503,-0.263161 -1.083606,-0.371522 -0.495362,-0.1161 -0.990725,-0.1161 -1.199706,0 -1.888569,0.804964 -0.688863,0.804964 -0.688863,2.337491 0,1.455128 0.510842,2.205912 0.510843,0.750783 1.695069,0.750783 0.634683,0 1.269366,-0.239941 0.642423,-0.247681 1.176486,-0.657903 z" />
            <path
               inkscape:connector-curvature="0"
               id="path923"
               style="fill:#ffffff;stroke-width:0.594433"
               d="m 45.258,83.319643 h -6.370052 q 0,0.797224 0.239941,1.393207 0.239941,0.588243 0.657903,0.967505 0.402482,0.371522 0.952025,0.557282 0.557283,0.185761 1.222926,0.185761 0.882365,0 1.772469,-0.348301 0.897845,-0.356042 1.277106,-0.696604 h 0.0774 v 1.586708 q -0.735304,0.309602 -1.501568,0.518583 -0.766264,0.208981 -1.609928,0.208981 -2.151731,0 -3.359177,-1.161006 -1.207446,-1.168746 -1.207446,-3.312737 0,-2.12077 1.153266,-3.366917 1.161006,-1.246146 3.049575,-1.246146 1.749249,0 2.693534,1.021685 0.952025,1.021685 0.952025,2.902515 z m -1.416427,-1.114566 q -0.0077,-1.145526 -0.580503,-1.772469 -0.565023,-0.626943 -1.726029,-0.626943 -1.168746,0 -1.865349,0.688864 -0.688864,0.688863 -0.781744,1.710548 z" />
            <path
               inkscape:connector-curvature="0"
               id="path925"
               style="fill:#ffffff;stroke-width:0.594433"
               d="m 54.832429,83.172582 q 0,2.113031 -1.083606,3.335957 -1.083605,1.222926 -2.902514,1.222926 -1.83439,0 -2.917995,-1.222926 -1.075866,-1.222926 -1.075866,-3.335957 0,-2.113031 1.075866,-3.335957 1.083605,-1.230666 2.917995,-1.230666 1.818909,0 2.902514,1.230666 1.083606,1.222926 1.083606,3.335957 z m -1.501568,0 q 0,-1.679588 -0.657903,-2.492293 -0.657904,-0.820444 -1.826649,-0.820444 -1.184226,0 -1.84213,0.820444 -0.650163,0.812705 -0.650163,2.492293 0,1.625408 0.657903,2.469072 0.657904,0.835925 1.83439,0.835925 1.161005,0 1.818909,-0.828185 0.665643,-0.835924 0.665643,-2.476812 z" />
            <path
               inkscape:connector-curvature="0"
               id="path927"
               style="fill:#ffffff;stroke-width:0.594433"
               d="m 63.269071,84.999231 q 0,1.184226 -0.982985,1.94275 -0.975245,0.758524 -2.670313,0.758524 -0.959765,0 -1.764729,-0.224461 -0.797224,-0.232202 -1.339027,-0.503103 v -1.633148 h 0.0774 q 0.688863,0.518583 1.532527,0.828184 0.843665,0.301862 1.617669,0.301862 0.959764,0 1.501567,-0.309602 0.541803,-0.309602 0.541803,-0.975245 0,-0.510842 -0.294122,-0.774004 -0.294121,-0.263161 -1.130045,-0.448922 -0.309602,-0.06966 -0.812704,-0.162541 -0.495363,-0.09288 -0.905585,-0.201241 -1.137786,-0.301861 -1.617668,-0.882364 -0.472142,-0.588243 -0.472142,-1.439648 0,-0.534062 0.216721,-1.006205 0.224461,-0.472142 0.673383,-0.843664 0.433442,-0.363782 1.099086,-0.572763 0.673383,-0.216721 1.501567,-0.216721 0.774004,0 1.563488,0.193501 0.797224,0.185761 1.323547,0.456662 v 1.555748 h -0.0774 q -0.557283,-0.410222 -1.354507,-0.688863 -0.797224,-0.286382 -1.563487,-0.286382 -0.797224,0 -1.346767,0.309602 -0.549543,0.301861 -0.549543,0.905585 0,0.534062 0.332822,0.804964 0.325081,0.270901 1.052645,0.441182 0.402482,0.09288 0.897844,0.185761 0.503103,0.09288 0.835925,0.170281 1.013945,0.232201 1.563488,0.797224 0.549542,0.572762 0.549542,1.517047 z" />
            <path
               inkscape:connector-curvature="0"
               id="path929"
               style="fill:#ffffff;stroke-width:0.594433"
               d="m 72.96734,83.064221 q 0,1.052646 -0.301862,1.92727 -0.301861,0.866885 -0.851404,1.470608 -0.510843,0.572762 -1.207446,0.890104 -0.688864,0.309602 -1.462867,0.309602 -0.673384,0 -1.222927,-0.147061 -0.541802,-0.147061 -1.106825,-0.456662 V 90.68042 H 65.358881 V 78.8459 h 1.455128 v 0.905585 q 0.580503,-0.487623 1.300326,-0.812704 0.727564,-0.332822 1.548008,-0.332822 1.563488,0 2.430372,1.184226 0.874625,1.176486 0.874625,3.274036 z m -1.501568,0.0387 q 0,-1.563488 -0.534062,-2.337492 -0.534063,-0.774004 -1.640889,-0.774004 -0.626943,0 -1.261626,0.270901 -0.634683,0.270902 -1.215186,0.712084 v 4.899445 q 0.619203,0.278641 1.060385,0.379262 0.448922,0.10062 1.013945,0.10062 1.215186,0 1.89631,-0.820444 0.681123,-0.820444 0.681123,-2.430372 z" />
            <path
               inkscape:connector-curvature="0"
               id="path931"
               style="fill:#ffffff;stroke-width:0.594433"
               d="m 81.953525,87.491524 h -1.447388 v -0.921065 q -0.193501,0.131581 -0.526322,0.371522 -0.325082,0.232201 -0.634683,0.371522 -0.363782,0.178021 -0.835925,0.294121 -0.472142,0.123841 -1.106825,0.123841 -1.168746,0 -1.98145,-0.774004 -0.812704,-0.774004 -0.812704,-1.97371 0,-0.982985 0.417962,-1.586708 0.425702,-0.611463 1.207446,-0.959765 0.789484,-0.348301 1.896309,-0.472142 1.106826,-0.123841 2.376192,-0.185761 v -0.224461 q 0,-0.495363 -0.178021,-0.820444 -0.17028,-0.325082 -0.495362,-0.510843 -0.309602,-0.178021 -0.743044,-0.239941 -0.433442,-0.06192 -0.905584,-0.06192 -0.572763,0 -1.277107,0.1548 -0.704343,0.147061 -1.455127,0.433443 h -0.0774 v -1.478348 q 0.425702,-0.1161 1.230666,-0.255421 0.804964,-0.139321 1.586708,-0.139321 0.913324,0 1.586708,0.154801 0.681123,0.147061 1.176486,0.510843 0.487622,0.356041 0.743043,0.921064 0.255422,0.565023 0.255422,1.400947 z m -1.447388,-2.128511 v -2.407152 q -0.665643,0.0387 -1.571228,0.116101 -0.897844,0.0774 -1.424167,0.224461 -0.626943,0.178021 -1.013945,0.557282 -0.387002,0.371522 -0.387002,1.029426 0,0.743043 0.448923,1.122305 0.448922,0.371522 1.369986,0.371522 0.766264,0 1.400947,-0.294121 0.634684,-0.301862 1.176486,-0.719824 z" />
            <path
               inkscape:connector-curvature="0"
               id="path933"
               style="fill:#ffffff;stroke-width:0.594433"
               d="m 89.260122,87.414123 q -0.410222,0.108361 -0.897845,0.178021 -0.479882,0.06966 -0.859144,0.06966 -1.323547,0 -2.01241,-0.712084 -0.688864,-0.712084 -0.688864,-2.283311 V 80.068826 H 83.818875 V 78.8459 h 0.982984 v -2.484552 h 1.455128 V 78.8459 h 3.003135 v 1.222926 h -3.003135 v 3.93968 q 0,0.681124 0.03096,1.068126 0.03096,0.379262 0.216721,0.712083 0.170281,0.309602 0.464402,0.456662 0.301862,0.139321 0.913325,0.139321 0.356042,0 0.743044,-0.10062 0.387002,-0.108361 0.557282,-0.178021 h 0.0774 z" />
            <path
               inkscape:connector-curvature="0"
               id="path935"
               style="fill:#ffffff;stroke-width:0.594433"
               d="m 92.588339,77.398513 h -1.640888 v -1.509308 h 1.640888 z m -0.09288,10.093011 H 91.040331 V 78.8459 h 1.455128 z" />
            <path
               inkscape:connector-curvature="0"
               id="path937"
               style="fill:#ffffff;stroke-width:0.594433"
               d="m 102.10858,87.491524 h -1.44738 v -0.921065 q -0.1935,0.131581 -0.52633,0.371522 -0.325077,0.232201 -0.634679,0.371522 -0.363781,0.178021 -0.835924,0.294121 -0.472142,0.123841 -1.106825,0.123841 -1.168746,0 -1.98145,-0.774004 -0.812704,-0.774004 -0.812704,-1.97371 0,-0.982985 0.417962,-1.586708 0.425702,-0.611463 1.207446,-0.959765 0.789484,-0.348301 1.896309,-0.472142 1.106826,-0.123841 2.376195,-0.185761 v -0.224461 q 0,-0.495363 -0.17802,-0.820444 -0.17028,-0.325082 -0.495366,-0.510843 -0.309602,-0.178021 -0.743044,-0.239941 -0.433442,-0.06192 -0.905584,-0.06192 -0.572763,0 -1.277107,0.1548 -0.704343,0.147061 -1.455127,0.433443 h -0.0774 v -1.478348 q 0.425703,-0.1161 1.230667,-0.255421 0.804964,-0.139321 1.586708,-0.139321 0.913324,0 1.586708,0.154801 0.681125,0.147061 1.176485,0.510843 0.48762,0.356041 0.74304,0.921064 0.25542,0.565023 0.25542,1.400947 z m -1.44738,-2.128511 v -2.407152 q -0.665646,0.0387 -1.571231,0.116101 -0.897844,0.0774 -1.424167,0.224461 -0.626943,0.178021 -1.013945,0.557282 -0.387002,0.371522 -0.387002,1.029426 0,0.743043 0.448922,1.122305 0.448923,0.371522 1.369987,0.371522 0.766264,0 1.400947,-0.294121 0.634679,-0.301862 1.176489,-0.719824 z" />
            <path
               inkscape:connector-curvature="0"
               id="path939"
               style="fill:#ffffff;stroke-width:0.594433"
               d="m 106.39657,87.491524 h -1.45513 V 75.448023 h 1.45513 z" />
            <path
               inkscape:connector-curvature="0"
               id="path941"
               style="fill:#ffffff;stroke-width:0.594433"
               d="m 121.04072,84.999231 q 0,1.184226 -0.98299,1.94275 -0.97524,0.758524 -2.67031,0.758524 -0.95976,0 -1.76473,-0.224461 -0.79722,-0.232202 -1.33902,-0.503103 v -1.633148 h 0.0774 q 0.68886,0.518583 1.53252,0.828184 0.84367,0.301862 1.61767,0.301862 0.95977,0 1.50157,-0.309602 0.5418,-0.309602 0.5418,-0.975245 0,-0.510842 -0.29412,-0.774004 -0.29412,-0.263161 -1.13004,-0.448922 -0.30961,-0.06966 -0.81271,-0.162541 -0.49536,-0.09288 -0.90558,-0.201241 -1.13779,-0.301861 -1.61767,-0.882364 -0.47214,-0.588243 -0.47214,-1.439648 0,-0.534062 0.21672,-1.006205 0.22446,-0.472142 0.67338,-0.843664 0.43344,-0.363782 1.09909,-0.572763 0.67338,-0.216721 1.50156,-0.216721 0.77401,0 1.56349,0.193501 0.79723,0.185761 1.32355,0.456662 v 1.555748 h -0.0774 q -0.55729,-0.410222 -1.35451,-0.688863 -0.79722,-0.286382 -1.56349,-0.286382 -0.79722,0 -1.34676,0.309602 -0.54955,0.301861 -0.54955,0.905585 0,0.534062 0.33283,0.804964 0.32508,0.270901 1.05264,0.441182 0.40248,0.09288 0.89784,0.185761 0.50311,0.09288 0.83593,0.170281 1.01394,0.232201 1.56349,0.797224 0.54954,0.572762 0.54954,1.517047 z" />
            <path
               inkscape:connector-curvature="0"
               id="path943"
               style="fill:#ffffff;stroke-width:0.594433"
               d="m 130.49904,83.172582 q 0,2.113031 -1.0836,3.335957 -1.08361,1.222926 -2.90252,1.222926 -1.83439,0 -2.91799,-1.222926 -1.07587,-1.222926 -1.07587,-3.335957 0,-2.113031 1.07587,-3.335957 1.0836,-1.230666 2.91799,-1.230666 1.81891,0 2.90252,1.230666 1.0836,1.222926 1.0836,3.335957 z m -1.50156,0 q 0,-1.679588 -0.65791,-2.492293 -0.6579,-0.820444 -1.82665,-0.820444 -1.18422,0 -1.84213,0.820444 -0.65016,0.812705 -0.65016,2.492293 0,1.625408 0.6579,2.469072 0.65791,0.835925 1.83439,0.835925 1.16101,0 1.81891,-0.828185 0.66565,-0.835924 0.66565,-2.476812 z" />
            <path
               inkscape:connector-curvature="0"
               id="path945"
               style="fill:#ffffff;stroke-width:0.594433"
               d="m 137.4109,76.85671 h -0.0774 q -0.23994,-0.06966 -0.62695,-0.13932 -0.387,-0.0774 -0.68112,-0.0774 -0.93654,0 -1.36225,0.417962 -0.41796,0.410222 -0.41796,1.493828 v 0.29412 h 2.62388 v 1.222926 h -2.57744 v 7.422698 h -1.45512 v -7.422698 h -0.98299 V 78.8459 h 0.98299 v -0.286381 q 0,-1.540268 0.76626,-2.360712 0.76626,-0.828184 2.21365,-0.828184 0.48762,0 0.87462,0.04644 0.39475,0.04644 0.71983,0.108361 z" />
            <path
               inkscape:connector-curvature="0"
               id="path947"
               style="fill:#ffffff;stroke-width:0.594433"
               d="m 142.82119,87.414123 q -0.41022,0.108361 -0.89785,0.178021 -0.47988,0.06966 -0.85914,0.06966 -1.32355,0 -2.01241,-0.712084 -0.68886,-0.712084 -0.68886,-2.283311 v -4.597584 h -0.98299 V 78.8459 h 0.98299 v -2.484552 h 1.45512 V 78.8459 h 3.00314 v 1.222926 h -3.00314 v 3.93968 q 0,0.681124 0.031,1.068126 0.031,0.379262 0.21672,0.712083 0.17028,0.309602 0.46441,0.456662 0.30186,0.139321 0.91332,0.139321 0.35604,0 0.74304,-0.10062 0.38701,-0.108361 0.55729,-0.178021 h 0.0774 z" />
            <path
               inkscape:connector-curvature="0"
               id="path949"
               style="fill:#ffffff;stroke-width:0.594433"
               d="m 155.46067,78.8459 -2.25235,8.645624 h -1.34677 l -2.22139,-6.664174 -2.20591,6.664174 h -1.33903 L 143.81965,78.8459 h 1.51705 l 1.58671,6.695134 2.15947,-6.695134 h 1.19971 l 2.21365,6.695134 1.50156,-6.695134 z" />
            <path
               inkscape:connector-curvature="0"
               id="path951"
               style="fill:#ffffff;stroke-width:0.594433"
               d="m 164.12178,87.491524 h -1.44739 v -0.921065 q -0.1935,0.131581 -0.52632,0.371522 -0.32509,0.232201 -0.63469,0.371522 -0.36378,0.178021 -0.83592,0.294121 -0.47214,0.123841 -1.10683,0.123841 -1.16874,0 -1.98145,-0.774004 -0.8127,-0.774004 -0.8127,-1.97371 0,-0.982985 0.41796,-1.586708 0.4257,-0.611463 1.20745,-0.959765 0.78948,-0.348301 1.89631,-0.472142 1.10682,-0.123841 2.37619,-0.185761 v -0.224461 q 0,-0.495363 -0.17802,-0.820444 -0.17028,-0.325082 -0.49536,-0.510843 -0.30961,-0.178021 -0.74305,-0.239941 -0.43344,-0.06192 -0.90558,-0.06192 -0.57277,0 -1.27711,0.1548 -0.70434,0.147061 -1.45513,0.433443 h -0.0774 v -1.478348 q 0.4257,-0.1161 1.23067,-0.255421 0.80496,-0.139321 1.58671,-0.139321 0.91332,0 1.5867,0.154801 0.68113,0.147061 1.17649,0.510843 0.48762,0.356041 0.74304,0.921064 0.25543,0.565023 0.25543,1.400947 z m -1.44739,-2.128511 v -2.407152 q -0.66564,0.0387 -1.57123,0.116101 -0.89784,0.0774 -1.42417,0.224461 -0.62694,0.178021 -1.01394,0.557282 -0.387,0.371522 -0.387,1.029426 0,0.743043 0.44892,1.122305 0.44892,0.371522 1.36999,0.371522 0.76626,0 1.40094,-0.294121 0.63469,-0.301862 1.17649,-0.719824 z" />
            <path
               inkscape:connector-curvature="0"
               id="path953"
               style="fill:#ffffff;stroke-width:0.594433"
               d="m 172.33395,80.432608 h -0.0774 q -0.32508,-0.0774 -0.63468,-0.10836 -0.30187,-0.0387 -0.71983,-0.0387 -0.67338,0 -1.30032,0.301861 -0.62695,0.294122 -1.20745,0.766264 v 6.137851 h -1.45513 V 78.8459 h 1.45513 v 1.277107 q 0.86688,-0.696604 1.52479,-0.982985 0.66564,-0.294122 1.3545,-0.294122 0.37927,0 0.54955,0.02322 0.17028,0.01548 0.51084,0.06966 z" />
            <path
               inkscape:connector-curvature="0"
               id="path955"
               style="fill:#ffffff;stroke-width:0.594433"
               d="m 180.95635,83.319643 h -6.37005 q 0,0.797224 0.23994,1.393207 0.23994,0.588243 0.65791,0.967505 0.40248,0.371522 0.95202,0.557282 0.55728,0.185761 1.22293,0.185761 0.88236,0 1.77246,-0.348301 0.89785,-0.356042 1.27711,-0.696604 h 0.0774 v 1.586708 q -0.7353,0.309602 -1.50157,0.518583 -0.76626,0.208981 -1.60992,0.208981 -2.15173,0 -3.35918,-1.161006 -1.20745,-1.168746 -1.20745,-3.312737 0,-2.12077 1.15327,-3.366917 1.161,-1.246146 3.04957,-1.246146 1.74925,0 2.69354,1.021685 0.95202,1.021685 0.95202,2.902515 z m -1.41642,-1.114566 q -0.008,-1.145526 -0.58051,-1.772469 -0.56502,-0.626943 -1.72603,-0.626943 -1.16874,0 -1.86535,0.688864 -0.68886,0.688863 -0.78174,1.710548 z" />
            <path
               inkscape:connector-curvature="0"
               id="path957"
               style="fill:#ffffff;stroke-width:0.594433"
               d="m 23.910974,98.6604 -2.252352,8.64562 h -1.346766 l -2.221391,-6.66417 -2.205912,6.66417 H 14.545527 L 12.269955,98.6604 h 1.517048 l 1.586708,6.69513 2.159471,-6.69513 h 1.199706 l 2.213651,6.69513 1.501567,-6.69513 z" />
            <path
               inkscape:connector-curvature="0"
               id="path959"
               style="fill:#ffffff;stroke-width:0.594433"
               d="m 27.572012,97.213013 h -1.640888 v -1.509308 h 1.640888 z m -0.09288,10.093007 H 26.024005 V 98.6604 h 1.455127 z" />
            <path
               inkscape:connector-curvature="0"
               id="path961"
               style="fill:#ffffff;stroke-width:0.594433"
               d="m 34.863128,107.22862 q -0.410222,0.10836 -0.897844,0.17802 -0.479883,0.0697 -0.859145,0.0697 -1.323546,0 -2.01241,-0.71208 -0.688863,-0.71208 -0.688863,-2.28331 V 99.883326 H 29.421881 V 98.6604 h 0.982985 v -2.484553 h 1.455127 V 98.6604 h 3.003135 v 1.222926 h -3.003135 v 3.939684 q 0,0.68112 0.03096,1.06812 0.03096,0.37926 0.216721,0.71208 0.170281,0.30961 0.464403,0.45667 0.301861,0.13932 0.913324,0.13932 0.356042,0 0.743044,-0.10062 0.387002,-0.10836 0.557283,-0.17802 h 0.0774 z" />
            <path
               inkscape:connector-curvature="0"
               id="path963"
               style="fill:#ffffff;stroke-width:0.594433"
               d="m 43.857054,107.30602 h -1.455127 v -4.92266 q 0,-0.59598 -0.06966,-1.11457 -0.06966,-0.52632 -0.255421,-0.82044 -0.193501,-0.32508 -0.557283,-0.479884 -0.363782,-0.16254 -0.944284,-0.16254 -0.595983,0 -1.246147,0.294124 -0.650163,0.29412 -1.246146,0.75078 v 6.45519 H 36.627858 V 95.262523 h 1.455127 v 4.357642 q 0.681123,-0.565023 1.408687,-0.882365 0.727564,-0.317341 1.493828,-0.317341 1.400947,0 2.13625,0.843664 0.735304,0.843667 0.735304,2.430377 z" />
            <path
               inkscape:connector-curvature="0"
               id="path965"
               style="fill:#ffffff;stroke-width:0.594433"
               d="m 64.848039,107.30602 h -1.455127 v -4.92266 q 0,-0.55728 -0.05418,-1.07587 -0.04644,-0.51858 -0.208981,-0.82818 -0.178021,-0.33282 -0.510843,-0.503103 -0.332822,-0.170281 -0.959765,-0.170281 -0.611463,0 -1.222926,0.309604 -0.611463,0.30186 -1.222926,0.774 0.02322,0.17802 0.0387,0.41796 0.01548,0.2322 0.01548,0.46441 v 5.53412 h -1.455127 v -4.92266 q 0,-0.57276 -0.05418,-1.08361 -0.04644,-0.51858 -0.208981,-0.82818 -0.178021,-0.33282 -0.510843,-0.495363 -0.332822,-0.170281 -0.959765,-0.170281 -0.595983,0 -1.199706,0.294124 -0.595983,0.29412 -1.191966,0.75078 v 6.45519 H 52.231776 V 98.6604 h 1.455127 v 0.959765 q 0.681124,-0.565023 1.354507,-0.882365 0.681123,-0.317341 1.447387,-0.317341 0.882365,0 1.493828,0.371522 0.619203,0.371521 0.921064,1.029425 0.882365,-0.743044 1.609928,-1.068126 0.727564,-0.332821 1.555748,-0.332821 1.424167,0 2.097551,0.866884 0.681123,0.859147 0.681123,2.407157 z" />
            <path
               inkscape:connector-curvature="0"
               id="path967"
               style="fill:#ffffff;stroke-width:0.594433"
               d="m 69.213423,97.213013 h -1.640888 v -1.509308 h 1.640888 z m -0.09288,10.093007 H 67.665415 V 98.6604 h 1.455128 z" />
            <path
               inkscape:connector-curvature="0"
               id="path969"
               style="fill:#ffffff;stroke-width:0.594433"
               d="m 79.244511,107.30602 h -1.455127 v -4.92266 q 0,-0.59598 -0.06966,-1.11457 -0.06966,-0.52632 -0.255421,-0.82044 -0.193501,-0.32508 -0.557283,-0.479884 -0.363782,-0.16254 -0.944285,-0.16254 -0.595983,0 -1.246146,0.294124 -0.650163,0.29412 -1.246146,0.75078 v 6.45519 H 72.015315 V 98.6604 h 1.455127 v 0.959765 q 0.681123,-0.565023 1.408687,-0.882365 0.727564,-0.317341 1.493828,-0.317341 1.400947,0 2.13625,0.843664 0.735304,0.843667 0.735304,2.430377 z" />
            <path
               inkscape:connector-curvature="0"
               id="path971"
               style="fill:#ffffff;stroke-width:0.594433"
               d="m 83.609892,97.213013 h -1.640888 v -1.509308 h 1.640888 z m -0.09288,10.093007 H 82.061884 V 98.6604 h 1.455128 z" />
            <path
               inkscape:connector-curvature="0"
               id="path973"
               style="fill:#ffffff;stroke-width:0.594433"
               d="m 99.028055,107.30602 h -1.455128 v -4.92266 q 0,-0.55728 -0.05418,-1.07587 -0.04644,-0.51858 -0.208981,-0.82818 -0.178021,-0.33282 -0.510842,-0.503103 -0.332822,-0.170281 -0.959765,-0.170281 -0.611463,0 -1.222926,0.309604 -0.611463,0.30186 -1.222927,0.774 0.02322,0.17802 0.0387,0.41796 0.01548,0.2322 0.01548,0.46441 v 5.53412 h -1.455128 v -4.92266 q 0,-0.57276 -0.05418,-1.08361 -0.04644,-0.51858 -0.208981,-0.82818 -0.178021,-0.33282 -0.510842,-0.495363 -0.332822,-0.170281 -0.959765,-0.170281 -0.595983,0 -1.199706,0.294124 -0.595983,0.29412 -1.191966,0.75078 v 6.45519 H 86.411791 V 98.6604 h 1.455128 v 0.959765 q 0.681123,-0.565023 1.354506,-0.882365 0.681124,-0.317341 1.447388,-0.317341 0.882364,0 1.493827,0.371522 0.619203,0.371521 0.921065,1.029425 0.882364,-0.743044 1.609928,-1.068126 0.727564,-0.332821 1.555748,-0.332821 1.424167,0 2.09755,0.866884 0.681124,0.859147 0.681124,2.407157 z" />
            <path
               inkscape:connector-curvature="0"
               id="path975"
               style="fill:#ffffff;stroke-width:0.594433"
               d="m 108.5483,107.30602 h -1.44739 v -0.92106 q -0.1935,0.13158 -0.52632,0.37152 -0.32508,0.2322 -0.63469,0.37152 -0.36378,0.17802 -0.83592,0.29412 -0.47214,0.12384 -1.10683,0.12384 -1.16874,0 -1.98145,-0.774 -0.8127,-0.774 -0.8127,-1.97371 0,-0.98298 0.41796,-1.58671 0.4257,-0.61146 1.20745,-0.95976 0.78948,-0.3483 1.89631,-0.47214 1.10682,-0.12385 2.37619,-0.18577 v -0.22446 q 0,-0.49536 -0.17802,-0.82044 -0.17028,-0.32508 -0.49536,-0.51084 -0.30961,-0.178024 -0.74305,-0.239944 -0.43344,-0.06192 -0.90558,-0.06192 -0.57276,0 -1.27711,0.154801 -0.70434,0.147063 -1.45513,0.433443 h -0.0774 v -1.478348 q 0.42571,-0.116101 1.23067,-0.255421 0.80496,-0.139321 1.58671,-0.139321 0.91332,0 1.58671,0.154801 0.68112,0.14706 1.17648,0.510842 0.48762,0.356042 0.74305,0.921067 0.25542,0.56502 0.25542,1.40094 z m -1.44739,-2.12851 v -2.40715 q -0.66564,0.0387 -1.57123,0.1161 -0.89784,0.0774 -1.42417,0.22446 -0.62694,0.17802 -1.01394,0.55729 -0.387,0.37152 -0.387,1.02942 0,0.74304 0.44892,1.12231 0.44892,0.37152 1.36999,0.37152 0.76626,0 1.40094,-0.29412 0.63469,-0.30187 1.17649,-0.71983 z" />
            <path
               inkscape:connector-curvature="0"
               id="path977"
               style="fill:#ffffff;stroke-width:0.594433"
               d="m 112.83628,107.30602 h -1.45513 V 95.262523 h 1.45513 z" />
            <path
               inkscape:connector-curvature="0"
               id="path979"
               style="fill:#ffffff;stroke-width:0.594433"
               d="m 117.29455,97.213013 h -1.64089 v -1.509308 h 1.64089 z m -0.0929,10.093007 h -1.45513 V 98.6604 h 1.45513 z" />
            <path
               inkscape:connector-curvature="0"
               id="path981"
               style="fill:#ffffff;stroke-width:0.594433"
               d="m 126.27299,104.81373 q 0,1.18423 -0.98299,1.94275 -0.97524,0.75852 -2.67031,0.75852 -0.95976,0 -1.76473,-0.22446 -0.79722,-0.2322 -1.33902,-0.5031 v -1.63315 h 0.0774 q 0.68886,0.51859 1.53252,0.82819 0.84367,0.30186 1.61767,0.30186 0.95977,0 1.50157,-0.3096 0.5418,-0.3096 0.5418,-0.97525 0,-0.51084 -0.29412,-0.774 -0.29412,-0.26316 -1.13005,-0.44892 -0.3096,-0.0697 -0.8127,-0.16255 -0.49536,-0.0929 -0.90558,-0.20124 -1.13779,-0.30186 -1.61767,-0.88236 -0.47214,-0.58824 -0.47214,-1.43965 0,-0.53406 0.21672,-1.0062 0.22446,-0.472145 0.67338,-0.843667 0.43344,-0.363782 1.09909,-0.572763 0.67338,-0.216721 1.50156,-0.216721 0.77401,0 1.56349,0.193501 0.79722,0.185761 1.32355,0.456662 v 1.555748 h -0.0774 q -0.55729,-0.41022 -1.35451,-0.688864 -0.79722,-0.286381 -1.56349,-0.286381 -0.79722,0 -1.34676,0.309602 -0.54955,0.301863 -0.54955,0.905583 0,0.53406 0.33282,0.80497 0.32509,0.2709 1.05265,0.44118 0.40248,0.0929 0.89784,0.18576 0.50311,0.0929 0.83593,0.17028 1.01394,0.2322 1.56349,0.79722 0.54954,0.57277 0.54954,1.51705 z" />
            <path
               inkscape:connector-curvature="0"
               id="path983"
               style="fill:#ffffff;stroke-width:0.594433"
               d="m 132.85202,107.22862 q -0.41022,0.10836 -0.89785,0.17802 -0.47988,0.0697 -0.85914,0.0697 -1.32355,0 -2.01241,-0.71208 -0.68886,-0.71208 -0.68886,-2.28331 v -4.597584 h -0.98299 V 98.6604 h 0.98299 v -2.484553 h 1.45512 V 98.6604 h 3.00314 v 1.222926 h -3.00314 v 3.939684 q 0,0.68112 0.031,1.06812 0.031,0.37926 0.21672,0.71208 0.17028,0.30961 0.46441,0.45667 0.30186,0.13932 0.91332,0.13932 0.35604,0 0.74304,-0.10062 0.38701,-0.10836 0.55729,-0.17802 h 0.0774 z" />
            <path
               inkscape:connector-curvature="0"
               id="path985"
               style="fill:#ffffff;stroke-width:0.594433"
               d="m 136.18024,97.213013 h -1.64089 v -1.509308 h 1.64089 z m -0.0929,10.093007 h -1.45512 V 98.6604 h 1.45512 z" />
            <path
               inkscape:connector-curvature="0"
               id="path987"
               style="fill:#ffffff;stroke-width:0.594433"
               d="m 145.37541,106.76422 q -0.72757,0.3483 -1.38547,0.5418 -0.65016,0.1935 -1.38547,0.1935 -0.93654,0 -1.71829,-0.2709 -0.78174,-0.27864 -1.33902,-0.83592 -0.56503,-0.55728 -0.87463,-1.40869 -0.3096,-0.8514 -0.3096,-1.98919 0,-2.12077 1.16101,-3.328215 1.16874,-1.207446 3.08053,-1.207446 0.74305,0 1.45513,0.208981 0.71982,0.208981 1.31581,0.510843 v 1.617667 h -0.0774 q -0.66565,-0.51858 -1.37773,-0.797223 -0.70434,-0.278642 -1.37773,-0.278642 -1.2384,0 -1.95823,0.835925 -0.71208,0.82818 -0.71208,2.43811 0,1.56349 0.6966,2.40715 0.70435,0.83593 1.97371,0.83593 0.44118,0 0.89785,-0.1161 0.45666,-0.1161 0.82044,-0.30186 0.31734,-0.16254 0.59598,-0.34057 0.27865,-0.18576 0.44119,-0.31734 h 0.0774 z" />
            <path
               inkscape:connector-curvature="0"
               id="path989"
               style="fill:#ffffff;stroke-width:0.594433"
               d="m 161.614,102.67748 q 0,1.25389 -0.27864,2.19043 -0.2709,0.92881 -0.89785,1.54801 -0.59598,0.58824 -1.3932,0.85914 -0.79723,0.2709 -1.85761,0.2709 -1.08361,0 -1.88857,-0.28638 -0.80497,-0.28638 -1.35451,-0.84366 -0.62694,-0.63468 -0.90558,-1.53253 -0.27091,-0.89784 -0.27091,-2.20591 v -6.896375 h 1.53253 v 6.973775 q 0,0.93655 0.12384,1.47835 0.13158,0.5418 0.43344,0.98298 0.34057,0.50311 0.92107,0.75853 0.58824,0.25542 1.40869,0.25542 0.82818,0 1.40868,-0.24768 0.58051,-0.25542 0.92881,-0.76627 0.30186,-0.44118 0.4257,-1.0062 0.13158,-0.57277 0.13158,-1.41643 v -7.012475 h 1.53253 z" />
            <path
               inkscape:connector-curvature="0"
               id="path991"
               style="fill:#ffffff;stroke-width:0.594433"
               d="m 168.611,107.30602 h -4.55115 v -1.17648 h 1.50931 v -9.171949 h -1.50931 v -1.176486 h 4.55115 v 1.176486 h -1.50931 v 9.171949 h 1.50931 z" />
            <path
               inkscape:connector-curvature="0"
               id="path993"
               style="fill:#ffffff;stroke-width:0.594433"
               d="m 178.25509,97.213013 h -1.64089 v -1.509308 h 1.64089 z m -0.0929,10.093007 h -1.45513 V 98.6604 h 1.45513 z" />
            <path
               inkscape:connector-curvature="0"
               id="path995"
               style="fill:#ffffff;stroke-width:0.594433"
               d="m 188.28618,107.30602 h -1.45512 v -4.92266 q 0,-0.59598 -0.0697,-1.11457 -0.0697,-0.52632 -0.25543,-0.82044 -0.1935,-0.32508 -0.55728,-0.479884 -0.36378,-0.16254 -0.94428,-0.16254 -0.59599,0 -1.24615,0.294124 -0.65016,0.29412 -1.24615,0.75078 v 6.45519 h -1.45512 V 98.6604 h 1.45512 v 0.959765 q 0.68113,-0.565023 1.40869,-0.882365 0.72756,-0.317341 1.49383,-0.317341 1.40095,0 2.13625,0.843664 0.7353,0.843667 0.7353,2.430377 z" />
            <path
               inkscape:connector-curvature="0"
               id="path997"
               style="fill:#ffffff;stroke-width:0.594433"
               d="m 25.652483,127.12052 h -1.455128 v -4.92266 q 0,-0.55728 -0.05418,-1.07587 -0.04644,-0.51858 -0.208981,-0.82818 -0.178021,-0.33282 -0.510843,-0.5031 -0.332821,-0.17028 -0.959764,-0.17028 -0.611464,0 -1.222927,0.3096 -0.611463,0.30186 -1.222926,0.774 0.02322,0.17802 0.0387,0.41796 0.01548,0.2322 0.01548,0.46441 v 5.53412 h -1.455128 v -4.92266 q 0,-0.57276 -0.05418,-1.08361 -0.04644,-0.51858 -0.208981,-0.82818 -0.178021,-0.33282 -0.510843,-0.49536 -0.332821,-0.17028 -0.959765,-0.17028 -0.595983,0 -1.199706,0.29412 -0.595983,0.29412 -1.191966,0.75078 v 6.45519 h -1.455127 v -8.64562 h 1.455127 v 0.95976 q 0.681124,-0.56502 1.354507,-0.88236 0.681124,-0.31734 1.447388,-0.31734 0.882364,0 1.493827,0.37152 0.619203,0.37152 0.921065,1.02943 0.882364,-0.74305 1.609928,-1.06813 0.727563,-0.33282 1.555748,-0.33282 1.424167,0 2.09755,0.86688 0.681124,0.85915 0.681124,2.40715 z" />
            <path
               inkscape:connector-curvature="0"
               id="path999"
               style="fill:#ffffff;stroke-width:0.594433"
               d="m 35.621653,127.12052 h -1.455128 v -0.95976 q -0.735303,0.5805 -1.408687,0.8901 -0.673383,0.3096 -1.486087,0.3096 -1.362247,0 -2.120771,-0.82818 -0.758524,-0.83592 -0.758524,-2.44585 v -5.61153 h 1.455128 v 4.92266 q 0,0.65791 0.06192,1.13005 0.06192,0.4644 0.263161,0.79722 0.208981,0.34057 0.541803,0.49537 0.332822,0.1548 0.967505,0.1548 0.565023,0 1.230666,-0.29412 0.673384,-0.29413 1.253886,-0.75079 v -6.45519 h 1.455128 z" />
            <path
               inkscape:connector-curvature="0"
               id="path1001"
               style="fill:#ffffff;stroke-width:0.594433"
               d="m 39.956076,127.12052 h -1.455128 v -12.0435 h 1.455128 z" />
            <path
               inkscape:connector-curvature="0"
               id="path1003"
               style="fill:#ffffff;stroke-width:0.594433"
               d="m 47.340072,127.04312 q -0.410222,0.10836 -0.897844,0.17802 -0.479883,0.0697 -0.859145,0.0697 -1.323546,0 -2.01241,-0.71208 -0.688863,-0.71208 -0.688863,-2.28331 v -4.59758 h -0.982985 v -1.22293 h 0.982985 v -2.48455 h 1.455127 v 2.48455 h 3.003135 v 1.22293 h -3.003135 v 3.93968 q 0,0.68112 0.03096,1.06812 0.03096,0.37926 0.216721,0.71208 0.170281,0.30961 0.464403,0.45667 0.301861,0.13932 0.913324,0.13932 0.356042,0 0.743044,-0.10062 0.387002,-0.10836 0.557283,-0.17802 h 0.0774 z" />
            <path
               inkscape:connector-curvature="0"
               id="path1005"
               style="fill:#ffffff;stroke-width:0.594433"
               d="m 50.668288,117.02751 h -1.640889 v -1.50931 h 1.640889 z m -0.09288,10.09301 H 49.12028 v -8.64562 h 1.455127 z" />
            <path
               inkscape:connector-curvature="0"
               id="path1007"
               style="fill:#ffffff;stroke-width:0.594433"
               d="m 61.078641,122.69322 q 0,1.05265 -0.301861,1.92727 -0.301862,0.86688 -0.851405,1.47061 -0.510842,0.57276 -1.207446,0.8901 -0.688863,0.3096 -1.462867,0.3096 -0.673383,0 -1.222926,-0.14706 -0.541803,-0.14706 -1.106826,-0.45666 v 3.62234 H 53.470183 V 118.4749 h 1.455127 v 0.90558 q 0.580503,-0.48762 1.300327,-0.8127 0.727563,-0.33282 1.548008,-0.33282 1.563487,0 2.430372,1.18422 0.874624,1.17649 0.874624,3.27404 z m -1.501567,0.0387 q 0,-1.56349 -0.534063,-2.33749 -0.534063,-0.774 -1.640888,-0.774 -0.626943,0 -1.261627,0.2709 -0.634683,0.2709 -1.215186,0.71208 v 4.89944 q 0.619203,0.27865 1.060386,0.37927 0.448922,0.10062 1.013945,0.10062 1.215186,0 1.896309,-0.82045 0.681124,-0.82044 0.681124,-2.43037 z" />
            <path
               inkscape:connector-curvature="0"
               id="path1009"
               style="fill:#ffffff;stroke-width:0.594433"
               d="m 64.81708,127.12052 h -1.455128 v -12.0435 h 1.455128 z" />
            <path
               inkscape:connector-curvature="0"
               id="path1011"
               style="fill:#ffffff;stroke-width:0.594433"
               d="M 74.948792,122.94864 H 68.57874 q 0,0.79723 0.239941,1.39321 0.239941,0.58824 0.657903,0.9675 0.402482,0.37153 0.952025,0.55729 0.557283,0.18576 1.222926,0.18576 0.882365,0 1.772469,-0.3483 0.897845,-0.35605 1.277107,-0.69661 h 0.0774 v 1.58671 q -0.735304,0.3096 -1.501568,0.51858 -0.766263,0.20898 -1.609928,0.20898 -2.15173,0 -3.359177,-1.161 -1.207446,-1.16875 -1.207446,-3.31274 0,-2.12077 1.153266,-3.36692 1.161006,-1.24614 3.049575,-1.24614 1.749249,0 2.693534,1.02168 0.952025,1.02169 0.952025,2.90252 z m -1.416427,-1.11456 q -0.0077,-1.14553 -0.580503,-1.77247 -0.565023,-0.62695 -1.726029,-0.62695 -1.168746,0 -1.865349,0.68887 -0.688864,0.68886 -0.781744,1.71055 z" />
            <path
               inkscape:connector-curvature="0"
               id="path1013"
               style="fill:#ffffff;stroke-width:0.594433"
               d="m 84.198134,127.12052 h -1.455128 v -12.0435 h 1.455128 z" />
            <path
               inkscape:connector-curvature="0"
               id="path1015"
               style="fill:#ffffff;stroke-width:0.594433"
               d="M 93.811267,127.12052 H 92.36388 v -0.92106 q -0.193501,0.13158 -0.526323,0.37152 -0.325082,0.2322 -0.634683,0.37152 -0.363782,0.17802 -0.835924,0.29412 -0.472143,0.12384 -1.106826,0.12384 -1.168746,0 -1.98145,-0.774 -0.812704,-0.774 -0.812704,-1.97371 0,-0.98298 0.417962,-1.58671 0.425702,-0.61146 1.207446,-0.95976 0.789484,-0.3483 1.89631,-0.47214 1.106825,-0.12385 2.376192,-0.18577 v -0.22446 q 0,-0.49536 -0.178021,-0.82044 -0.170281,-0.32508 -0.495363,-0.51084 -0.309601,-0.17802 -0.743043,-0.23994 -0.433443,-0.0619 -0.905585,-0.0619 -0.572763,0 -1.277106,0.15481 -0.704344,0.14706 -1.455128,0.43344 h -0.0774 v -1.47835 q 0.425702,-0.1161 1.230666,-0.25542 0.804964,-0.13932 1.586708,-0.13932 0.913325,0 1.586708,0.1548 0.681123,0.14706 1.176486,0.51084 0.487622,0.35604 0.743044,0.92107 0.255421,0.56502 0.255421,1.40094 z m -1.447387,-2.12851 v -2.40715 q -0.665644,0.0387 -1.571228,0.1161 -0.897845,0.0774 -1.424167,0.22446 -0.626944,0.17802 -1.013945,0.55728 -0.387002,0.37153 -0.387002,1.02943 0,0.74304 0.448922,1.12231 0.448922,0.37152 1.369987,0.37152 0.766264,0 1.400947,-0.29412 0.634683,-0.30187 1.176486,-0.71983 z" />
            <path
               inkscape:connector-curvature="0"
               id="path1017"
               style="fill:#ffffff;stroke-width:0.594433"
               d="m 103.85784,127.12052 h -1.45513 v -4.92266 q 0,-0.59598 -0.0697,-1.11457 -0.0697,-0.52632 -0.25542,-0.82044 -0.1935,-0.32508 -0.55728,-0.47988 -0.36379,-0.16254 -0.94429,-0.16254 -0.595982,0 -1.246145,0.29412 -0.650163,0.29412 -1.246146,0.75078 v 6.45519 h -1.455127 v -8.64562 h 1.455127 v 0.95976 q 0.681123,-0.56502 1.408687,-0.88236 0.727564,-0.31734 1.493824,-0.31734 1.40095,0 2.13625,0.84366 0.73531,0.84367 0.73531,2.43037 z" />
            <path
               inkscape:connector-curvature="0"
               id="path1019"
               style="fill:#ffffff;stroke-width:0.594433"
               d="m 113.67221,126.13754 q 0,2.19817 -0.99847,3.22759 -0.99846,1.02943 -3.07279,1.02943 -0.68887,0 -1.34677,-0.10062 -0.65016,-0.0929 -1.28485,-0.2709 v -1.48609 h 0.0774 q 0.35605,0.13932 1.13005,0.34056 0.774,0.20898 1.54801,0.20898 0.74304,0 1.23066,-0.17802 0.48763,-0.17802 0.75853,-0.49536 0.2709,-0.30186 0.387,-0.72756 0.1161,-0.42571 0.1161,-0.95203 v -0.78948 q -0.6579,0.52632 -1.26163,0.78948 -0.59598,0.25542 -1.52478,0.25542 -1.54801,0 -2.46134,-1.11456 -0.90558,-1.12231 -0.90558,-3.15794 0,-1.11456 0.3096,-1.91953 0.31734,-0.8127 0.85914,-1.40095 0.50311,-0.54954 1.22293,-0.8514 0.71982,-0.3096 1.43191,-0.3096 0.75078,0 1.25388,0.1548 0.51085,0.14706 1.07587,0.45666 l 0.0929,-0.37152 h 1.36225 z m -1.45513,-1.39321 v -4.71368 q -0.5805,-0.26316 -1.08361,-0.37152 -0.49536,-0.11611 -0.99072,-0.11611 -1.19971,0 -1.88857,0.80497 -0.68886,0.80496 -0.68886,2.33749 0,1.45513 0.51084,2.20591 0.51084,0.75079 1.69507,0.75079 0.63468,0 1.26936,-0.23995 0.64243,-0.24768 1.17649,-0.6579 z" />
            <path
               inkscape:connector-curvature="0"
               id="path1021"
               style="fill:#ffffff;stroke-width:0.594433"
               d="m 123.7033,127.12052 h -1.45513 v -0.95976 q -0.7353,0.5805 -1.40869,0.8901 -0.67338,0.3096 -1.48609,0.3096 -1.36224,0 -2.12077,-0.82818 -0.75852,-0.83592 -0.75852,-2.44585 v -5.61153 h 1.45513 v 4.92266 q 0,0.65791 0.0619,1.13005 0.0619,0.4644 0.26316,0.79722 0.20898,0.34057 0.5418,0.49537 0.33282,0.1548 0.96751,0.1548 0.56502,0 1.23066,-0.29412 0.67339,-0.29413 1.25389,-0.75079 v -6.45519 h 1.45513 z" />
            <path
               inkscape:connector-curvature="0"
               id="path1023"
               style="fill:#ffffff;stroke-width:0.594433"
               d="m 133.28546,127.12052 h -1.44738 v -0.92106 q -0.1935,0.13158 -0.52633,0.37152 -0.32508,0.2322 -0.63468,0.37152 -0.36378,0.17802 -0.83592,0.29412 -0.47215,0.12384 -1.10683,0.12384 -1.16874,0 -1.98145,-0.774 -0.8127,-0.774 -0.8127,-1.97371 0,-0.98298 0.41796,-1.58671 0.4257,-0.61146 1.20745,-0.95976 0.78948,-0.3483 1.89631,-0.47214 1.10682,-0.12385 2.37619,-0.18577 v -0.22446 q 0,-0.49536 -0.17802,-0.82044 -0.17028,-0.32508 -0.49537,-0.51084 -0.3096,-0.17802 -0.74304,-0.23994 -0.43344,-0.0619 -0.90558,-0.0619 -0.57277,0 -1.27711,0.15481 -0.70434,0.14706 -1.45513,0.43344 h -0.0774 v -1.47835 q 0.4257,-0.1161 1.23067,-0.25542 0.80496,-0.13932 1.58671,-0.13932 0.91332,0 1.5867,0.1548 0.68113,0.14706 1.17649,0.51084 0.48762,0.35604 0.74304,0.92107 0.25542,0.56502 0.25542,1.40094 z m -1.44738,-2.12851 v -2.40715 q -0.66565,0.0387 -1.57123,0.1161 -0.89785,0.0774 -1.42417,0.22446 -0.62694,0.17802 -1.01394,0.55728 -0.38701,0.37153 -0.38701,1.02943 0,0.74304 0.44893,1.12231 0.44892,0.37152 1.36998,0.37152 0.76627,0 1.40095,-0.29412 0.63468,-0.30187 1.17649,-0.71983 z" />
            <path
               inkscape:connector-curvature="0"
               id="path1025"
               style="fill:#ffffff;stroke-width:0.594433"
               d="m 143.11531,126.13754 q 0,2.19817 -0.99846,3.22759 -0.99847,1.02943 -3.0728,1.02943 -0.68886,0 -1.34676,-0.10062 -0.65017,-0.0929 -1.28485,-0.2709 v -1.48609 h 0.0774 q 0.35604,0.13932 1.13005,0.34056 0.774,0.20898 1.548,0.20898 0.74305,0 1.23067,-0.17802 0.48762,-0.17802 0.75852,-0.49536 0.27091,-0.30186 0.38701,-0.72756 0.1161,-0.42571 0.1161,-0.95203 v -0.78948 q -0.65791,0.52632 -1.26163,0.78948 -0.59598,0.25542 -1.52479,0.25542 -1.548,0 -2.46133,-1.11456 -0.90558,-1.12231 -0.90558,-3.15794 0,-1.11456 0.3096,-1.91953 0.31734,-0.8127 0.85914,-1.40095 0.5031,-0.54954 1.22293,-0.8514 0.71982,-0.3096 1.43191,-0.3096 0.75078,0 1.25388,0.1548 0.51084,0.14706 1.07587,0.45666 l 0.0929,-0.37152 h 1.36224 z m -1.45512,-1.39321 v -4.71368 q -0.58051,-0.26316 -1.08361,-0.37152 -0.49536,-0.11611 -0.99072,-0.11611 -1.19971,0 -1.88857,0.80497 -0.68887,0.80496 -0.68887,2.33749 0,1.45513 0.51085,2.20591 0.51084,0.75079 1.69506,0.75079 0.63469,0 1.26937,-0.23995 0.64242,-0.24768 1.17649,-0.6579 z" />
            <path
               inkscape:connector-curvature="0"
               id="path1027"
               style="fill:#ffffff;stroke-width:0.594433"
               d="m 153.21606,122.94864 h -6.37005 q 0,0.79723 0.23994,1.39321 0.23994,0.58824 0.6579,0.9675 0.40248,0.37153 0.95202,0.55729 0.55729,0.18576 1.22293,0.18576 0.88236,0 1.77247,-0.3483 0.89784,-0.35605 1.27711,-0.69661 h 0.0774 v 1.58671 q -0.73531,0.3096 -1.50157,0.51858 -0.76627,0.20898 -1.60993,0.20898 -2.15173,0 -3.35918,-1.161 -1.20744,-1.16875 -1.20744,-3.31274 0,-2.12077 1.15326,-3.36692 1.16101,-1.24614 3.04958,-1.24614 1.74925,0 2.69353,1.02168 0.95203,1.02169 0.95203,2.90252 z m -1.41643,-1.11456 q -0.008,-1.14553 -0.5805,-1.77247 -0.56503,-0.62695 -1.72603,-0.62695 -1.16875,0 -1.86535,0.68887 -0.68886,0.68886 -0.78174,1.71055 z" />
            <path
               inkscape:connector-curvature="0"
               id="path1029"
               style="fill:#ffffff;stroke-width:0.594433"
               d="m 161.59853,124.62823 q 0,1.18423 -0.98299,1.94275 -0.97524,0.75852 -2.67031,0.75852 -0.95977,0 -1.76473,-0.22446 -0.79722,-0.2322 -1.33903,-0.5031 v -1.63315 h 0.0774 q 0.68887,0.51858 1.53253,0.82819 0.84367,0.30186 1.61767,0.30186 0.95976,0 1.50157,-0.3096 0.5418,-0.30961 0.5418,-0.97525 0,-0.51084 -0.29412,-0.774 -0.29412,-0.26316 -1.13005,-0.44892 -0.3096,-0.0697 -0.8127,-0.16255 -0.49536,-0.0929 -0.90559,-0.20124 -1.13778,-0.30186 -1.61766,-0.88236 -0.47215,-0.58824 -0.47215,-1.43965 0,-0.53406 0.21672,-1.0062 0.22447,-0.47215 0.67339,-0.84367 0.43344,-0.36378 1.09908,-0.57276 0.67339,-0.21672 1.50157,-0.21672 0.77401,0 1.56349,0.1935 0.79722,0.18576 1.32355,0.45666 v 1.55575 h -0.0774 q -0.55729,-0.41022 -1.35451,-0.68886 -0.79723,-0.28639 -1.56349,-0.28639 -0.79722,0 -1.34677,0.30961 -0.54954,0.30186 -0.54954,0.90558 0,0.53406 0.33282,0.80496 0.32508,0.27091 1.05265,0.44119 0.40248,0.0929 0.89784,0.18576 0.50311,0.0929 0.83593,0.17028 1.01394,0.2322 1.56348,0.79722 0.54955,0.57277 0.54955,1.51705 z" />
            <path
               inkscape:connector-curvature="0"
               id="path1031"
               style="fill:#ffffff;stroke-width:0.594433"
               d="m 166.70695,124.91461 -2.18269,5.06973 h -1.13005 l 1.34677,-5.06973 z" />
            <path
               inkscape:connector-curvature="0"
               id="path1033"
               style="fill:#ffffff;stroke-width:0.594433"
               d="m 176.58324,117.02751 h -1.64089 v -1.50931 h 1.64089 z m -0.0929,10.09301 h -1.45513 v -8.64562 h 1.45513 z" />
            <path
               inkscape:connector-curvature="0"
               id="path1035"
               style="fill:#ffffff;stroke-width:0.594433"
               d="m 183.87435,127.04312 q -0.41022,0.10836 -0.89785,0.17802 -0.47988,0.0697 -0.85914,0.0697 -1.32355,0 -2.01241,-0.71208 -0.68886,-0.71208 -0.68886,-2.28331 v -4.59758 h -0.98299 v -1.22293 h 0.98299 v -2.48455 h 1.45512 v 2.48455 h 3.00314 v 1.22293 h -3.00314 v 3.93968 q 0,0.68112 0.031,1.06812 0.031,0.37926 0.21673,0.71208 0.17028,0.30961 0.4644,0.45667 0.30186,0.13932 0.91332,0.13932 0.35604,0 0.74305,-0.10062 0.387,-0.10836 0.55728,-0.17802 h 0.0774 z" />
            <path
               inkscape:connector-curvature="0"
               id="path1037"
               style="fill:#ffffff;stroke-width:0.594433"
               d="m 192.7754,117.02751 h -1.64089 v -1.50931 h 1.64089 z m -0.0929,10.09301 h -1.45513 v -8.64562 h 1.45513 z" />
            <path
               inkscape:connector-curvature="0"
               id="path1039"
               style="fill:#ffffff;stroke-width:0.594433"
               d="m 201.75385,124.62823 q 0,1.18423 -0.98299,1.94275 -0.97524,0.75852 -2.67031,0.75852 -0.95977,0 -1.76473,-0.22446 -0.79722,-0.2322 -1.33903,-0.5031 v -1.63315 h 0.0774 q 0.68887,0.51858 1.53253,0.82819 0.84367,0.30186 1.61767,0.30186 0.95976,0 1.50157,-0.3096 0.5418,-0.30961 0.5418,-0.97525 0,-0.51084 -0.29412,-0.774 -0.29412,-0.26316 -1.13005,-0.44892 -0.3096,-0.0697 -0.8127,-0.16255 -0.49536,-0.0929 -0.90559,-0.20124 -1.13778,-0.30186 -1.61766,-0.88236 -0.47215,-0.58824 -0.47215,-1.43965 0,-0.53406 0.21672,-1.0062 0.22447,-0.47215 0.67339,-0.84367 0.43344,-0.36378 1.09908,-0.57276 0.67339,-0.21672 1.50157,-0.21672 0.774,0 1.56349,0.1935 0.79722,0.18576 1.32355,0.45666 v 1.55575 h -0.0774 q -0.55728,-0.41022 -1.3545,-0.68886 -0.79723,-0.28639 -1.56349,-0.28639 -0.79722,0 -1.34677,0.30961 -0.54954,0.30186 -0.54954,0.90558 0,0.53406 0.33282,0.80496 0.32508,0.27091 1.05265,0.44119 0.40248,0.0929 0.89784,0.18576 0.5031,0.0929 0.83593,0.17028 1.01394,0.2322 1.56348,0.79722 0.54955,0.57277 0.54955,1.51705 z" />
            <path
               inkscape:connector-curvature="0"
               id="path1041"
               style="fill:#ffffff;stroke-width:0.594433"
               d="m 19.754573,146.93502 h -1.447387 v -0.92106 q -0.193501,0.13158 -0.526323,0.37152 -0.325082,0.2322 -0.634683,0.37152 -0.363782,0.17802 -0.835924,0.29412 -0.472143,0.12384 -1.106826,0.12384 -1.168746,0 -1.98145,-0.774 -0.812704,-0.774 -0.812704,-1.97371 0,-0.98298 0.417962,-1.58671 0.425702,-0.61146 1.207446,-0.95976 0.789484,-0.3483 1.89631,-0.47215 1.106825,-0.12384 2.376192,-0.18576 v -0.22446 q 0,-0.49536 -0.178021,-0.82044 -0.170281,-0.32508 -0.495363,-0.51084 -0.309601,-0.17802 -0.743043,-0.23995 -0.433443,-0.0619 -0.905585,-0.0619 -0.572763,0 -1.277106,0.15481 -0.704344,0.14706 -1.455128,0.43344 h -0.0774 v -1.47835 q 0.425702,-0.1161 1.230666,-0.25542 0.804964,-0.13932 1.586708,-0.13932 0.913325,0 1.586708,0.1548 0.681123,0.14706 1.176486,0.51084 0.487622,0.35604 0.743044,0.92107 0.255421,0.56502 0.255421,1.40094 z m -1.447387,-2.12851 v -2.40715 q -0.665644,0.0387 -1.571228,0.1161 -0.897845,0.0774 -1.424167,0.22446 -0.626944,0.17802 -1.013946,0.55728 -0.387001,0.37153 -0.387001,1.02943 0,0.74304 0.448922,1.12231 0.448922,0.37152 1.369987,0.37152 0.766264,0 1.400947,-0.29412 0.634683,-0.30187 1.176486,-0.71983 z" />
            <path
               inkscape:connector-curvature="0"
               id="path1043"
               style="fill:#ffffff;stroke-width:0.594433"
               d="m 30.180405,142.50772 q 0,1.05265 -0.301862,1.92727 -0.301861,0.86688 -0.851404,1.47061 -0.510842,0.57276 -1.207446,0.8901 -0.688863,0.3096 -1.462867,0.3096 -0.673384,0 -1.222926,-0.14706 -0.541803,-0.14706 -1.106826,-0.45666 v 3.62234 H 22.571947 V 138.2894 h 1.455127 v 0.90558 q 0.580503,-0.48762 1.300326,-0.8127 0.727564,-0.33282 1.548008,-0.33282 1.563488,0 2.430372,1.18422 0.874625,1.17649 0.874625,3.27404 z m -1.501568,0.0387 q 0,-1.56349 -0.534062,-2.33749 -0.534063,-0.77401 -1.640889,-0.77401 -0.626943,0 -1.261626,0.27091 -0.634683,0.2709 -1.215186,0.71208 v 4.89944 q 0.619203,0.27865 1.060385,0.37927 0.448923,0.10062 1.013945,0.10062 1.215186,0 1.89631,-0.82045 0.681123,-0.82044 0.681123,-2.43037 z" />
            <path
               inkscape:connector-curvature="0"
               id="path1045"
               style="fill:#ffffff;stroke-width:0.594433"
               d="m 36.93746,146.85762 q -0.410223,0.10836 -0.897845,0.17802 -0.479882,0.0697 -0.859144,0.0697 -1.323547,0 -2.01241,-0.71208 -0.688864,-0.71208 -0.688864,-2.28331 v -4.59758 h -0.982985 v -1.22293 h 0.982985 v -2.48455 h 1.455127 v 2.48455 h 3.003136 v 1.22293 h -3.003136 v 3.93968 q 0,0.68112 0.03096,1.06812 0.03096,0.37926 0.216721,0.71208 0.170281,0.30961 0.464402,0.45667 0.301862,0.13932 0.913325,0.13932 0.356041,0 0.743043,-0.10062 0.387002,-0.10836 0.557283,-0.17802 h 0.0774 z" />
            <path
               inkscape:connector-curvature="0"
               id="path1047"
               style="fill:#ffffff;stroke-width:0.594433"
               d="m 48.926779,136.30021 h -0.0774 q -0.239941,-0.0697 -0.626943,-0.13932 -0.387002,-0.0774 -0.681123,-0.0774 -0.936545,0 -1.362247,0.41796 -0.417962,0.41022 -0.417962,1.49383 v 0.29412 h 2.623873 v 1.22293 h -2.577433 v 7.42269 h -1.455127 v -7.42269 h -0.982985 v -1.22293 h 0.982985 v -0.28638 q 0,-1.54027 0.766264,-2.36071 0.766263,-0.82819 2.213651,-0.82819 0.487622,0 0.874624,0.0464 0.394742,0.0464 0.719824,0.10836 z" />
            <path
               inkscape:connector-curvature="0"
               id="path1049"
               style="fill:#ffffff;stroke-width:0.594433"
               d="m 57.216359,142.61608 q 0,2.11303 -1.083606,3.33596 -1.083605,1.22292 -2.902514,1.22292 -1.834389,0 -2.917995,-1.22292 -1.075865,-1.22293 -1.075865,-3.33596 0,-2.11303 1.075865,-3.33596 1.083606,-1.23066 2.917995,-1.23066 1.818909,0 2.902514,1.23066 1.083606,1.22293 1.083606,3.33596 z m -1.501568,0 q 0,-1.67959 -0.657903,-2.49229 -0.657903,-0.82045 -1.826649,-0.82045 -1.184226,0 -1.842129,0.82045 -0.650164,0.8127 -0.650164,2.49229 0,1.62541 0.657904,2.46907 0.657903,0.83593 1.834389,0.83593 1.161006,0 1.818909,-0.82819 0.665643,-0.83592 0.665643,-2.47681 z" />
            <path
               inkscape:connector-curvature="0"
               id="path1051"
               style="fill:#ffffff;stroke-width:0.594433"
               d="m 64.871258,139.87611 h -0.0774 q -0.325081,-0.0774 -0.634683,-0.10836 -0.301862,-0.0387 -0.719824,-0.0387 -0.673383,0 -1.300326,0.30186 -0.626943,0.29412 -1.207446,0.76626 v 6.13785 H 59.47645 v -8.64562 h 1.455128 v 1.27711 q 0.866884,-0.69661 1.524787,-0.98299 0.665644,-0.29412 1.354507,-0.29412 0.379262,0 0.549543,0.0232 0.170281,0.0155 0.510843,0.0697 z" />
            <path
               inkscape:connector-curvature="0"
               id="path1053"
               style="fill:#ffffff;stroke-width:0.594433"
               d="m 78.842029,146.93502 h -1.455127 v -0.90558 q -0.626943,0.5418 -1.308067,0.84366 -0.681123,0.30186 -1.478347,0.30186 -1.548008,0 -2.461332,-1.19196 -0.905585,-1.19197 -0.905585,-3.305 0,-1.09908 0.309602,-1.95823 0.317341,-0.85914 0.851404,-1.46287 0.526323,-0.58824 1.222926,-0.89784 0.704344,-0.3096 1.455127,-0.3096 0.681124,0 1.207446,0.14706 0.526323,0.13932 1.106826,0.44118 v -3.74618 h 1.455127 z m -1.455127,-2.12851 v -4.96136 q -0.588243,-0.26316 -1.052645,-0.36378 -0.464403,-0.10063 -1.013945,-0.10063 -1.222926,0 -1.90405,0.85141 -0.681123,0.8514 -0.681123,2.41489 0,1.54027 0.526322,2.34523 0.526323,0.79723 1.687329,0.79723 0.619203,0 1.253886,-0.2709 0.634683,-0.27865 1.184226,-0.71209 z" />
            <path
               inkscape:connector-curvature="0"
               id="path1055"
               style="fill:#ffffff;stroke-width:0.594433"
               d="m 83.269331,136.84201 h -1.640888 v -1.50931 h 1.640888 z m -0.09288,10.09301 h -1.455127 v -8.64562 h 1.455127 z" />
            <path
               inkscape:connector-curvature="0"
               id="path1057"
               style="fill:#ffffff;stroke-width:0.594433"
               d="m 93.083698,145.95204 q 0,2.19817 -0.998465,3.22759 -0.998465,1.02943 -3.072795,1.02943 -0.688864,0 -1.346767,-0.10062 -0.650163,-0.0929 -1.284847,-0.2709 v -1.48609 h 0.0774 q 0.356042,0.13932 1.130045,0.34056 0.774004,0.20898 1.548008,0.20898 0.743044,0 1.230666,-0.17802 0.487623,-0.17802 0.758524,-0.49536 0.270902,-0.30186 0.387002,-0.72756 0.116101,-0.42571 0.116101,-0.95203 v -0.78948 q -0.657904,0.52632 -1.261627,0.78948 -0.595983,0.25542 -1.524787,0.25542 -1.548008,0 -2.461333,-1.11456 -0.905584,-1.12231 -0.905584,-3.15794 0,-1.11457 0.309601,-1.91953 0.317342,-0.8127 0.859145,-1.40095 0.503102,-0.54954 1.222926,-0.8514 0.719823,-0.3096 1.431907,-0.3096 0.750784,0 1.253886,0.1548 0.510843,0.14706 1.075866,0.45666 l 0.09288,-0.37152 h 1.362247 z m -1.455127,-1.39321 v -4.71368 q -0.580503,-0.26316 -1.083606,-0.37152 -0.495362,-0.11611 -0.990725,-0.11611 -1.199706,0 -1.888569,0.80497 -0.688864,0.80496 -0.688864,2.33749 0,1.45513 0.510843,2.20591 0.510842,0.75079 1.695068,0.75079 0.634684,0 1.269367,-0.23995 0.642423,-0.24768 1.176486,-0.6579 z" />
            <path
               inkscape:connector-curvature="0"
               id="path1059"
               style="fill:#ffffff;stroke-width:0.594433"
               d="M 97.511,136.84201 H 95.870112 V 135.3327 H 97.511 Z m -0.09288,10.09301 h -1.455128 v -8.64562 h 1.455128 z" />
            <path
               inkscape:connector-curvature="0"
               id="path1061"
               style="fill:#ffffff;stroke-width:0.594433"
               d="m 104.80212,146.85762 q -0.41022,0.10836 -0.89784,0.17802 -0.47989,0.0697 -0.85915,0.0697 -1.32354,0 -2.01241,-0.71208 -0.68886,-0.71208 -0.68886,-2.28331 v -4.59758 h -0.982986 v -1.22293 h 0.982986 v -2.48455 h 1.45513 v 2.48455 h 3.00313 v 1.22293 h -3.00313 v 3.93968 q 0,0.68112 0.031,1.06812 0.031,0.37926 0.21672,0.71208 0.17028,0.30961 0.4644,0.45667 0.30186,0.13932 0.91332,0.13932 0.35605,0 0.74305,-0.10062 0.387,-0.10836 0.55728,-0.17802 h 0.0774 z" />
            <path
               inkscape:connector-curvature="0"
               id="path1063"
               style="fill:#ffffff;stroke-width:0.594433"
               d="m 108.13033,136.84201 h -1.64089 v -1.50931 h 1.64089 z m -0.0929,10.09301 h -1.45513 v -8.64562 h 1.45513 z" />
            <path
               inkscape:connector-curvature="0"
               id="path1065"
               style="fill:#ffffff;stroke-width:0.594433"
               d="m 117.20166,146.93502 h -6.98151 v -1.07586 l 5.03876,-6.35457 h -4.9304 v -1.21519 h 6.74157 v 1.03716 l -5.06198,6.3778 h 5.19356 z" />
            <path
               inkscape:connector-curvature="0"
               id="path1067"
               style="fill:#ffffff;stroke-width:0.594433"
               d="m 125.97886,146.93502 h -1.44739 v -0.92106 q -0.1935,0.13158 -0.52632,0.37152 -0.32508,0.2322 -0.63468,0.37152 -0.36378,0.17802 -0.83593,0.29412 -0.47214,0.12384 -1.10682,0.12384 -1.16875,0 -1.98145,-0.774 -0.81271,-0.774 -0.81271,-1.97371 0,-0.98298 0.41797,-1.58671 0.4257,-0.61146 1.20744,-0.95976 0.78949,-0.3483 1.89631,-0.47215 1.10683,-0.12384 2.37619,-0.18576 v -0.22446 q 0,-0.49536 -0.17802,-0.82044 -0.17028,-0.32508 -0.49536,-0.51084 -0.3096,-0.17802 -0.74304,-0.23995 -0.43344,-0.0619 -0.90559,-0.0619 -0.57276,0 -1.2771,0.15481 -0.70435,0.14706 -1.45513,0.43344 h -0.0774 v -1.47835 q 0.4257,-0.1161 1.23066,-0.25542 0.80497,-0.13932 1.58671,-0.13932 0.91333,0 1.58671,0.1548 0.68112,0.14706 1.17649,0.51084 0.48762,0.35604 0.74304,0.92107 0.25542,0.56502 0.25542,1.40094 z m -1.44739,-2.12851 v -2.40715 q -0.66564,0.0387 -1.57122,0.1161 -0.89785,0.0774 -1.42417,0.22446 -0.62694,0.17802 -1.01395,0.55728 -0.387,0.37153 -0.387,1.02943 0,0.74304 0.44892,1.12231 0.44893,0.37152 1.36999,0.37152 0.76627,0 1.40095,-0.29412 0.63468,-0.30187 1.17648,-0.71983 z" />
            <path
               inkscape:connector-curvature="0"
               id="path1069"
               style="fill:#ffffff;stroke-width:0.594433"
               d="m 133.28546,146.85762 q -0.41022,0.10836 -0.89785,0.17802 -0.47988,0.0697 -0.85914,0.0697 -1.32355,0 -2.01241,-0.71208 -0.68886,-0.71208 -0.68886,-2.28331 v -4.59758 h -0.98299 v -1.22293 h 0.98299 v -2.48455 h 1.45512 v 2.48455 h 3.00314 v 1.22293 h -3.00314 v 3.93968 q 0,0.68112 0.031,1.06812 0.031,0.37926 0.21673,0.71208 0.17028,0.30961 0.4644,0.45667 0.30186,0.13932 0.91332,0.13932 0.35604,0 0.74305,-0.10062 0.387,-0.10836 0.55728,-0.17802 h 0.0774 z" />
            <path
               inkscape:connector-curvature="0"
               id="path1071"
               style="fill:#ffffff;stroke-width:0.594433"
               d="m 136.61368,136.84201 h -1.64089 v -1.50931 h 1.64089 z m -0.0929,10.09301 h -1.45513 v -8.64562 h 1.45513 z" />
            <path
               inkscape:connector-curvature="0"
               id="path1073"
               style="fill:#ffffff;stroke-width:0.594433"
               d="m 146.78408,142.61608 q 0,2.11303 -1.0836,3.33596 -1.08361,1.22292 -2.90252,1.22292 -1.83438,0 -2.91799,-1.22292 -1.07587,-1.22293 -1.07587,-3.33596 0,-2.11303 1.07587,-3.33596 1.08361,-1.23066 2.91799,-1.23066 1.81891,0 2.90252,1.23066 1.0836,1.22293 1.0836,3.33596 z m -1.50156,0 q 0,-1.67959 -0.65791,-2.49229 -0.6579,-0.82045 -1.82665,-0.82045 -1.18422,0 -1.84212,0.82045 -0.65017,0.8127 -0.65017,2.49229 0,1.62541 0.65791,2.46907 0.6579,0.83593 1.83438,0.83593 1.16101,0 1.81891,-0.82819 0.66565,-0.83592 0.66565,-2.47681 z" />
            <path
               inkscape:connector-curvature="0"
               id="path1075"
               style="fill:#ffffff;stroke-width:0.594433"
               d="m 156.27338,146.93502 h -1.45513 v -4.92266 q 0,-0.59599 -0.0697,-1.11457 -0.0697,-0.52632 -0.25542,-0.82044 -0.1935,-0.32508 -0.55728,-0.47988 -0.36378,-0.16255 -0.94429,-0.16255 -0.59598,0 -1.24614,0.29413 -0.65017,0.29412 -1.24615,0.75078 v 6.45519 h -1.45513 v -8.64562 h 1.45513 v 0.95976 q 0.68112,-0.56502 1.40869,-0.88236 0.72756,-0.31734 1.49383,-0.31734 1.40094,0 2.13625,0.84366 0.7353,0.84367 0.7353,2.43037 z" />
            <path
               inkscape:connector-curvature="0"
               id="path1077"
               style="fill:#ffffff;stroke-width:0.594433"
               d="m 169.87262,134.89152 -5.54961,14.39647 h -1.33902 l 5.52639,-14.39647 z" />
            <path
               inkscape:connector-curvature="0"
               id="path1079"
               style="fill:#ffffff;stroke-width:0.594433"
               d="m 20.644677,162.32222 q 0,1.05265 -0.301861,1.92727 -0.301862,0.86688 -0.851404,1.47061 -0.510843,0.57276 -1.207446,0.8901 -0.688864,0.3096 -1.462868,0.3096 -0.673383,0 -1.222926,-0.14706 -0.541803,-0.14706 -1.106826,-0.45666 v 3.62234 H 13.036219 V 158.1039 h 1.455127 v 0.90558 q 0.580503,-0.48762 1.300327,-0.8127 0.727564,-0.33282 1.548008,-0.33282 1.563488,0 2.430372,1.18422 0.874624,1.17649 0.874624,3.27404 z m -1.501567,0.0387 q 0,-1.56349 -0.534063,-2.33749 -0.534063,-0.77401 -1.640888,-0.77401 -0.626943,0 -1.261626,0.27091 -0.634684,0.2709 -1.215187,0.71208 v 4.89944 q 0.619204,0.27865 1.060386,0.37927 0.448922,0.10062 1.013945,0.10062 1.215186,0 1.896309,-0.82045 0.681124,-0.82044 0.681124,-2.43037 z" />
            <path
               inkscape:connector-curvature="0"
               id="path1081"
               style="fill:#ffffff;stroke-width:0.594433"
               d="m 28.307316,159.69061 h -0.0774 q -0.325081,-0.0774 -0.634683,-0.10836 -0.301861,-0.0387 -0.719824,-0.0387 -0.673383,0 -1.300326,0.30186 -0.626943,0.29412 -1.207446,0.76626 v 6.13785 H 22.91251 v -8.64562 h 1.455127 v 1.27711 q 0.866884,-0.69661 1.524787,-0.98299 0.665644,-0.29412 1.354507,-0.29412 0.379262,0 0.549543,0.0232 0.170281,0.0155 0.510843,0.0697 z" />
            <path
               inkscape:connector-curvature="0"
               id="path1083"
               style="fill:#ffffff;stroke-width:0.594433"
               d="m 37.061299,162.43058 q 0,2.11303 -1.083605,3.33596 -1.083606,1.22292 -2.902515,1.22292 -1.834389,0 -2.917995,-1.22292 -1.075865,-1.22293 -1.075865,-3.33596 0,-2.11303 1.075865,-3.33596 1.083606,-1.23066 2.917995,-1.23066 1.818909,0 2.902515,1.23066 1.083605,1.22293 1.083605,3.33596 z m -1.501568,0 q 0,-1.67959 -0.657903,-2.49229 -0.657903,-0.82045 -1.826649,-0.82045 -1.184226,0 -1.842129,0.82045 -0.650164,0.8127 -0.650164,2.49229 0,1.62541 0.657904,2.46907 0.657903,0.83593 1.834389,0.83593 1.161006,0 1.818909,-0.82819 0.665643,-0.83592 0.665643,-2.47681 z" />
            <path
               inkscape:connector-curvature="0"
               id="path1085"
               style="fill:#ffffff;stroke-width:0.594433"
               d="m 46.333866,166.74952 h -1.455127 v -0.90558 q -0.626944,0.5418 -1.308067,0.84366 -0.681123,0.30186 -1.478347,0.30186 -1.548008,0 -2.461333,-1.19196 -0.905584,-1.19197 -0.905584,-3.305 0,-1.09908 0.309601,-1.95823 0.317342,-0.85914 0.851404,-1.46287 0.526323,-0.58824 1.222927,-0.89784 0.704343,-0.3096 1.455127,-0.3096 0.681123,0 1.207446,0.14706 0.526323,0.13932 1.106826,0.44118 v -3.74618 h 1.455127 z m -1.455127,-2.12851 v -4.96136 q -0.588243,-0.26316 -1.052646,-0.36379 -0.464402,-0.10062 -1.013945,-0.10062 -1.222926,0 -1.904049,0.85141 -0.681124,0.8514 -0.681124,2.41489 0,1.54027 0.526323,2.34523 0.526322,0.79723 1.687328,0.79723 0.619203,0 1.253887,-0.2709 0.634683,-0.27865 1.184226,-0.71209 z" />
            <path
               inkscape:connector-curvature="0"
               id="path1087"
               style="fill:#ffffff;stroke-width:0.594433"
               d="m 56.364956,166.74952 h -1.455127 v -0.95976 q -0.735304,0.5805 -1.408687,0.8901 -0.673384,0.3096 -1.486088,0.3096 -1.362247,0 -2.12077,-0.82818 -0.758524,-0.83592 -0.758524,-2.44585 v -5.61153 h 1.455127 v 4.92266 q 0,0.65791 0.06192,1.13005 0.06192,0.4644 0.263162,0.79722 0.208981,0.34056 0.541802,0.49537 0.332822,0.1548 0.967505,0.1548 0.565023,0 1.230666,-0.29413 0.673384,-0.29412 1.253887,-0.75078 v -6.45519 h 1.455127 z" />
            <path
               inkscape:connector-curvature="0"
               id="path1089"
               style="fill:#ffffff;stroke-width:0.594433"
               d="m 65.622042,166.20772 q -0.727564,0.3483 -1.385467,0.5418 -0.650163,0.1935 -1.385467,0.1935 -0.936545,0 -1.718289,-0.2709 -0.781744,-0.27864 -1.339026,-0.83592 -0.565023,-0.55729 -0.874625,-1.40869 -0.309601,-0.8514 -0.309601,-1.98919 0,-2.12077 1.161006,-3.32822 1.168745,-1.20744 3.080535,-1.20744 0.743044,0 1.455127,0.20898 0.719824,0.20898 1.315807,0.51084 v 1.61767 h -0.0774 q -0.665644,-0.51858 -1.377727,-0.79722 -0.704344,-0.27865 -1.377727,-0.27865 -1.238407,0 -1.95823,0.83593 -0.712084,0.82818 -0.712084,2.43811 0,1.56349 0.696604,2.40715 0.704343,0.83593 1.97371,0.83593 0.441182,0 0.897844,-0.1161 0.456663,-0.1161 0.820444,-0.30187 0.317342,-0.16254 0.595983,-0.34056 0.278642,-0.18576 0.441183,-0.31734 h 0.0774 z" />
            <path
               inkscape:connector-curvature="0"
               id="path1091"
               style="fill:#ffffff;stroke-width:0.594433"
               d="m 71.984354,166.67212 q -0.410222,0.10836 -0.897845,0.17802 -0.479882,0.0697 -0.859144,0.0697 -1.323547,0 -2.01241,-0.71208 -0.688864,-0.71208 -0.688864,-2.28331 v -4.59759 h -0.982985 v -1.22292 h 0.982985 v -2.48455 h 1.455128 v 2.48455 h 3.003135 v 1.22292 h -3.003135 v 3.93968 q 0,0.68113 0.03096,1.06813 0.03096,0.37926 0.216721,0.71208 0.170281,0.30961 0.464402,0.45667 0.301862,0.13932 0.913325,0.13932 0.356041,0 0.743043,-0.10062 0.387002,-0.10836 0.557283,-0.17802 h 0.0774 z" />
            <path
               inkscape:connector-curvature="0"
               id="path1093"
               style="fill:#ffffff;stroke-width:0.594433"
               d="m 75.312571,156.65651 h -1.640888 v -1.50931 h 1.640888 z m -0.09288,10.09301 h -1.455127 v -8.64562 h 1.455127 z" />
            <path
               inkscape:connector-curvature="0"
               id="path1095"
               style="fill:#ffffff;stroke-width:0.594433"
               d="m 85.482983,162.43058 q 0,2.11303 -1.083605,3.33596 -1.083606,1.22292 -2.902515,1.22292 -1.834389,0 -2.917994,-1.22292 -1.075866,-1.22293 -1.075866,-3.33596 0,-2.11303 1.075866,-3.33596 1.083605,-1.23066 2.917994,-1.23066 1.818909,0 2.902515,1.23066 1.083605,1.22293 1.083605,3.33596 z m -1.501567,0 q 0,-1.67959 -0.657904,-2.49229 -0.657903,-0.82045 -1.826649,-0.82045 -1.184226,0 -1.842129,0.82045 -0.650163,0.8127 -0.650163,2.49229 0,1.62541 0.657903,2.46907 0.657903,0.83593 1.834389,0.83593 1.161006,0 1.818909,-0.82819 0.665644,-0.83592 0.665644,-2.47681 z" />
            <path
               inkscape:connector-curvature="0"
               id="path1097"
               style="fill:#ffffff;stroke-width:0.594433"
               d="m 94.972271,166.74952 h -1.455127 v -4.92266 q 0,-0.59599 -0.06966,-1.11457 -0.06966,-0.52632 -0.255422,-0.82044 -0.193501,-0.32508 -0.557282,-0.47988 -0.363782,-0.16255 -0.944285,-0.16255 -0.595983,0 -1.246147,0.29413 -0.650163,0.29412 -1.246146,0.75078 v 6.45519 h -1.455127 v -8.64562 h 1.455127 v 0.95976 q 0.681124,-0.56502 1.408687,-0.88236 0.727564,-0.31734 1.493828,-0.31734 1.400947,0 2.136251,0.84366 0.735303,0.84367 0.735303,2.43037 z" />
            <path
               inkscape:connector-curvature="0"
               id="path1099"
               style="fill:#ffffff;stroke-width:0.594433"
               d="m 110.35947,165.76654 q 0,2.19817 -0.99846,3.22759 -0.99847,1.02943 -3.0728,1.02943 -0.68886,0 -1.34677,-0.10062 -0.65016,-0.0929 -1.28484,-0.2709 v -1.48609 h 0.0774 q 0.35604,0.13932 1.13004,0.34056 0.77401,0.20898 1.54801,0.20898 0.74304,0 1.23067,-0.17802 0.48762,-0.17802 0.75852,-0.49536 0.2709,-0.30186 0.387,-0.72756 0.1161,-0.42571 0.1161,-0.95203 v -0.78948 q -0.6579,0.52632 -1.26162,0.78948 -0.59599,0.25542 -1.52479,0.25542 -1.54801,0 -2.46133,-1.11456 -0.90559,-1.12231 -0.90559,-3.15794 0,-1.11457 0.3096,-1.91953 0.31735,-0.8127 0.85915,-1.40095 0.5031,-0.54954 1.22292,-0.8514 0.71983,-0.3096 1.43191,-0.3096 0.75078,0 1.25389,0.1548 0.51084,0.14706 1.07586,0.45666 l 0.0929,-0.37152 h 1.36225 z m -1.45513,-1.39321 v -4.71368 q -0.5805,-0.26316 -1.0836,-0.37153 -0.49537,-0.1161 -0.99073,-0.1161 -1.1997,0 -1.88857,0.80497 -0.68886,0.80496 -0.68886,2.33749 0,1.45513 0.51084,2.20591 0.51084,0.75078 1.69507,0.75078 0.63468,0 1.26937,-0.23994 0.64242,-0.24768 1.17648,-0.6579 z" />
            <path
               inkscape:connector-curvature="0"
               id="path1101"
               style="fill:#ffffff;stroke-width:0.594433"
               d="m 118.61809,159.69061 h -0.0774 q -0.32508,-0.0774 -0.63468,-0.10836 -0.30186,-0.0387 -0.71983,-0.0387 -0.67338,0 -1.30032,0.30186 -0.62695,0.29412 -1.20745,0.76626 v 6.13785 h -1.45513 v -8.64562 h 1.45513 v 1.27711 q 0.86689,-0.69661 1.52479,-0.98299 0.66564,-0.29412 1.35451,-0.29412 0.37926,0 0.54954,0.0232 0.17028,0.0155 0.51084,0.0697 z" />
            <path
               inkscape:connector-curvature="0"
               id="path1103"
               style="fill:#ffffff;stroke-width:0.594433"
               d="m 126.44327,166.74952 h -1.44739 v -0.92106 q -0.1935,0.13158 -0.52632,0.37152 -0.32508,0.2322 -0.63468,0.37152 -0.36378,0.17802 -0.83593,0.29412 -0.47214,0.12384 -1.10682,0.12384 -1.16875,0 -1.98145,-0.774 -0.81271,-0.774 -0.81271,-1.97371 0,-0.98299 0.41797,-1.58671 0.4257,-0.61146 1.20744,-0.95976 0.78949,-0.3483 1.89631,-0.47215 1.10683,-0.12384 2.37619,-0.18576 v -0.22446 q 0,-0.49536 -0.17802,-0.82044 -0.17028,-0.32508 -0.49536,-0.51084 -0.3096,-0.17803 -0.74304,-0.23995 -0.43345,-0.0619 -0.90559,-0.0619 -0.57276,0 -1.2771,0.1548 -0.70435,0.14707 -1.45513,0.43345 h -0.0774 v -1.47835 q 0.4257,-0.1161 1.23066,-0.25542 0.80497,-0.13932 1.58671,-0.13932 0.91333,0 1.58671,0.1548 0.68112,0.14706 1.17649,0.51084 0.48762,0.35604 0.74304,0.92107 0.25542,0.56502 0.25542,1.40094 z m -1.44739,-2.12851 v -2.40715 q -0.66564,0.0387 -1.57122,0.1161 -0.89785,0.0774 -1.42417,0.22446 -0.62694,0.17802 -1.01395,0.55728 -0.387,0.37153 -0.387,1.02943 0,0.74304 0.44892,1.1223 0.44893,0.37153 1.36999,0.37153 0.76626,0 1.40095,-0.29412 0.63468,-0.30187 1.17648,-0.71983 z" />
            <path
               inkscape:connector-curvature="0"
               id="path1105"
               style="fill:#ffffff;stroke-width:0.594433"
               d="m 136.27312,166.74952 h -1.45513 v -0.90558 q -0.62694,0.5418 -1.30806,0.84366 -0.68113,0.30186 -1.47835,0.30186 -1.54801,0 -2.46133,-1.19196 -0.90559,-1.19197 -0.90559,-3.305 0,-1.09908 0.3096,-1.95823 0.31735,-0.85914 0.85141,-1.46287 0.52632,-0.58824 1.22292,-0.89784 0.70435,-0.3096 1.45513,-0.3096 0.68113,0 1.20745,0.14706 0.52632,0.13932 1.10682,0.44118 v -3.74618 h 1.45513 z m -1.45513,-2.12851 v -4.96136 q -0.58824,-0.26316 -1.05264,-0.36379 -0.4644,-0.10062 -1.01395,-0.10062 -1.22292,0 -1.90405,0.85141 -0.68112,0.8514 -0.68112,2.41489 0,1.54027 0.52632,2.34523 0.52633,0.79723 1.68733,0.79723 0.6192,0 1.25389,-0.2709 0.63468,-0.27865 1.18422,-0.71209 z" />
            <path
               inkscape:connector-curvature="0"
               id="path1107"
               style="fill:#ffffff;stroke-width:0.594433"
               d="m 146.37387,162.57764 h -6.37005 q 0,0.79723 0.23994,1.39321 0.23994,0.58824 0.6579,0.9675 0.40249,0.37152 0.95203,0.55729 0.55728,0.18576 1.22292,0.18576 0.88237,0 1.77247,-0.3483 0.89785,-0.35605 1.27711,-0.69661 h 0.0774 v 1.58671 q -0.7353,0.3096 -1.50157,0.51858 -0.76626,0.20898 -1.60993,0.20898 -2.15173,0 -3.35917,-1.161 -1.20745,-1.16875 -1.20745,-3.31274 0,-2.12077 1.15327,-3.36692 1.161,-1.24614 3.04957,-1.24614 1.74925,0 2.69354,1.02168 0.95202,1.02169 0.95202,2.90252 z m -1.41643,-1.11456 q -0.008,-1.14553 -0.5805,-1.77247 -0.56502,-0.62695 -1.72603,-0.62695 -1.16874,0 -1.86535,0.68887 -0.68886,0.68886 -0.78174,1.71055 z" />
            <path
               inkscape:connector-curvature="0"
               id="path1109"
               style="fill:#ffffff;stroke-width:0.594433"
               d="m 23.910974,177.9184 -2.252352,8.64562 h -1.346766 l -2.221391,-6.66417 -2.205912,6.66417 h -1.339026 l -2.275572,-8.64562 h 1.517048 l 1.586708,6.69513 2.159471,-6.69513 h 1.199706 l 2.213651,6.69513 1.501567,-6.69513 z" />
            <path
               inkscape:connector-curvature="0"
               id="path1111"
               style="fill:#ffffff;stroke-width:0.594433"
               d="m 33.377041,182.24508 q 0,2.11303 -1.083605,3.33596 -1.083605,1.22292 -2.902515,1.22292 -1.834389,0 -2.917994,-1.22292 -1.075866,-1.22293 -1.075866,-3.33596 0,-2.11303 1.075866,-3.33596 1.083605,-1.23066 2.917994,-1.23066 1.81891,0 2.902515,1.23066 1.083605,1.22293 1.083605,3.33596 z m -1.501567,0 q 0,-1.67959 -0.657903,-2.49229 -0.657904,-0.82045 -1.82665,-0.82045 -1.184226,0 -1.842129,0.82045 -0.650163,0.8127 -0.650163,2.49229 0,1.62541 0.657903,2.46907 0.657904,0.83593 1.834389,0.83593 1.161006,0 1.81891,-0.82819 0.665643,-0.83592 0.665643,-2.47681 z" />
            <path
               inkscape:connector-curvature="0"
               id="path1113"
               style="fill:#ffffff;stroke-width:0.594433"
               d="m 41.03194,179.50511 h -0.0774 q -0.325082,-0.0774 -0.634683,-0.10836 -0.301862,-0.0387 -0.719824,-0.0387 -0.673383,0 -1.300326,0.30186 -0.626944,0.29412 -1.207447,0.76626 v 6.13785 h -1.455127 v -8.64562 h 1.455127 v 1.2771 q 0.866885,-0.6966 1.524788,-0.98298 0.665643,-0.29412 1.354507,-0.29412 0.379262,0 0.549543,0.0232 0.170281,0.0155 0.510842,0.0697 z" />
            <path
               inkscape:connector-curvature="0"
               id="path1115"
               style="fill:#ffffff;stroke-width:0.594433"
               d="m 50.265806,186.56402 h -1.91953 l -3.467537,-3.78488 -0.944285,0.89785 v 2.88703 h -1.455127 v -12.0435 h 1.455127 v 7.72456 l 4.202841,-4.32668 h 1.83439 l -4.017081,3.99386 z" />
            <path
               inkscape:connector-curvature="0"
               id="path1117"
               style="fill:#ffffff;stroke-width:0.594433"
               d="m 56.450098,175.92921 h -0.0774 q -0.239942,-0.0697 -0.626944,-0.13932 -0.387001,-0.0774 -0.681123,-0.0774 -0.936545,0 -1.362247,0.41796 -0.417962,0.41022 -0.417962,1.49383 v 0.29412 h 2.623873 v 1.22292 h -2.577433 v 7.4227 h -1.455127 v -7.4227 H 50.89275 v -1.22292 h 0.982985 v -0.28638 q 0,-1.54027 0.766264,-2.36071 0.766264,-0.82819 2.213651,-0.82819 0.487622,0 0.874624,0.0464 0.394742,0.0464 0.719824,0.10836 z" />
            <path
               inkscape:connector-curvature="0"
               id="path1119"
               style="fill:#ffffff;stroke-width:0.594433"
               d="m 64.739678,182.24508 q 0,2.11303 -1.083605,3.33596 -1.083606,1.22292 -2.902515,1.22292 -1.834389,0 -2.917995,-1.22292 -1.075865,-1.22293 -1.075865,-3.33596 0,-2.11303 1.075865,-3.33596 1.083606,-1.23066 2.917995,-1.23066 1.818909,0 2.902515,1.23066 1.083605,1.22293 1.083605,3.33596 z m -1.501567,0 q 0,-1.67959 -0.657904,-2.49229 -0.657903,-0.82045 -1.826649,-0.82045 -1.184226,0 -1.842129,0.82045 -0.650164,0.8127 -0.650164,2.49229 0,1.62541 0.657904,2.46907 0.657903,0.83593 1.834389,0.83593 1.161006,0 1.818909,-0.82819 0.665644,-0.83592 0.665644,-2.47681 z" />
            <path
               inkscape:connector-curvature="0"
               id="path1121"
               style="fill:#ffffff;stroke-width:0.594433"
               d="m 72.394577,179.50511 h -0.0774 q -0.325081,-0.0774 -0.634683,-0.10836 -0.301861,-0.0387 -0.719823,-0.0387 -0.673384,0 -1.300327,0.30186 -0.626943,0.29412 -1.207446,0.76626 v 6.13785 H 66.99977 v -8.64562 h 1.455127 v 1.2771 q 0.866884,-0.6966 1.524788,-0.98298 0.665643,-0.29412 1.354507,-0.29412 0.379261,0 0.549542,0.0232 0.170281,0.0155 0.510843,0.0697 z" />
            <path
               inkscape:connector-curvature="0"
               id="path1123"
               style="fill:#ffffff;stroke-width:0.594433"
               d="m 80.173315,186.02222 q -0.727563,0.3483 -1.385467,0.5418 -0.650163,0.1935 -1.385467,0.1935 -0.936544,0 -1.718288,-0.2709 -0.781744,-0.27864 -1.339027,-0.83592 -0.565023,-0.55729 -0.874624,-1.40869 -0.309602,-0.8514 -0.309602,-1.98919 0,-2.12077 1.161006,-3.32822 1.168746,-1.20744 3.080535,-1.20744 0.743044,0 1.455128,0.20898 0.719823,0.20898 1.315806,0.51084 v 1.61767 h -0.0774 q -0.665643,-0.51858 -1.377727,-0.79722 -0.704344,-0.27865 -1.377727,-0.27865 -1.238406,0 -1.95823,0.83593 -0.712083,0.82818 -0.712083,2.43811 0,1.56349 0.696603,2.40715 0.704344,0.83593 1.97371,0.83593 0.441182,0 0.897845,-0.1161 0.456662,-0.1161 0.820444,-0.30187 0.317341,-0.16254 0.595983,-0.34056 0.278641,-0.18576 0.441182,-0.31734 h 0.0774 z" />
            <path
               inkscape:connector-curvature="0"
               id="path1125"
               style="fill:#ffffff;stroke-width:0.594433"
               d="m 89.283341,182.39214 h -6.370052 q 0,0.79722 0.239941,1.39321 0.239941,0.58824 0.657903,0.9675 0.402482,0.37152 0.952025,0.55729 0.557283,0.18576 1.222926,0.18576 0.882365,0 1.772469,-0.34831 0.897845,-0.35604 1.277107,-0.6966 h 0.0774 v 1.58671 q -0.735304,0.3096 -1.501568,0.51858 -0.766263,0.20898 -1.609928,0.20898 -2.151731,0 -3.359177,-1.161 -1.207446,-1.16875 -1.207446,-3.31274 0,-2.12077 1.153266,-3.36692 1.161006,-1.24614 3.049575,-1.24614 1.749249,0 2.693534,1.02168 0.952025,1.02169 0.952025,2.90252 z m -1.416427,-1.11456 q -0.0077,-1.14553 -0.580503,-1.77247 -0.565023,-0.62695 -1.726029,-0.62695 -1.168746,0 -1.865349,0.68887 -0.688864,0.68886 -0.781744,1.71055 z" />
            <path
               inkscape:connector-curvature="0"
               id="path1127"
               style="fill:#ffffff;stroke-width:0.594433"
               d="m 93.865445,186.56402 h -1.84987 v -2.20591 h 1.84987 z" />
          </g>
          <path
             inkscape:connector-curvature="0"
             d="M 0,0 H 209.99649 V 33.320961 H 0 Z"
             style="fill:#ffac2d;fill-opacity:1;stroke:none;stroke-width:0.59898;stroke-linecap:round;stroke-linejoin:round;stroke-opacity:1;paint-order:markers stroke fill"
             id="rect893" />
          <g
             id="g885"
             transform="translate(2.2781084,-7.1300632)">
            <g
               style="font-size:18.8415px;line-height:1.25;font-family:sans-serif;fill:#ffffff;fill-opacity:1;stroke-width:0.706556"
               id="text2958"
               aria-label="what is it ?">
              <path
                 inkscape:connector-curvature="0"
                 id="path1131"
                 style="font-weight:bold;stroke-width:0.706556"
                 d="m 72.041939,18.828604 -3.201583,10.331545 h -3.514381 l -2.106789,-6.964363 -2.069989,6.964363 H 57.588816 L 54.414833,18.828604 h 3.477582 l 1.76639,7.120762 2.207988,-7.120762 h 2.934785 l 2.097589,7.120762 1.73879,-7.120762 z" />
              <path
                 inkscape:connector-curvature="0"
                 id="path1133"
                 style="font-weight:bold;stroke-width:0.706556"
                 d="m 84.415873,29.160149 h -3.330382 v -5.124373 q 0,-0.625597 -0.0644,-1.241993 -0.0644,-0.625597 -0.220799,-0.919995 -0.183999,-0.340399 -0.542797,-0.496798 -0.349598,-0.156399 -0.984395,-0.156399 -0.450797,0 -0.919995,0.147199 -0.459997,0.147199 -1.002794,0.469198 v 7.323161 H 74.038328 V 14.845025 h 3.311983 v 5.124373 q 0.883195,-0.689997 1.692791,-1.057995 0.818795,-0.367998 1.81239,-0.367998 1.674391,0 2.612786,0.975195 0.947595,0.975195 0.947595,2.916385 z" />
              <path
                 inkscape:connector-curvature="0"
                 id="path1135"
                 style="font-weight:bold;stroke-width:0.706556"
                 d="m 93.726223,26.464563 v -2.152788 q -0.671596,0.0552 -1.453592,0.156399 -0.781996,0.092 -1.186793,0.220799 -0.496798,0.156399 -0.763596,0.459997 -0.257599,0.294398 -0.257599,0.781996 0,0.321998 0.0552,0.524397 0.0552,0.202399 0.275998,0.386398 0.211599,0.183999 0.505998,0.275999 0.294398,0.0828 0.919995,0.0828 0.496797,0 1.002794,-0.202399 0.515198,-0.202399 0.901595,-0.533598 z m 0,1.600791 q -0.266798,0.202399 -0.662396,0.487598 -0.395598,0.285198 -0.745196,0.450797 -0.487597,0.220799 -1.011995,0.321999 -0.524397,0.110399 -1.149993,0.110399 -1.471993,0 -2.465587,-0.910795 -0.993595,-0.910795 -0.993595,-2.327588 0,-1.131594 0.505997,-1.84919 0.505998,-0.717596 1.435193,-1.131594 0.919995,-0.413997 2.281587,-0.588796 1.361593,-0.1748 2.824385,-0.257599 v -0.0552 q 0,-0.855595 -0.699196,-1.177594 -0.699196,-0.331198 -2.060789,-0.331198 -0.818796,0 -1.747991,0.294399 -0.929195,0.285198 -1.333992,0.441597 h -0.303599 v -2.493186 q 0.524397,-0.138 1.701991,-0.321999 1.186794,-0.193199 2.373587,-0.193199 2.824385,0 4.075579,0.873996 1.260393,0.864795 1.260393,2.723185 v 7.028763 h -3.284383 z" />
              <path
                 inkscape:connector-curvature="0"
                 id="path1137"
                 style="font-weight:bold;stroke-width:0.706556"
                 d="m 106.66135,29.068149 q -0.53359,0.137999 -1.13159,0.211599 -0.598,0.0828 -1.46279,0.0828 -1.93199,0 -2.87959,-0.781996 -0.93839,-0.781996 -0.93839,-2.677186 v -4.829974 h -1.361594 v -2.244788 h 1.361594 V 15.87542 h 3.31198 v 2.953184 h 3.10038 v 2.244788 h -3.10038 v 3.66158 q 0,0.542797 0.009,0.947595 0.009,0.404798 0.1472,0.726796 0.1288,0.321999 0.4508,0.515198 0.3312,0.183999 0.95679,0.183999 0.2576,0 0.6716,-0.1104 0.4232,-0.110399 0.5888,-0.202399 h 0.27599 z" />
              <path
                 inkscape:connector-curvature="0"
                 id="path1139"
                 style="fill:#ffffff;fill-opacity:1;stroke-width:0.706556"
                 d="m 117.2505,17.163413 h -1.95039 v -1.793991 h 1.95039 z m -0.1104,11.996736 h -1.72959 V 18.883804 h 1.72959 z" />
              <path
                 inkscape:connector-curvature="0"
                 id="path1141"
                 style="fill:#ffffff;fill-opacity:1;stroke-width:0.706556"
                 d="m 127.92244,26.197764 q 0,1.407593 -1.16839,2.309188 -1.1592,0.901595 -3.17399,0.901595 -1.14079,0 -2.09759,-0.266798 -0.94759,-0.275999 -1.59159,-0.597997 v -1.94119 h 0.092 q 0.8188,0.616397 1.82159,0.984395 1.0028,0.358798 1.92279,0.358798 1.1408,0 1.78479,-0.367998 0.644,-0.367998 0.644,-1.159194 0,-0.607196 -0.3496,-0.919995 -0.3496,-0.312798 -1.34319,-0.533597 -0.368,-0.0828 -0.966,-0.193199 -0.58879,-0.110399 -1.07639,-0.239199 -1.35239,-0.358798 -1.92279,-1.048794 -0.5612,-0.699196 -0.5612,-1.711191 0,-0.634797 0.2576,-1.195994 0.2668,-0.561197 0.8004,-1.002794 0.51519,-0.432398 1.30639,-0.680797 0.80039,-0.257598 1.78479,-0.257598 0.91999,0 1.85839,0.229999 0.94759,0.220798 1.57319,0.542797 v 1.84919 h -0.092 q -0.66239,-0.487598 -1.60999,-0.818796 -0.94759,-0.340398 -1.85839,-0.340398 -0.94759,0 -1.60079,0.367998 -0.6532,0.358798 -0.6532,1.076394 0,0.634797 0.3956,0.956795 0.3864,0.321998 1.25119,0.524397 0.4784,0.1104 1.0672,0.220799 0.59799,0.1104 0.99359,0.202399 1.2052,0.275999 1.85839,0.947595 0.6532,0.680796 0.6532,1.80319 z" />
              <path
                 inkscape:connector-curvature="0"
                 id="path1143"
                 style="fill:#ffffff;fill-opacity:1;stroke-width:0.706556"
                 d="m 138.88878,17.163413 h -1.95039 v -1.793991 h 1.95039 z m -0.11039,11.996736 h -1.7296 V 18.883804 h 1.7296 z" />
              <path
                 inkscape:connector-curvature="0"
                 id="path1145"
                 style="fill:#ffffff;fill-opacity:1;stroke-width:0.706556"
                 d="m 147.55514,29.068149 q -0.4876,0.128799 -1.06719,0.211599 -0.5704,0.0828 -1.0212,0.0828 -1.57319,0 -2.39199,-0.846396 -0.81879,-0.846395 -0.81879,-2.713985 v -5.464771 h -1.1684 v -1.453592 h 1.1684 v -2.953185 h 1.72959 v 2.953185 h 3.56958 v 1.453592 h -3.56958 v 4.682775 q 0,0.809595 0.0368,1.269593 0.0368,0.450798 0.2576,0.846395 0.2024,0.367998 0.55199,0.542798 0.3588,0.165599 1.0856,0.165599 0.4232,0 0.88319,-0.1196 0.46,-0.128799 0.6624,-0.211599 h 0.092 z" />
              <path
                 inkscape:connector-curvature="0"
                 id="path1147"
                 style="fill:#ffffff;fill-opacity:1;stroke-width:0.706556"
                 d="m 163.82065,18.681405 q 0,0.901595 -0.322,1.609991 -0.322,0.699196 -0.8464,1.241993 -0.51519,0.524398 -1.18679,0.984395 -0.6716,0.459998 -1.42599,0.892395 v 2.069989 h -1.64679 v -2.805985 q 0.59799,-0.340398 1.28799,-0.745196 0.69919,-0.404798 1.14079,-0.818795 0.5336,-0.478398 0.828,-0.984395 0.2944,-0.515197 0.2944,-1.306393 0,-1.039595 -0.7084,-1.545592 -0.6992,-0.515197 -1.81239,-0.515197 -0.9936,0 -1.88599,0.312798 -0.8832,0.312799 -1.39839,0.634797 h -0.092 v -1.87679 q 0.64399,-0.248399 1.62839,-0.441598 0.99359,-0.202399 1.87679,-0.202399 1.97799,0 3.11878,0.965995 1.15,0.956795 1.15,2.529987 z m -3.63398,10.478744 h -1.87679 v -1.94119 h 1.87679 z" />
            </g>
          </g>
          <path
             id="path2505"
             style="fill:#ffffff;fill-opacity:1;stroke-width:0.952943;stroke-linecap:round;stroke-linejoin:round;paint-order:markers stroke fill"
             d="M 45.164641,24.572536 A 21.43125,21.43125 0 0 1 23.733391,46.003785 21.43125,21.43125 0 0 1 2.302142,24.572536 21.43125,21.43125 0 0 1 23.733391,3.1412864 21.43125,21.43125 0 0 1 45.164641,24.572536"
             inkscape:connector-curvature="0" />
          <g
             aria-label="1"
             transform="translate(-5.1061908,-4.7962136)"
             id="text2509"
             style="font-size:36.8392px;line-height:1.25;font-family:sans-serif;fill:#ffa13a;fill-opacity:1;stroke-width:1.38147">
            <g
               style="font-size:32.5154px;line-height:1.25;font-family:sans-serif;fill:#ffa13a;fill-opacity:1;stroke-width:1.68446"
               id="text2940"
               aria-label="1">
              <path
                 inkscape:connector-curvature="0"
                 id="path1150"
                 style="fill:#ffa13a;fill-opacity:1;stroke-width:1.68446"
                 d="M 35.491902,41.435013 H 22.695314 V 39.02176 h 4.921765 V 23.176854 h -4.921765 v -2.159226 q 1.00023,0 2.143349,-0.158767 1.14312,-0.174643 1.730556,-0.492176 0.730327,-0.396917 1.14312,-1.00023 0.42867,-0.619189 0.492176,-1.651172 h 2.460883 V 39.02176 h 4.826504 z" />
            </g>
          </g>
        </g>
      </g>
    </g>
  </g>
</svg>
