<?xml version="1.0" encoding="UTF-8" standalone="no"?>
<svg
   xmlns:dc="http://purl.org/dc/elements/1.1/"
   xmlns:cc="http://creativecommons.org/ns#"
   xmlns:rdf="http://www.w3.org/1999/02/22-rdf-syntax-ns#"
   xmlns:svg="http://www.w3.org/2000/svg"
   xmlns="http://www.w3.org/2000/svg"
   xmlns:sodipodi="http://sodipodi.sourceforge.net/DTD/sodipodi-0.dtd"
   xmlns:inkscape="http://www.inkscape.org/namespaces/inkscape"
   width="210mm"
   height="240mm"
   viewBox="0 0 210 240"
   version="1.1"
   id="svg8"
   inkscape:version="1.0beta1 (08a003b, 2019-11-10)"
   sodipodi:docname="faq06.svg">
  <defs
     id="defs2">
    <rect
       id="rect1027"
       height="38.09019"
       width="161.98823"
       y="78.384765"
       x="12.01013" />
    <inkscape:path-effect
       effect="simplify"
       id="path-effect2548"
       is_visible="true"
       steps="1"
       threshold="0.00108696"
       smooth_angles="360"
       helper_size="0"
       simplify_individual_paths="false"
       simplify_just_coalesce="false" />
  </defs>
  <sodipodi:namedview
     id="base"
     pagecolor="#ffffff"
     bordercolor="#666666"
     borderopacity="1.0"
     inkscape:pageopacity="0"
     inkscape:pageshadow="2"
     inkscape:zoom="0.4580599"
     inkscape:cx="79.110202"
     inkscape:cy="496.53275"
     inkscape:document-units="mm"
     inkscape:current-layer="g6610"
     inkscape:document-rotation="0"
     showgrid="false"
     inkscape:pagecheckerboard="false"
     showborder="true"
     inkscape:showpageshadow="true"
     borderlayer="false"
     inkscape:window-width="1920"
     inkscape:window-height="1003"
     inkscape:window-x="0"
     inkscape:window-y="0"
     inkscape:window-maximized="1" />
  <metadata
     id="metadata5">
    <rdf:RDF>
      <cc:Work
         rdf:about="">
        <dc:format>image/svg+xml</dc:format>
        <dc:type
           rdf:resource="http://purl.org/dc/dcmitype/StillImage" />
        <dc:title></dc:title>
      </cc:Work>
    </rdf:RDF>
  </metadata>
  <g
     inkscape:label="Layer 1"
     inkscape:groupmode="layer"
     id="layer1">
    <g
       id="g2514"
       transform="translate(-4.1010419,-4.6302088)"
       style="fill:#ffe600;fill-opacity:1" />
    <g
       id="g2574">
      <g
         id="g6610">
        <g
           id="g1919">
          <path
             id="rect2501"
             style="fill:#293234;fill-opacity:0.94902;stroke-width:0.598209;stroke-linecap:round;stroke-linejoin:round;paint-order:markers stroke fill"
             d="M 0,0 H 209.99806 V 239.99739 H 0 Z"
             inkscape:connector-curvature="0" />
          <path
             inkscape:connector-curvature="0"
             d="M 0,0 H 209.99649 V 33.320961 H 0 Z"
             style="fill:#ffac2d;fill-opacity:1;stroke:none;stroke-width:0.59898;stroke-linecap:round;stroke-linejoin:round;stroke-opacity:1;paint-order:markers stroke fill"
             id="rect893" />
          <path
             id="path2505"
             style="fill:#ffffff;fill-opacity:1;stroke-width:0.952943;stroke-linecap:round;stroke-linejoin:round;paint-order:markers stroke fill"
             d="M 45.164641,24.572536 A 21.43125,21.43125 0 0 1 23.733391,46.003785 21.43125,21.43125 0 0 1 2.302142,24.572536 21.43125,21.43125 0 0 1 23.733391,3.1412864 21.43125,21.43125 0 0 1 45.164641,24.572536"
             inkscape:connector-curvature="0" />
          <g
             style="font-size:31.3718px;line-height:1.25;font-family:sans-serif;fill:#ffac2d;fill-opacity:1;stroke-width:1.17644"
             id="text1858"
             aria-label="6">
            <path
               inkscape:connector-curvature="0"
               id="path1921"
               style="fill:#ffac2d;fill-opacity:1;stroke-width:1.17644"
               d="m 31.806115,28.555282 q 0,3.477245 -2.297739,5.683075 -2.282421,2.190511 -5.606483,2.190511 -1.685009,0 -3.063653,-0.52082 -1.378643,-0.520821 -2.435603,-1.547145 -1.317371,-1.271416 -2.037329,-3.370017 -0.70464,-2.098602 -0.70464,-5.055027 0,-3.033015 0.643367,-5.376709 0.658685,-2.343694 2.083283,-4.166568 1.348007,-1.730963 3.477246,-2.696014 2.129238,-0.980368 4.963117,-0.980368 0.903777,0 1.516507,0.07659 0.612731,0.07659 1.24078,0.275729 v 2.925788 h -0.153183 q -0.428911,-0.229774 -1.302052,-0.428912 -0.857823,-0.214455 -1.7616,-0.214455 -3.293427,0 -5.254164,2.067965 -1.960737,2.052647 -2.282421,5.560529 1.286734,-0.781231 2.527513,-1.179506 1.256098,-0.413593 2.895152,-0.413593 1.455234,0 2.558149,0.275728 1.118233,0.260411 2.282421,1.072279 1.348007,0.934414 2.022011,2.359012 0.689321,1.424598 0.689321,3.461928 z m -3.109607,0.122546 q 0,-1.424598 -0.428911,-2.359012 -0.413593,-0.934414 -1.378643,-1.623736 -0.70464,-0.490184 -1.562463,-0.643367 -0.857823,-0.153182 -1.792237,-0.153182 -1.302052,0 -2.420285,0.306365 -1.118233,0.306365 -2.297739,0.949732 -0.03064,0.337002 -0.04595,0.658685 -0.01532,0.306366 -0.01532,0.781232 0,2.420285 0.490184,3.829565 0.505503,1.393962 1.378644,2.20583 0.70464,0.674003 1.516507,0.995687 0.827187,0.306365 1.792237,0.306365 2.221148,0 3.492564,-1.348007 1.271415,-1.363325 1.271415,-3.906157 z" />
          </g>
          <g
             style="font-size:19.3413px;line-height:1.25;font-family:sans-serif;fill:#ffffff;stroke-width:0.725297"
             id="text1862"
             aria-label="How to start?">
            <path
               inkscape:connector-curvature="0"
               id="path1924"
               style="font-weight:bold"
               d="m 68.87905,23.686811 h -3.626494 v -6.195259 h -5.354744 v 6.195259 H 56.271318 V 9.6247049 h 3.626494 v 5.1469761 h 5.354744 V 9.6247049 h 3.626494 z" />
            <path
               inkscape:connector-curvature="0"
               id="path1926"
               style="font-weight:bold"
               d="m 83.130035,18.388731 q 0,2.615986 -1.529927,4.127025 -1.520482,1.501595 -4.278129,1.501595 -2.757646,0 -4.287573,-1.501595 -1.520483,-1.511039 -1.520483,-4.127025 0,-2.634874 1.529927,-4.136469 1.539371,-1.501595 4.278129,-1.501595 2.776534,0 4.287573,1.511039 1.520483,1.511039 1.520483,4.127025 z m -4.183689,2.57821 q 0.33054,-0.406091 0.491088,-0.972731 0.169992,-0.576084 0.169992,-1.586591 0,-0.934955 -0.169992,-1.567703 -0.169992,-0.632748 -0.4722,-1.010507 -0.302208,-0.387204 -0.727187,-0.547752 -0.42498,-0.160548 -0.916068,-0.160548 -0.491087,0 -0.878291,0.132216 -0.37776,0.132216 -0.727188,0.528864 -0.311651,0.368315 -0.500531,1.010507 -0.179436,0.642192 -0.179436,1.614923 0,0.868847 0.160548,1.511039 0.160548,0.632748 0.472199,1.019951 0.302208,0.368316 0.717744,0.538308 0.42498,0.169992 0.963287,0.169992 0.462756,0 0.878292,-0.151104 0.424979,-0.160548 0.717743,-0.528864 z" />
            <path
               inkscape:connector-curvature="0"
               id="path1928"
               style="font-weight:bold"
               d="m 102.49967,13.081207 -3.286512,10.605604 h -3.607606 l -2.162675,-7.149103 -2.124898,7.149103 H 87.663153 L 84.404975,13.081207 h 3.56983 l 1.813247,7.309651 2.266558,-7.309651 h 3.012634 l 2.153231,7.309651 1.784915,-7.309651 z" />
            <path
               inkscape:connector-curvature="0"
               id="path1930"
               style="fill:#ffffff;stroke-width:0.725297"
               d="m 116.96787,23.592372 q -0.50054,0.132215 -1.09551,0.217211 -0.58553,0.085 -1.04828,0.085 -1.61492,0 -2.45544,-0.868847 -0.84052,-0.868848 -0.84052,-2.785978 v -5.609732 h -1.19938 v -1.492151 h 1.19938 v -3.031522 h 1.77548 v 3.031522 h 3.66427 v 1.492151 h -3.66427 v 4.806992 q 0,0.831072 0.0378,1.303271 0.0378,0.462756 0.26443,0.868848 0.20777,0.37776 0.56664,0.557195 0.36832,0.169992 1.11439,0.169992 0.43443,0 0.90663,-0.122772 0.4722,-0.132215 0.67997,-0.217211 h 0.0944 z" />
            <path
               inkscape:connector-curvature="0"
               id="path1932"
               style="fill:#ffffff;stroke-width:0.725297"
               d="m 128.11178,18.417063 q 0,2.57821 -1.32216,4.070361 -1.32216,1.492151 -3.5415,1.492151 -2.23823,0 -3.56039,-1.492151 -1.31271,-1.492151 -1.31271,-4.070361 0,-2.57821 1.31271,-4.070361 1.32216,-1.501595 3.56039,-1.501595 2.21934,0 3.5415,1.501595 1.32216,1.492151 1.32216,4.070361 z m -1.83214,0 q 0,-2.049347 -0.80274,-3.040966 -0.80274,-1.001063 -2.22878,-1.001063 -1.44493,0 -2.24767,1.001063 -0.7933,0.991619 -0.7933,3.040966 0,1.983239 0.80274,3.012634 0.80274,1.019951 2.23823,1.019951 1.4166,0 2.21934,-1.010507 0.81218,-1.019951 0.81218,-3.022078 z" />
            <path
               inkscape:connector-curvature="0"
               id="path1934"
               style="fill:#ffffff;stroke-width:0.725297"
               d="m 145.2054,20.645845 q 0,1.444932 -1.19938,2.370443 -1.18995,0.925511 -3.25818,0.925511 -1.17106,0 -2.15323,-0.273876 -0.97273,-0.283319 -1.63381,-0.613859 v -1.992683 h 0.0944 q 0.84051,0.632748 1.86991,1.010508 1.02939,0.368315 1.97379,0.368315 1.17106,0 1.83214,-0.377759 0.66108,-0.37776 0.66108,-1.189944 0,-0.623303 -0.35887,-0.944399 -0.35888,-0.321096 -1.37883,-0.547752 -0.37776,-0.085 -0.99162,-0.198324 -0.60441,-0.113327 -1.10494,-0.245543 -1.38827,-0.368316 -1.9738,-1.076616 -0.57608,-0.717743 -0.57608,-1.756582 0,-0.651636 0.26443,-1.22772 0.27388,-0.576083 0.82163,-1.029395 0.52886,-0.443868 1.34104,-0.698855 0.82163,-0.264432 1.83214,-0.264432 0.9444,0 1.90769,0.2361 0.97273,0.226655 1.61492,0.557195 v 1.898243 h -0.0944 q -0.67997,-0.500532 -1.6527,-0.840516 -0.97273,-0.349427 -1.90769,-0.349427 -0.97273,0 -1.64325,0.377759 -0.67053,0.368316 -0.67053,1.104948 0,0.651635 0.4061,0.982175 0.39664,0.33054 1.28438,0.538308 0.49109,0.113328 1.0955,0.226656 0.61386,0.113327 1.01995,0.207767 1.23717,0.28332 1.90769,0.972732 0.67052,0.698855 0.67052,1.851022 z" />
            <path
               inkscape:connector-curvature="0"
               id="path1936"
               style="fill:#ffffff;stroke-width:0.725297"
               d="m 153.2328,23.592372 q -0.50053,0.132215 -1.0955,0.217211 -0.58553,0.085 -1.04828,0.085 -1.61493,0 -2.45544,-0.868847 -0.84052,-0.868848 -0.84052,-2.785978 v -5.609732 h -1.19938 v -1.492151 h 1.19938 v -3.031522 h 1.77547 v 3.031522 h 3.66427 v 1.492151 h -3.66427 v 4.806992 q 0,0.831072 0.0378,1.303271 0.0378,0.462756 0.26443,0.868848 0.20777,0.37776 0.56664,0.557195 0.36832,0.169992 1.11439,0.169992 0.43443,0 0.90663,-0.122772 0.4722,-0.132215 0.67996,-0.217211 h 0.0944 z" />
            <path
               inkscape:connector-curvature="0"
               id="path1938"
               style="fill:#ffffff;stroke-width:0.725297"
               d="m 163.58342,23.686811 h -1.76603 v -1.123835 q -0.2361,0.160548 -0.64219,0.453312 -0.39665,0.28332 -0.77441,0.453312 -0.44387,0.217211 -1.01995,0.358871 -0.57608,0.151104 -1.35049,0.151104 -1.42604,0 -2.41766,-0.944399 -0.99162,-0.944399 -0.99162,-2.408219 0,-1.199387 0.50997,-1.936018 0.51942,-0.746076 1.47327,-1.171055 0.96328,-0.42498 2.31378,-0.576084 1.35049,-0.151104 2.8993,-0.226656 v -0.273876 q 0,-0.604415 -0.21721,-1.001063 -0.20777,-0.396648 -0.60442,-0.623304 -0.37776,-0.217211 -0.90662,-0.292763 -0.52886,-0.07555 -1.10495,-0.07555 -0.69885,0 -1.55826,0.18888 -0.8594,0.179435 -1.77547,0.528863 h -0.0944 v -1.803803 q 0.51942,-0.14166 1.5016,-0.311651 0.98217,-0.169992 1.93602,-0.169992 1.11439,0 1.93602,0.18888 0.83107,0.179435 1.43548,0.623303 0.59497,0.434424 0.90663,1.123835 0.31165,0.689412 0.31165,1.709363 z m -1.76603,-2.597098 v -2.937082 q -0.81218,0.04722 -1.91713,0.14166 -1.0955,0.09444 -1.73769,0.273876 -0.76497,0.217212 -1.23717,0.679967 -0.4722,0.453312 -0.4722,1.256052 0,0.906623 0.54775,1.369379 0.54776,0.453311 1.67159,0.453311 0.93496,0 1.70936,-0.358871 0.77441,-0.368316 1.43549,-0.878292 z" />
            <path
               inkscape:connector-curvature="0"
               id="path1940"
               style="fill:#ffffff;stroke-width:0.725297"
               d="m 173.6035,15.073889 h -0.0944 q -0.39665,-0.09444 -0.77441,-0.132216 -0.36832,-0.04722 -0.87829,-0.04722 -0.82163,0 -1.58659,0.368316 -0.76497,0.358872 -1.47327,0.934955 v 7.489087 h -1.77547 v -10.54894 h 1.77547 v 1.558258 q 1.05773,-0.849959 1.86047,-1.199387 0.81219,-0.358871 1.6527,-0.358871 0.46276,0 0.67052,0.02833 0.20777,0.01889 0.62331,0.085 z" />
            <path
               inkscape:connector-curvature="0"
               id="path1942"
               style="fill:#ffffff;stroke-width:0.725297"
               d="m 180.77148,23.592372 q -0.50053,0.132215 -1.0955,0.217211 -0.58553,0.085 -1.04828,0.085 -1.61493,0 -2.45544,-0.868847 -0.84052,-0.868848 -0.84052,-2.785978 v -5.609732 h -1.19938 v -1.492151 h 1.19938 v -3.031522 h 1.77547 v 3.031522 h 3.66427 v 1.492151 h -3.66427 v 4.806992 q 0,0.831072 0.0378,1.303271 0.0378,0.462756 0.26443,0.868848 0.20777,0.37776 0.56664,0.557195 0.36832,0.169992 1.11439,0.169992 0.43443,0 0.90663,-0.122772 0.4722,-0.132215 0.67996,-0.217211 h 0.0944 z" />
            <path
               inkscape:connector-curvature="0"
               id="path1944"
               style="fill:#ffffff;stroke-width:0.725297"
               d="m 190.6688,12.930103 q 0,0.925511 -0.33054,1.652699 -0.33054,0.717743 -0.86885,1.274939 -0.52887,0.538307 -1.21828,1.010507 -0.68941,0.4722 -1.46382,0.916067 v 2.124899 h -1.69047 v -2.880418 q 0.61386,-0.349428 1.32216,-0.764964 0.71774,-0.415535 1.17105,-0.840515 0.54776,-0.491088 0.84996,-1.010507 0.30221,-0.528864 0.30221,-1.341047 0,-1.067172 -0.72719,-1.586591 -0.71774,-0.528864 -1.86046,-0.528864 -1.01995,0 -1.93602,0.321096 -0.90663,0.321096 -1.43549,0.651635 h -0.0944 v -1.926574 q 0.66108,-0.2549882 1.67159,-0.4533121 1.01995,-0.2077679 1.92657,-0.2077679 2.03046,0 3.20152,0.991619 1.1805,0.982176 1.1805,2.597099 z m -3.73038,10.756708 h -1.92658 v -1.992682 h 1.92658 z" />
          </g>
          <g
             style="font-size:15.3188px;line-height:1.25;font-family:sans-serif;fill:#ffffff;stroke-width:0.574453"
             id="text1868"
             aria-label="0₹ to start!
We offer…">
            <path
               inkscape:connector-curvature="0"
               id="path1947"
               style="font-weight:bold;stroke-width:0.574453"
               d="m 25.675071,60.59657 q 0,1.406218 -0.254316,2.52072 -0.254316,1.107023 -0.792868,1.817612 -0.553511,0.725549 -1.421177,1.099543 -0.867667,0.366514 -2.139247,0.366514 -1.24914,0 -2.131766,-0.373994 -0.882627,-0.373994 -1.428658,-1.107023 -0.553511,-0.733028 -0.800348,-1.817611 -0.246836,-1.092063 -0.246836,-2.498281 0,-1.451097 0.254316,-2.520721 0.254316,-1.069623 0.807828,-1.810131 0.553511,-0.733029 1.436137,-1.099543 0.882626,-0.366514 2.109327,-0.366514 1.27906,0 2.146727,0.381474 0.867666,0.373994 1.421177,1.121982 0.546032,0.733029 0.792868,1.810132 0.246836,1.069623 0.246836,2.475841 z m -2.894715,0 q 0,-2.019568 -0.396433,-2.872275 -0.396434,-0.860187 -1.31646,-0.860187 -0.920025,0 -1.316459,0.860187 -0.396434,0.852707 -0.396434,2.887235 0,1.982169 0.403914,2.857315 0.403913,0.875146 1.308979,0.875146 0.905066,0 1.30898,-0.875146 0.403913,-0.875146 0.403913,-2.872275 z" />
            <path
               inkscape:connector-curvature="0"
               id="path1949"
               style="font-weight:bold;stroke-width:0.574453"
               d="m 27.844237,59.399789 0.59839,-1.630615 h 3.22383 q -0.216917,-0.501152 -0.68067,-0.800347 -0.456273,-0.306675 -1.099542,-0.306675 h -2.042008 l 0.59839,-1.630615 h 7.951116 l -0.598391,1.630615 h -1.91485 q 0.112198,0.0748 0.216917,0.209436 0.104718,0.134638 0.186997,0.291716 0.08228,0.157077 0.134638,0.321635 0.05236,0.164557 0.06732,0.284235 h 1.907371 l -0.598391,1.630615 h -1.443617 q -0.142118,0.463752 -0.433834,0.867666 -0.284235,0.396434 -0.703109,0.718069 -0.411393,0.314155 -0.934985,0.546031 -0.523592,0.224397 -1.129462,0.344075 l 4.659967,4.293453 h -3.283669 l -4.360772,-4.084016 v -1.585736 h 1.481017 q 0.366515,0 0.67319,-0.08976 0.314155,-0.09724 0.553511,-0.246836 0.246836,-0.157078 0.418873,-0.351555 0.179518,-0.201957 0.276756,-0.411393 z" />
            <path
               inkscape:connector-curvature="0"
               id="path1951"
               style="fill:#ffffff;stroke-width:0.574453"
               d="m 48.511152,66.094284 q -0.396434,0.104718 -0.867667,0.172037 -0.463752,0.06732 -0.830267,0.06732 -1.279059,0 -1.944769,-0.688149 -0.66571,-0.688149 -0.66571,-2.206566 v -4.44305 h -0.949945 v -1.181821 h 0.949945 v -2.401043 h 1.406218 v 2.401043 h 2.902195 v 1.181821 h -2.902195 v 3.80726 q 0,0.65823 0.02992,1.032224 0.02992,0.366514 0.209437,0.688149 0.164557,0.299196 0.448793,0.441314 0.291715,0.134637 0.882626,0.134637 0.344074,0 0.718068,-0.09724 0.373995,-0.104718 0.538552,-0.172037 h 0.0748 z" />
            <path
               inkscape:connector-curvature="0"
               id="path1953"
               style="fill:#ffffff;stroke-width:0.574453"
               d="m 57.337413,61.995308 q 0,2.042008 -1.047183,3.22383 -1.047184,1.181821 -2.804956,1.181821 -1.772733,0 -2.819916,-1.181821 -1.039704,-1.181822 -1.039704,-3.22383 0,-2.042008 1.039704,-3.223829 1.047183,-1.189302 2.819916,-1.189302 1.757772,0 2.804956,1.189302 1.047183,1.181821 1.047183,3.223829 z m -1.451097,0 q 0,-1.623135 -0.63579,-2.408522 -0.63579,-0.792868 -1.765252,-0.792868 -1.144422,0 -1.780212,0.792868 -0.628311,0.785387 -0.628311,2.408522 0,1.570775 0.63579,2.386083 0.63579,0.807827 1.772733,0.807827 1.121982,0 1.757772,-0.800347 0.64327,-0.807828 0.64327,-2.393563 z" />
            <path
               inkscape:connector-curvature="0"
               id="path1955"
               style="fill:#ffffff;stroke-width:0.574453"
               d="m 70.876002,63.76056 q 0,1.144422 -0.949945,1.877451 -0.942465,0.733028 -2.58056,0.733028 -0.927505,0 -1.705413,-0.216916 -0.770428,-0.224397 -1.29402,-0.486193 v -1.578255 h 0.0748 q 0.66571,0.501152 1.481017,0.800348 0.815307,0.291715 1.563296,0.291715 0.927505,0 1.451097,-0.299195 0.523592,-0.299196 0.523592,-0.942465 0,-0.493673 -0.284236,-0.747989 -0.284236,-0.254316 -1.092063,-0.433833 -0.299195,-0.06732 -0.785388,-0.157077 -0.478712,-0.08976 -0.875146,-0.194477 -1.099543,-0.291716 -1.563295,-0.852707 -0.456273,-0.568471 -0.456273,-1.391258 0,-0.516112 0.209437,-0.972385 0.216916,-0.456273 0.650749,-0.815307 0.418874,-0.351555 1.062144,-0.553512 0.650749,-0.209436 1.451097,-0.209436 0.747988,0 1.510936,0.186997 0.770428,0.179517 1.27906,0.441313 v 1.503456 h -0.0748 q -0.538551,-0.396433 -1.308979,-0.665709 -0.770428,-0.276756 -1.510936,-0.276756 -0.770428,0 -1.3015,0.299195 -0.531072,0.291716 -0.531072,0.875147 0,0.516112 0.321635,0.777907 0.314155,0.261796 1.017264,0.426354 0.388954,0.08976 0.867667,0.179517 0.486192,0.08976 0.807827,0.164557 0.979865,0.224397 1.510936,0.770428 0.531072,0.553512 0.531072,1.466057 z" />
            <path
               inkscape:connector-curvature="0"
               id="path1957"
               style="fill:#ffffff;stroke-width:0.574453"
               d="m 77.233902,66.094284 q -0.396434,0.104718 -0.867667,0.172037 -0.463753,0.06732 -0.830267,0.06732 -1.27906,0 -1.944769,-0.688149 -0.66571,-0.688149 -0.66571,-2.206566 v -4.44305 h -0.949945 v -1.181821 h 0.949945 v -2.401043 h 1.406218 v 2.401043 h 2.902195 v 1.181821 h -2.902195 v 3.80726 q 0,0.65823 0.02992,1.032224 0.02992,0.366514 0.209436,0.688149 0.164558,0.299196 0.448793,0.441314 0.291716,0.134637 0.882626,0.134637 0.344075,0 0.718069,-0.09724 0.373994,-0.104718 0.538552,-0.172037 h 0.0748 z" />
            <path
               inkscape:connector-curvature="0"
               id="path1959"
               style="fill:#ffffff;stroke-width:0.574453"
               d="m 85.431855,66.169083 h -1.398738 v -0.890106 q -0.186997,0.127158 -0.508632,0.359034 -0.314155,0.224396 -0.613351,0.359034 -0.351554,0.172038 -0.807827,0.284236 -0.456273,0.119678 -1.069623,0.119678 -1.129463,0 -1.91485,-0.747988 -0.785388,-0.747989 -0.785388,-1.90737 0,-0.949946 0.403914,-1.533376 0.411393,-0.590911 1.166861,-0.927506 0.762948,-0.336595 1.832572,-0.456273 1.069623,-0.119678 2.296324,-0.179517 v -0.216916 q 0,-0.478713 -0.172038,-0.792868 -0.164557,-0.314155 -0.478712,-0.493672 -0.299195,-0.172038 -0.718069,-0.231877 -0.418873,-0.05984 -0.875146,-0.05984 -0.553511,0 -1.234181,0.149598 -0.680669,0.142118 -1.406218,0.418873 h -0.0748 V 57.99357 q 0.411394,-0.112198 1.189302,-0.246836 0.777908,-0.134638 1.533376,-0.134638 0.882626,0 1.533376,0.149597 0.658229,0.142118 1.136942,0.493673 0.471233,0.344074 0.718069,0.890106 0.246836,0.546031 0.246836,1.353858 z m -1.398738,-2.056968 v -2.326244 q -0.64327,0.0374 -1.518417,0.112199 -0.867666,0.0748 -1.376298,0.216916 -0.60587,0.172037 -0.979865,0.538552 -0.373994,0.359034 -0.373994,0.994824 0,0.718069 0.433833,1.084583 0.433834,0.359035 1.32394,0.359035 0.740508,0 1.353858,-0.284236 0.613351,-0.291715 1.136943,-0.695629 z" />
            <path
               inkscape:connector-curvature="0"
               id="path1961"
               style="fill:#ffffff;stroke-width:0.574453"
               d="m 93.368009,59.34743 h -0.0748 q -0.314155,-0.0748 -0.613351,-0.104719 -0.291715,-0.0374 -0.695629,-0.0374 -0.65075,0 -1.25662,0.291715 -0.605871,0.284236 -1.166862,0.740509 v 5.931547 H 88.15453 v -8.355029 h 1.406218 v 1.23418 q 0.837747,-0.673189 1.473537,-0.949945 0.64327,-0.284235 1.30898,-0.284235 0.366514,0 0.531071,0.02244 0.164558,0.01496 0.493673,0.06732 z" />
            <path
               inkscape:connector-curvature="0"
               id="path1963"
               style="fill:#ffffff;stroke-width:0.574453"
               d="m 99.045238,66.094284 q -0.396434,0.104718 -0.867666,0.172037 -0.463753,0.06732 -0.830267,0.06732 -1.27906,0 -1.94477,-0.688149 -0.665709,-0.688149 -0.665709,-2.206566 v -4.44305 H 93.78688 v -1.181821 h 0.949946 v -2.401043 h 1.406218 v 2.401043 h 2.902194 v 1.181821 h -2.902194 v 3.80726 q 0,0.65823 0.02992,1.032224 0.02992,0.366514 0.209437,0.688149 0.164557,0.299196 0.448793,0.441314 0.291715,0.134637 0.882626,0.134637 0.344075,0 0.718069,-0.09724 0.373994,-0.104718 0.538551,-0.172037 h 0.0748 z" />
            <path
               inkscape:connector-curvature="0"
               id="path1965"
               style="fill:#ffffff;stroke-width:0.574453"
               d="m 103.21901,55.031537 -0.19447,8.070794 h -1.27158 l -0.20944,-8.070794 z m -0.0748,11.137546 h -1.5259 v -1.578256 h 1.5259 z" />
            <path
               inkscape:connector-curvature="0"
               id="path1967"
               style="fill:#ffffff;stroke-width:0.574453"
               d="M 30.080722,74.180037 27.186007,85.317583 H 25.517993 L 23.17679,76.072447 20.887946,85.317583 H 19.257331 L 16.310258,74.180037 h 1.518416 l 2.341203,9.260095 2.303804,-9.260095 h 1.503457 l 2.326243,9.349854 2.326244,-9.349854 z" />
            <path
               inkscape:connector-curvature="0"
               id="path1969"
               style="fill:#ffffff;stroke-width:0.574453"
               d="m 38.390872,81.285926 h -6.155944 q 0,0.770428 0.231876,1.346379 0.231877,0.568471 0.635791,0.934985 0.388953,0.359034 0.920025,0.538552 0.538552,0.179517 1.181822,0.179517 0.852706,0 1.712893,-0.336595 0.867666,-0.344075 1.23418,-0.673189 h 0.0748 v 1.533376 q -0.710589,0.299195 -1.451097,0.501152 -0.740508,0.201957 -1.555816,0.201957 -2.079407,0 -3.246269,-1.121983 -1.166861,-1.129462 -1.166861,-3.20139 0,-2.049488 1.114502,-3.253749 1.121982,-1.204261 2.947074,-1.204261 1.690453,0 2.602999,0.987345 0.920026,0.987344 0.920026,2.804956 z m -1.368819,-1.077103 q -0.0075,-1.107023 -0.560991,-1.712894 -0.546032,-0.60587 -1.668014,-0.60587 -1.129462,0 -1.802652,0.66571 -0.665709,0.665709 -0.755468,1.653054 z" />
            <path
               inkscape:connector-curvature="0"
               id="path1971"
               style="fill:#ffffff;stroke-width:0.574453"
               d="m 53.029003,81.143808 q 0,2.042008 -1.047184,3.223829 -1.047184,1.181822 -2.804956,1.181822 -1.772732,0 -2.819916,-1.181822 -1.039704,-1.181821 -1.039704,-3.223829 0,-2.042008 1.039704,-3.223829 1.047184,-1.189302 2.819916,-1.189302 1.757772,0 2.804956,1.189302 1.047184,1.181821 1.047184,3.223829 z m -1.451098,0 q 0,-1.623135 -0.63579,-2.408522 -0.63579,-0.792868 -1.765252,-0.792868 -1.144422,0 -1.780212,0.792868 -0.62831,0.785387 -0.62831,2.408522 0,1.570775 0.63579,2.386083 0.63579,0.807827 1.772732,0.807827 1.121982,0 1.757772,-0.800347 0.64327,-0.807828 0.64327,-2.393563 z" />
            <path
               inkscape:connector-curvature="0"
               id="path1973"
               style="fill:#ffffff;stroke-width:0.574453"
               d="m 59.708537,75.040224 h -0.0748 q -0.231877,-0.06732 -0.605871,-0.134638 -0.373994,-0.0748 -0.65823,-0.0748 -0.905065,0 -1.316459,0.403914 -0.403914,0.396433 -0.403914,1.443617 v 0.284236 h 2.535681 v 1.181821 h -2.490801 v 7.173208 H 55.287925 V 78.144374 H 54.33798 v -1.181821 h 0.949945 v -0.276756 q 0,-1.488497 0.740508,-2.281364 0.740508,-0.800348 2.139247,-0.800348 0.471232,0 0.845226,0.04488 0.381474,0.04488 0.695629,0.104719 z" />
            <path
               inkscape:connector-curvature="0"
               id="path1975"
               style="fill:#ffffff;stroke-width:0.574453"
               d="m 65.094055,75.040224 h -0.0748 q -0.231877,-0.06732 -0.605871,-0.134638 -0.373994,-0.0748 -0.65823,-0.0748 -0.905065,0 -1.316459,0.403914 -0.403914,0.396433 -0.403914,1.443617 v 0.284236 h 2.535681 v 1.181821 h -2.490801 v 7.173208 h -1.406218 v -7.173208 h -0.949945 v -1.181821 h 0.949945 v -0.276756 q 0,-1.488497 0.740508,-2.281364 0.740509,-0.800348 2.139247,-0.800348 0.471232,0 0.845226,0.04488 0.381474,0.04488 0.69563,0.104719 z" />
            <path
               inkscape:connector-curvature="0"
               id="path1977"
               style="fill:#ffffff;stroke-width:0.574453"
               d="m 72.977849,81.285926 h -6.155944 q 0,0.770428 0.231877,1.346379 0.231876,0.568471 0.63579,0.934985 0.388953,0.359034 0.920025,0.538552 0.538552,0.179517 1.181822,0.179517 0.852706,0 1.712893,-0.336595 0.867666,-0.344075 1.23418,-0.673189 h 0.0748 v 1.533376 q -0.710589,0.299195 -1.451097,0.501152 -0.740508,0.201957 -1.555816,0.201957 -2.079407,0 -3.246269,-1.121983 -1.166861,-1.129462 -1.166861,-3.20139 0,-2.049488 1.114502,-3.253749 1.121982,-1.204261 2.947074,-1.204261 1.690453,0 2.602999,0.987345 0.920026,0.987344 0.920026,2.804956 z M 71.60903,80.208823 q -0.0075,-1.107023 -0.560991,-1.712894 -0.546032,-0.60587 -1.668014,-0.60587 -1.129462,0 -1.802652,0.66571 -0.665709,0.665709 -0.755468,1.653054 z" />
            <path
               inkscape:connector-curvature="0"
               id="path1979"
               style="fill:#ffffff;stroke-width:0.574453"
               d="m 80.323094,78.495929 h -0.0748 q -0.314156,-0.0748 -0.613351,-0.104718 -0.291715,-0.0374 -0.695629,-0.0374 -0.65075,0 -1.25662,0.291715 -0.605871,0.284236 -1.166862,0.740509 v 5.931547 h -1.406218 v -8.355029 h 1.406218 v 1.23418 q 0.837747,-0.673189 1.473537,-0.949945 0.64327,-0.284235 1.308979,-0.284235 0.366515,0 0.531072,0.02244 0.164557,0.01496 0.493672,0.06732 z" />
            <path
               inkscape:connector-curvature="0"
               id="path1981"
               style="fill:#ffffff;stroke-width:0.574453"
               d="m 89.328873,85.317583 h -1.525896 v -1.668014 h 1.525896 z m -4.173775,0 h -1.525896 v -1.668014 h 1.525896 z m -4.173775,0 h -1.525896 v -1.668014 h 1.525896 z" />
          </g>
          <g
             style="font-size:14.7341px;line-height:1.25;font-family:sans-serif;fill:#ffffff;stroke-width:0.55253"
             id="text1874"
             aria-label="Training
     &amp;
 Credits">
            <path
               inkscape:connector-curvature="0"
               id="path1984"
               style="font-weight:bold;fill:#ffffff;stroke-width:0.55253"
               d="m 111.8198,94.648896 h -3.34539 v 8.640454 h -2.76265 v -8.640454 h -3.34539 v -2.071983 h 9.45343 z" />
            <path
               inkscape:connector-curvature="0"
               id="path1986"
               style="font-weight:bold;fill:#ffffff;stroke-width:0.55253"
               d="m 119.19404,97.677732 h -0.23022 q -0.16547,-0.05756 -0.53238,-0.08633 -0.36692,-0.02878 -0.61153,-0.02878 -0.55397,0 -0.97843,0.07194 -0.42447,0.07194 -0.91369,0.244609 v 5.410179 h -2.58998 v -8.079296 h 2.58998 v 1.187074 q 0.85613,-0.733828 1.48924,-0.971242 0.6331,-0.244609 1.16549,-0.244609 0.13669,0 0.30936,0.0072 0.17266,0.0072 0.30216,0.02158 z" />
            <path
               inkscape:connector-curvature="0"
               id="path1988"
               style="font-weight:bold;fill:#ffffff;stroke-width:0.55253"
               d="m 125.56826,101.1814 v -1.683488 q -0.52519,0.04317 -1.13671,0.122304 -0.61152,0.07194 -0.92807,0.172665 -0.3885,0.122305 -0.59714,0.359719 -0.20144,0.23022 -0.20144,0.61152 0,0.25181 0.0432,0.41008 0.0432,0.15828 0.21583,0.30217 0.16547,0.14389 0.39569,0.21583 0.23022,0.0648 0.71944,0.0648 0.38849,0 0.78418,-0.15828 0.40289,-0.15827 0.70505,-0.41727 z m 0,1.25182 q -0.20863,0.15828 -0.51799,0.3813 -0.30936,0.22303 -0.58275,0.35253 -0.3813,0.17266 -0.79138,0.2518 -0.41008,0.0863 -0.8993,0.0863 -1.1511,0 -1.92809,-0.71224 -0.777,-0.71224 -0.777,-1.82018 0,-0.88491 0.3957,-1.446071 0.39569,-0.561162 1.12232,-0.884909 0.71944,-0.323748 1.78421,-0.460441 1.06477,-0.136693 2.20867,-0.201443 v -0.04317 q 0,-0.669078 -0.54677,-0.920881 -0.54677,-0.258998 -1.61154,-0.258998 -0.6403,0 -1.36694,0.23022 -0.72663,0.223026 -1.04318,0.345331 h -0.23742 v -1.949679 q 0.41008,-0.107915 1.33097,-0.251803 0.92807,-0.151082 1.85615,-0.151082 2.20867,0 3.18711,0.683466 0.98563,0.676273 0.98563,2.129538 v 5.496512 h -2.5684 z" />
            <path
               inkscape:connector-curvature="0"
               id="path1990"
               style="font-weight:bold;fill:#ffffff;stroke-width:0.55253"
               d="M 133.10798,103.28935 H 130.518 v -8.079292 h 2.58998 z m 0.0719,-9.230393 h -2.73386 v -1.964068 h 2.73386 z" />
            <path
               inkscape:connector-curvature="0"
               id="path1992"
               style="font-weight:bold;fill:#ffffff;stroke-width:0.55253"
               d="m 143.66934,103.28935 h -2.60437 v -4.00727 q 0,-0.489218 -0.0504,-0.971242 -0.0504,-0.489218 -0.17267,-0.719438 -0.14389,-0.266193 -0.42447,-0.388497 -0.27338,-0.122305 -0.7698,-0.122305 -0.35252,0 -0.71943,0.11511 -0.35972,0.115111 -0.78419,0.366914 v 5.726728 h -2.58998 v -8.079292 h 2.58998 v 0.892104 q 0.69066,-0.539579 1.32377,-0.827354 0.6403,-0.287776 1.41729,-0.287776 1.30938,0 2.0432,0.762605 0.74103,0.762605 0.74103,2.28062 z" />
            <path
               inkscape:connector-curvature="0"
               id="path1994"
               style="font-weight:bold;fill:#ffffff;stroke-width:0.55253"
               d="m 148.64785,103.28935 h -2.58998 v -8.079292 h 2.58998 z m 0.0719,-9.230393 h -2.73387 v -1.964068 h 2.73387 z" />
            <path
               inkscape:connector-curvature="0"
               id="path1996"
               style="font-weight:bold;fill:#ffffff;stroke-width:0.55253"
               d="m 159.20921,103.28935 h -2.60437 v -4.00727 q 0,-0.489218 -0.0504,-0.971242 -0.0504,-0.489218 -0.17266,-0.719438 -0.14389,-0.266193 -0.42447,-0.388497 -0.27339,-0.122305 -0.7698,-0.122305 -0.35253,0 -0.71944,0.11511 -0.35972,0.115111 -0.78419,0.366914 v 5.726728 h -2.58998 v -8.079292 h 2.58998 v 0.892104 q 0.69066,-0.539579 1.32377,-0.827354 0.6403,-0.287776 1.41729,-0.287776 1.30938,0 2.04321,0.762605 0.74102,0.762605 0.74102,2.28062 z" />
            <path
               inkscape:connector-curvature="0"
               id="path1998"
               style="font-weight:bold;fill:#ffffff;stroke-width:0.55253"
               d="m 169.45401,102.36128 q 0,1.13671 -0.32374,1.9137 -0.32375,0.777 -0.9065,1.21585 -0.58274,0.44606 -1.4101,0.6403 -0.82016,0.20145 -1.85615,0.20145 -0.84174,0 -1.6619,-0.10072 -0.81297,-0.10073 -1.4101,-0.24461 v -2.02163 h 0.31655 q 0.47483,0.18706 1.1583,0.33814 0.68346,0.15828 1.22304,0.15828 0.71944,0 1.16549,-0.1367 0.45325,-0.1295 0.69067,-0.3741 0.22302,-0.23022 0.32374,-0.58994 0.10072,-0.35972 0.10072,-0.86333 v -0.15108 q -0.46763,0.3813 -1.03599,0.60433 -0.56835,0.22302 -1.26621,0.22302 -1.69787,0 -2.61876,-1.0216 -0.92088,-1.0216 -0.92088,-3.107975 0,-1.000019 0.28058,-1.726652 0.28059,-0.726633 0.79139,-1.266212 0.47483,-0.503607 1.16549,-0.784188 0.69785,-0.280581 1.42449,-0.280581 0.65468,0 1.18707,0.158277 0.53958,0.151082 0.97844,0.424468 l 0.0935,-0.359719 h 2.51084 z m -2.58998,-1.61874 v -3.661942 q -0.22302,-0.09353 -0.54677,-0.143887 -0.32375,-0.05756 -0.58274,-0.05756 -1.02161,0 -1.53241,0.58994 -0.5108,0.582745 -0.5108,1.633125 0,1.165494 0.43166,1.625934 0.43886,0.46044 1.29499,0.46044 0.3885,0 0.76261,-0.1223 0.37411,-0.12231 0.68346,-0.32375 z" />
            <path
               inkscape:connector-curvature="0"
               id="path2000"
               style="font-weight:bold;fill:#ffffff;stroke-width:0.55253"
               d="m 140.21603,121.70698 h -3.42452 l -1.00002,-0.90649 q -0.71944,0.56835 -1.58996,0.84893 -0.86333,0.28058 -1.82738,0.28058 -1.98565,0 -3.12236,-0.91368 -1.12952,-0.92088 -1.12952,-2.39573 0,-0.61153 0.17986,-1.06477 0.17986,-0.45325 0.47483,-0.81297 0.28058,-0.35252 0.6475,-0.60433 0.36691,-0.2518 0.69785,-0.43166 -0.30216,-0.22303 -0.57555,-0.46763 -0.27339,-0.24461 -0.47483,-0.53239 -0.19425,-0.27339 -0.30216,-0.61152 -0.10792,-0.33814 -0.10792,-0.76261 0,-0.5036 0.21583,-0.94246 0.21583,-0.44605 0.6475,-0.79858 0.44605,-0.36691 1.19426,-0.58994 0.75541,-0.23022 1.79141,-0.23022 0.87052,0 1.55398,0.17267 0.68347,0.17266 1.15111,0.48922 0.43885,0.30216 0.66907,0.73382 0.23742,0.42447 0.23742,0.92088 0,0.33095 -0.10072,0.72664 -0.0935,0.39569 -0.35253,0.74821 -0.28058,0.37411 -0.74102,0.69786 -0.46044,0.32375 -1.25902,0.57555 l 2.20148,1.93529 v -2.31659 h 2.68351 v 0.79857 q 0,0.84894 -0.28778,1.62594 -0.28777,0.77699 -0.79138,1.28779 l 2.74106,2.39573 z m -6.77711,-8.30232 q 0,-0.37411 -0.11511,-0.58994 -0.11511,-0.22303 -0.28058,-0.33814 -0.17266,-0.11511 -0.35972,-0.14389 -0.18705,-0.0288 -0.30216,-0.0288 -0.12231,0 -0.28058,0.0288 -0.15109,0.0288 -0.33814,0.15109 -0.15108,0.10072 -0.26619,0.30216 -0.11511,0.19425 -0.11511,0.518 0,0.42446 0.34533,0.82016 0.34533,0.39569 0.8993,0.81296 0.40288,-0.31655 0.60432,-0.69785 0.20864,-0.3885 0.20864,-0.83455 z m 1.08635,6.17997 -3.072,-2.72667 q -0.14389,0.14389 -0.33094,0.518 -0.18705,0.36691 -0.18705,0.82016 0,0.48202 0.18705,0.83455 0.18705,0.34533 0.46044,0.56835 0.28778,0.23022 0.6403,0.34533 0.35253,0.11511 0.69066,0.11511 0.48922,0 0.86333,-0.0935 0.3813,-0.10072 0.74821,-0.38131 z" />
            <path
               inkscape:connector-curvature="0"
               id="path2002"
               style="font-weight:bold;fill:#ffffff;stroke-width:0.55253"
               d="m 113.31623,140.33324 q -1.19427,0 -2.20868,-0.35252 -1.00721,-0.35253 -1.73385,-1.05038 -0.72663,-0.69786 -1.12951,-1.74105 -0.3957,-1.04318 -0.3957,-2.41011 0,-1.27341 0.38131,-2.3094 0.3813,-1.03599 1.10793,-1.77702 0.69786,-0.71224 1.72665,-1.10074 1.036,-0.38849 2.25904,-0.38849 0.67627,0 1.21585,0.0791 0.54678,0.0719 1.00722,0.19424 0.48202,0.1367 0.87052,0.30936 0.39569,0.16547 0.69066,0.30936 v 2.59717 h -0.31655 q -0.20145,-0.17266 -0.51081,-0.41008 -0.30216,-0.23741 -0.69066,-0.46763 -0.39569,-0.23022 -0.85613,-0.3885 -0.46044,-0.15827 -0.98563,-0.15827 -0.58274,0 -1.10794,0.18705 -0.52519,0.17986 -0.97124,0.60433 -0.42447,0.41008 -0.69066,1.08635 -0.259,0.67627 -0.259,1.64032 0,1.00721 0.28059,1.68349 0.28777,0.67627 0.71943,1.06476 0.43886,0.3957 0.97844,0.56836 0.53958,0.16547 1.06477,0.16547 0.50361,0 0.99282,-0.15108 0.49642,-0.15108 0.91369,-0.41008 0.35253,-0.20864 0.65469,-0.44605 0.30216,-0.23742 0.49641,-0.41008 h 0.28778 v 2.5612 q -0.40289,0.17986 -0.7698,0.33814 -0.36691,0.15827 -0.7698,0.27338 -0.52519,0.15108 -0.98563,0.23022 -0.46044,0.0791 -1.26621,0.0791 z" />
            <path
               inkscape:connector-curvature="0"
               id="path2004"
               style="font-weight:bold;fill:#ffffff;stroke-width:0.55253"
               d="m 124.86321,134.51298 h -0.23022 q -0.16547,-0.0575 -0.53238,-0.0863 -0.36691,-0.0288 -0.61152,-0.0288 -0.55397,0 -0.97844,0.0719 -0.42447,0.0719 -0.91369,0.24461 v 5.41017 h -2.58998 v -8.07929 h 2.58998 v 1.18707 q 0.85614,-0.73382 1.48924,-0.97124 0.63311,-0.24461 1.16549,-0.24461 0.13669,0 0.30936,0.007 0.17267,0.007 0.30216,0.0216 z" />
            <path
               inkscape:connector-curvature="0"
               id="path2006"
               style="font-weight:bold;fill:#ffffff;stroke-width:0.55253"
               d="m 134.30225,136.56338 h -5.92818 q 0.0576,0.94966 0.71944,1.45327 0.66908,0.50361 1.96407,0.50361 0.82016,0 1.58996,-0.29497 0.7698,-0.29497 1.21585,-0.63311 h 0.28777 v 2.07918 q -0.87771,0.35252 -1.6547,0.5108 -0.777,0.15827 -1.71946,0.15827 -2.4317,0 -3.72669,-1.09354 -1.29499,-1.09355 -1.29499,-3.11517 0,-2.00004 1.22304,-3.16553 1.23024,-1.17268 3.36697,-1.17268 1.97127,0 2.96409,1.00002 0.99283,0.99282 0.99283,2.86336 z m -2.57559,-1.51801 q -0.0216,-0.81297 -0.40289,-1.22305 -0.3813,-0.41008 -1.18707,-0.41008 -0.74822,0 -1.23024,0.3885 -0.48203,0.3885 -0.53958,1.24463 z" />
            <path
               inkscape:connector-curvature="0"
               id="path2008"
               style="font-weight:bold;fill:#ffffff;stroke-width:0.55253"
               d="m 143.98589,140.1246 h -2.58998 v -0.84174 q -0.66907,0.54677 -1.25182,0.80577 -0.58274,0.259 -1.34535,0.259 -1.47485,0 -2.35976,-1.13671 -0.88491,-1.13672 -0.88491,-3.06481 0,-1.0288 0.29497,-1.82018 0.30217,-0.79858 0.82016,-1.36693 0.48922,-0.53958 1.18708,-0.83455 0.69785,-0.30217 1.39571,-0.30217 0.72663,0 1.18707,0.15828 0.46764,0.15108 0.95685,0.3885 v -3.43892 h 2.58998 z m -2.58998,-2.23026 v -3.9641 q -0.27338,-0.11511 -0.57555,-0.16547 -0.30216,-0.0504 -0.55397,-0.0504 -1.0216,0 -1.5324,0.6403 -0.5108,0.6331 -0.5108,1.76262 0,1.18707 0.41008,1.72665 0.41008,0.53239 1.31657,0.53239 0.35253,0 0.74822,-0.1295 0.39569,-0.13669 0.69785,-0.35253 z" />
            <path
               inkscape:connector-curvature="0"
               id="path2010"
               style="font-weight:bold;fill:#ffffff;stroke-width:0.55253"
               d="m 149.02196,140.1246 h -2.58998 v -8.07929 h 2.58998 z m 0.0719,-9.23039 H 146.36 v -1.96407 h 2.73386 z" />
            <path
               inkscape:connector-curvature="0"
               id="path2012"
               style="font-weight:bold;fill:#ffffff;stroke-width:0.55253"
               d="m 156.63362,140.05266 q -0.41727,0.10792 -0.88491,0.16547 -0.46763,0.0648 -1.14391,0.0648 -1.51082,0 -2.25184,-0.61152 -0.73383,-0.61153 -0.73383,-2.09357 v -3.77705 h -1.06476 v -1.75543 h 1.06476 v -2.3094 h 2.58998 v 2.3094 h 2.42451 v 1.75543 h -2.42451 v 2.86336 q 0,0.42447 0.007,0.74103 0.007,0.31655 0.11511,0.56835 0.10072,0.25181 0.35252,0.40289 0.259,0.14389 0.74822,0.14389 0.20144,0 0.52519,-0.0863 0.33094,-0.0863 0.46044,-0.15827 h 0.21583 z" />
            <path
               inkscape:connector-curvature="0"
               id="path2014"
               style="font-weight:bold;fill:#ffffff;stroke-width:0.55253"
               d="m 165.19494,137.5634 q 0,1.25183 -1.12233,2.02162 -1.12232,0.76261 -3.072,0.76261 -1.07916,0 -1.95687,-0.20144 -0.87772,-0.20145 -1.4101,-0.44606 v -2.12953 h 0.23741 q 0.19425,0.13669 0.44606,0.30216 0.25899,0.15828 0.72663,0.34533 0.40288,0.16547 0.91369,0.28778 0.5108,0.11511 1.09354,0.11511 0.76261,0 1.12952,-0.16547 0.36691,-0.17267 0.36691,-0.50361 0,-0.29497 -0.21583,-0.42447 -0.21583,-0.13669 -0.82016,-0.259 -0.28777,-0.0648 -0.78419,-0.13669 -0.48921,-0.0791 -0.8921,-0.18705 -1.10074,-0.28778 -1.63312,-0.89211 -0.53239,-0.61152 -0.53239,-1.51801 0,-1.16549 1.10074,-1.93529 1.10794,-0.777 3.02164,-0.777 0.9065,0 1.73385,0.18706 0.83455,0.17986 1.30218,0.38849 v 2.04321 H 164.605 q -0.57555,-0.39569 -1.31657,-0.6403 -0.73383,-0.2518 -1.48924,-0.2518 -0.62591,0 -1.05758,0.17266 -0.42447,0.17267 -0.42447,0.48922 0,0.28777 0.19425,0.43886 0.19425,0.15108 0.91369,0.30216 0.39569,0.0791 0.84894,0.15828 0.46044,0.0719 0.92088,0.18705 1.0216,0.26619 1.51082,0.84174 0.48922,0.56836 0.48922,1.42449 z" />
          </g>
          <g
             style="font-size:14.6758px;line-height:1.25;font-family:sans-serif;fill:#ffffff;stroke-width:0.550341"
             id="text1884"
             aria-label="First, produce some
concrete output.
Then, feel the practical
advantage.">
            <path
               inkscape:connector-curvature="0"
               id="path2017"
               style="font-weight:bold"
               d="m 23.711295,158.9244 h -4.908654 v 1.98496 h 4.550358 v 2.06379 h -4.550358 v 4.55752 h -2.73738 v -10.67005 h 7.646034 z" />
            <path
               inkscape:connector-curvature="0"
               id="path2019"
               style="font-weight:bold"
               d="m 28.046676,167.53067 h -2.579731 v -8.04733 h 2.579731 z m 0.07166,-9.19387 h -2.723049 v -1.9563 h 2.723049 z" />
            <path
               inkscape:connector-curvature="0"
               id="path2021"
               style="font-weight:bold"
               d="m 36.316146,161.94125 h -0.22931 q -0.164816,-0.0573 -0.530278,-0.086 -0.365462,-0.0287 -0.609103,-0.0287 -0.551776,0 -0.974565,0.0717 -0.422789,0.0717 -0.910071,0.24364 v 5.38877 h -2.579731 v -8.04733 h 2.579731 v 1.18238 q 0.852744,-0.73092 1.483345,-0.9674 0.630601,-0.24364 1.160878,-0.24364 0.136153,0 0.308135,0.007 0.171982,0.007 0.300969,0.0215 z" />
            <path
               inkscape:connector-curvature="0"
               id="path2023"
               style="font-weight:bold"
               d="m 44.786261,164.9796 q 0,1.24687 -1.117883,2.01363 -1.117884,0.75958 -3.059847,0.75958 -1.074888,0 -1.94913,-0.20064 -0.874242,-0.20065 -1.40452,-0.44429 v -2.12111 h 0.236475 q 0.19348,0.13615 0.444287,0.30097 0.257973,0.15765 0.723758,0.34396 0.401291,0.16482 0.910071,0.28664 0.508781,0.11465 1.08922,0.11465 0.759587,0 1.125049,-0.16481 0.365462,-0.17198 0.365462,-0.50162 0,-0.2938 -0.214978,-0.42279 -0.214977,-0.13615 -0.816914,-0.25797 -0.286637,-0.0645 -0.781085,-0.13615 -0.487283,-0.0788 -0.888574,-0.18632 -1.096386,-0.28663 -1.626664,-0.88857 -0.530278,-0.6091 -0.530278,-1.51201 0,-1.16088 1.096386,-1.92763 1.103551,-0.77392 3.009686,-0.77392 0.902905,0 1.726986,0.18631 0.831246,0.17915 1.297031,0.38696 v 2.03512 h -0.222143 q -0.573274,-0.39412 -1.311364,-0.63776 -0.730923,-0.25081 -1.483345,-0.25081 -0.623434,0 -1.05339,0.17198 -0.422789,0.17199 -0.422789,0.48729 0,0.28663 0.19348,0.43712 0.19348,0.15048 0.910072,0.30097 0.394125,0.0788 0.845578,0.15765 0.458619,0.0716 0.917238,0.18631 1.01756,0.26514 1.504842,0.83841 0.487283,0.56611 0.487283,1.41885 z" />
            <path
               inkscape:connector-curvature="0"
               id="path2025"
               style="font-weight:bold"
               d="m 51.65121,167.45901 q -0.415623,0.10749 -0.881407,0.16482 -0.465785,0.0645 -1.139381,0.0645 -1.504843,0 -2.242933,-0.6091 -0.730923,-0.60911 -0.730923,-2.08528 v -3.76211 H 45.59601 v -1.74849 h 1.060556 v -2.30026 h 2.57973 v 2.30026 h 2.414914 v 1.74849 h -2.414914 v 2.85203 q 0,0.42279 0.0072,0.73809 0.0072,0.3153 0.114655,0.56611 0.100323,0.25081 0.35113,0.40129 0.257973,0.14332 0.745255,0.14332 0.200646,0 0.523112,-0.086 0.329632,-0.086 0.458619,-0.15765 h 0.214977 z" />
            <path
               inkscape:connector-curvature="0"
               id="path2027"
               style="fill:#ffffff;stroke-width:0.550341"
               d="m 56.086915,165.48838 -2.020789,4.69368 h -1.046224 l 1.246869,-4.69368 z" />
            <path
               inkscape:connector-curvature="0"
               id="path2029"
               style="fill:#ffffff;stroke-width:0.550341"
               d="m 70.827206,163.43176 q 0,0.97457 -0.279471,1.78432 -0.279471,0.80258 -0.788251,1.36152 -0.47295,0.53028 -1.117883,0.82408 -0.637767,0.28664 -1.354359,0.28664 -0.623434,0 -1.132215,-0.13615 -0.501614,-0.13615 -1.024726,-0.42279 v 3.35365 h -1.347192 v -10.95669 h 1.347192 v 0.83841 q 0.537444,-0.45145 1.203874,-0.75242 0.673597,-0.30813 1.433184,-0.30813 1.447515,0 2.250098,1.09638 0.809749,1.08922 0.809749,3.03118 z m -1.390188,0.0358 q 0,-1.44751 -0.494448,-2.1641 -0.494449,-0.71659 -1.519175,-0.71659 -0.580439,0 -1.168045,0.2508 -0.587605,0.25081 -1.125049,0.65927 v 4.53602 q 0.573274,0.25798 0.981731,0.35113 0.415623,0.0932 0.938735,0.0932 1.125049,0 1.75565,-0.75959 0.630601,-0.75958 0.630601,-2.2501 z" />
            <path
               inkscape:connector-curvature="0"
               id="path2031"
               style="fill:#ffffff;stroke-width:0.550341"
               d="m 77.921465,160.99535 h -0.07166 q -0.300968,-0.0717 -0.587605,-0.10032 -0.279471,-0.0358 -0.66643,-0.0358 -0.623435,0 -1.203875,0.27947 -0.580439,0.27231 -1.117883,0.70943 v 5.68257 H 72.92682 v -8.00433 h 1.347192 v 1.18238 q 0.802583,-0.64494 1.411686,-0.91008 0.616269,-0.2723 1.254036,-0.2723 0.35113,0 0.50878,0.0215 0.15765,0.0143 0.472951,0.0645 z" />
            <path
               inkscape:connector-curvature="0"
               id="path2033"
               style="fill:#ffffff;stroke-width:0.550341"
               d="m 86.026121,163.53209 q 0,1.95629 -1.003228,3.08851 -1.003229,1.13221 -2.68722,1.13221 -1.698322,0 -2.701551,-1.13221 -0.996062,-1.13222 -0.996062,-3.08851 0,-1.9563 0.996062,-3.08851 1.003229,-1.13938 2.701551,-1.13938 1.683991,0 2.68722,1.13938 1.003228,1.13221 1.003228,3.08851 z m -1.390188,0 q 0,-1.55501 -0.609103,-2.30743 -0.609103,-0.75959 -1.691157,-0.75959 -1.096385,0 -1.705488,0.75959 -0.601937,0.75242 -0.601937,2.30743 0,1.50484 0.609103,2.28593 0.609103,0.77391 1.698322,0.77391 1.074888,0 1.683991,-0.76675 0.616269,-0.77392 0.616269,-2.29309 z" />
            <path
               inkscape:connector-curvature="0"
               id="path2035"
               style="fill:#ffffff;stroke-width:0.550341"
               d="m 94.610887,167.53067 h -1.347192 v -0.83841 q -0.58044,0.50161 -1.211041,0.78108 -0.6306,0.27947 -1.36869,0.27947 -1.433184,0 -2.278762,-1.10355 -0.838412,-1.10355 -0.838412,-3.05984 0,-1.01757 0.286636,-1.81298 0.293803,-0.79542 0.788251,-1.35436 0.487283,-0.54461 1.132215,-0.83125 0.652099,-0.28663 1.347193,-0.28663 0.630601,0 1.117883,0.13615 0.487283,0.12899 1.024727,0.40846 v -3.46831 h 1.347192 z m -1.347192,-1.97063 v -4.59335 q -0.54461,-0.24364 -0.974565,-0.3368 -0.429955,-0.0932 -0.938736,-0.0932 -1.132215,0 -1.762815,0.78826 -0.630601,0.78825 -0.630601,2.23576 0,1.42602 0.487282,2.17127 0.487283,0.73809 1.56217,0.73809 0.573274,0 1.160879,-0.2508 0.587605,-0.25798 1.096386,-0.65927 z" />
            <path
               inkscape:connector-curvature="0"
               id="path2037"
               style="fill:#ffffff;stroke-width:0.550341"
               d="m 103.89792,167.53067 h -1.34719 v -0.88857 q -0.68076,0.53744 -1.3042,0.82408 -0.62343,0.28663 -1.375856,0.28663 -1.261201,0 -1.963461,-0.76675 -0.70226,-0.77392 -0.70226,-2.26443 v -5.19529 h 1.347193 v 4.55752 q 0,0.60911 0.05733,1.04623 0.05733,0.42995 0.243641,0.73809 0.19348,0.3153 0.501614,0.45862 0.308135,0.14331 0.895739,0.14331 0.52311,0 1.13938,-0.2723 0.62343,-0.27231 1.16088,-0.69509 v -5.97638 h 1.34719 z" />
            <path
               inkscape:connector-curvature="0"
               id="path2039"
               style="fill:#ffffff;stroke-width:0.550341"
               d="m 112.46835,167.02906 q -0.67359,0.32246 -1.2827,0.50161 -0.60193,0.17915 -1.28269,0.17915 -0.86708,0 -1.59084,-0.25081 -0.72376,-0.25797 -1.2397,-0.77392 -0.52311,-0.51594 -0.80975,-1.3042 -0.28664,-0.78825 -0.28664,-1.84164 0,-1.96346 1.07489,-3.08134 1.08205,-1.11788 2.85204,-1.11788 0.68792,0 1.34719,0.19348 0.66643,0.19348 1.2182,0.47295 v 1.49767 h -0.0717 q -0.61626,-0.48011 -1.27553,-0.73809 -0.6521,-0.25797 -1.27553,-0.25797 -1.14655,0 -1.81298,0.77392 -0.65926,0.76675 -0.65926,2.25726 0,1.44752 0.64493,2.2286 0.6521,0.77392 1.82731,0.77392 0.40846,0 0.83124,-0.10749 0.42279,-0.10748 0.75959,-0.27947 0.2938,-0.15048 0.55178,-0.3153 0.25797,-0.17198 0.40845,-0.2938 h 0.0717 z" />
            <path
               inkscape:connector-curvature="0"
               id="path2041"
               style="fill:#ffffff;stroke-width:0.550341"
               d="m 120.90265,163.66824 h -5.89756 q 0,0.73809 0.22215,1.28987 0.22214,0.54461 0.6091,0.89574 0.37263,0.34396 0.88141,0.51594 0.51594,0.17198 1.13221,0.17198 0.81692,0 1.641,-0.32246 0.83125,-0.32964 1.18238,-0.64494 h 0.0717 v 1.46902 q -0.68076,0.28663 -1.39018,0.48011 -0.70943,0.19348 -1.49051,0.19348 -1.99213,0 -3.11001,-1.07488 -1.11789,-1.08206 -1.11789,-3.06702 0,-1.96346 1.06773,-3.11717 1.07488,-1.15371 2.82337,-1.15371 1.6195,0 2.49374,0.9459 0.88141,0.9459 0.88141,2.68722 z m -1.31137,-1.03189 q -0.007,-1.06056 -0.53744,-1.641 -0.52311,-0.58044 -1.598,-0.58044 -1.08206,0 -1.72699,0.63777 -0.63776,0.63777 -0.72376,1.58367 z" />
            <path
               inkscape:connector-curvature="0"
               id="path2043"
               style="fill:#ffffff;stroke-width:0.550341"
               d="m 133.82279,165.22324 q 0,1.09639 -0.91007,1.79865 -0.9029,0.70226 -2.47224,0.70226 -0.88857,0 -1.63383,-0.20781 -0.73809,-0.21498 -1.2397,-0.46579 v -1.51201 h 0.0717 q 0.63776,0.48012 1.41885,0.76676 0.78108,0.27947 1.49767,0.27947 0.88858,0 1.39019,-0.28664 0.50162,-0.28663 0.50162,-0.9029 0,-0.47295 -0.27231,-0.7166 -0.2723,-0.24364 -1.04622,-0.41562 -0.28664,-0.0645 -0.75242,-0.15048 -0.45862,-0.086 -0.83842,-0.18632 -1.05339,-0.27947 -1.49767,-0.81691 -0.43712,-0.54461 -0.43712,-1.33286 0,-0.49445 0.20064,-0.93157 0.20781,-0.43712 0.62344,-0.78109 0.40129,-0.33679 1.01756,-0.53027 0.62343,-0.20065 1.39018,-0.20065 0.7166,0 1.44752,0.17915 0.73809,0.17198 1.22537,0.42279 v 1.44035 h -0.0717 q -0.51594,-0.3798 -1.25403,-0.63777 -0.73809,-0.26514 -1.44752,-0.26514 -0.73809,0 -1.24687,0.28664 -0.50878,0.27947 -0.50878,0.83841 0,0.49445 0.30814,0.74526 0.30097,0.2508 0.97456,0.40845 0.37263,0.086 0.83125,0.17198 0.46578,0.086 0.77392,0.15766 0.93873,0.21497 1.44751,0.73808 0.50878,0.53028 0.50878,1.40452 z" />
            <path
               inkscape:connector-curvature="0"
               id="path2045"
               style="fill:#ffffff;stroke-width:0.550341"
               d="m 142.57954,163.53209 q 0,1.95629 -1.00323,3.08851 -1.00322,1.13221 -2.68722,1.13221 -1.69832,0 -2.70155,-1.13221 -0.99606,-1.13222 -0.99606,-3.08851 0,-1.9563 0.99606,-3.08851 1.00323,-1.13938 2.70155,-1.13938 1.684,0 2.68722,1.13938 1.00323,1.13221 1.00323,3.08851 z m -1.39019,0 q 0,-1.55501 -0.6091,-2.30743 -0.6091,-0.75959 -1.69116,-0.75959 -1.09638,0 -1.70548,0.75959 -0.60194,0.75242 -0.60194,2.30743 0,1.50484 0.6091,2.28593 0.6091,0.77391 1.69832,0.77391 1.07489,0 1.684,-0.76675 0.61626,-0.77392 0.61626,-2.29309 z" />
            <path
               inkscape:connector-curvature="0"
               id="path2047"
               style="fill:#ffffff;stroke-width:0.550341"
               d="m 156.35244,167.53067 h -1.34719 v -4.55752 q 0,-0.51595 -0.0502,-0.99607 -0.043,-0.48011 -0.19348,-0.76675 -0.16482,-0.30813 -0.47295,-0.46578 -0.30814,-0.15765 -0.88858,-0.15765 -0.56611,0 -1.13221,0.28663 -0.56611,0.27947 -1.13222,0.71659 0.0215,0.16482 0.0358,0.38696 0.0143,0.21498 0.0143,0.42996 v 5.12363 h -1.34719 v -4.55752 q 0,-0.53028 -0.0502,-1.00323 -0.043,-0.48012 -0.19348,-0.76676 -0.16482,-0.30813 -0.47295,-0.45861 -0.30814,-0.15765 -0.88857,-0.15765 -0.55178,0 -1.11072,0.2723 -0.55178,0.27231 -1.10355,0.69509 v 5.97638 h -1.3472 v -8.00433 h 1.3472 v 0.88857 q 0.6306,-0.52311 1.25403,-0.81691 0.6306,-0.2938 1.34003,-0.2938 0.81691,0 1.38302,0.34396 0.57327,0.34396 0.85275,0.95307 0.81691,-0.68793 1.49051,-0.9889 0.67359,-0.30813 1.44035,-0.30813 1.31852,0 1.94196,0.80258 0.6306,0.79542 0.6306,2.2286 z" />
            <path
               inkscape:connector-curvature="0"
               id="path2049"
               style="fill:#ffffff;stroke-width:0.550341"
               d="m 165.64663,163.66824 h -5.89755 q 0,0.73809 0.22215,1.28987 0.22214,0.54461 0.6091,0.89574 0.37263,0.34396 0.88141,0.51594 0.51594,0.17198 1.13221,0.17198 0.81692,0 1.641,-0.32246 0.83124,-0.32964 1.18237,-0.64494 h 0.0717 v 1.46902 q -0.68076,0.28663 -1.39019,0.48011 -0.70942,0.19348 -1.49051,0.19348 -1.99212,0 -3.11,-1.07488 -1.11789,-1.08206 -1.11789,-3.06702 0,-1.96346 1.06772,-3.11717 1.07489,-1.15371 2.82338,-1.15371 1.61949,0 2.49374,0.9459 0.8814,0.9459 0.8814,2.68722 z m -1.31136,-1.03189 q -0.007,-1.06056 -0.53744,-1.641 -0.52312,-0.58044 -1.598,-0.58044 -1.08206,0 -1.72699,0.63777 -0.63777,0.63777 -0.72376,1.58367 z" />
            <path
               inkscape:connector-curvature="0"
               id="path2051"
               style="fill:#ffffff;stroke-width:0.550341"
               d="m 21.94848,185.37381 q -0.673597,0.32246 -1.2827,0.50161 -0.601937,0.17915 -1.282699,0.17915 -0.867076,0 -1.590834,-0.25081 -0.723758,-0.25797 -1.239704,-0.77392 -0.523112,-0.51594 -0.809749,-1.30419 -0.286636,-0.78826 -0.286636,-1.84165 0,-1.96346 1.074887,-3.08134 1.082054,-1.11788 2.852036,-1.11788 0.687928,0 1.347192,0.19348 0.666431,0.19348 1.218207,0.47295 v 1.49767 h -0.07166 q -0.616269,-0.48011 -1.275533,-0.73809 -0.652099,-0.25797 -1.275534,-0.25797 -1.146546,0 -1.812977,0.77392 -0.659264,0.76675 -0.659264,2.25726 0,1.44752 0.644932,2.2286 0.652099,0.77392 1.827309,0.77392 0.408458,0 0.831247,-0.10748 0.422789,-0.10749 0.759587,-0.27948 0.293803,-0.15048 0.551776,-0.3153 0.257973,-0.17198 0.408457,-0.2938 h 0.07166 z" />
            <path
               inkscape:connector-curvature="0"
               id="path2053"
               style="fill:#ffffff;stroke-width:0.550341"
               d="m 30.504586,181.87684 q 0,1.95629 -1.003229,3.08851 -1.003228,1.13221 -2.687219,1.13221 -1.698323,0 -2.701551,-1.13221 -0.996063,-1.13222 -0.996063,-3.08851 0,-1.9563 0.996063,-3.08851 1.003228,-1.13938 2.701551,-1.13938 1.683991,0 2.687219,1.13938 1.003229,1.13221 1.003229,3.08851 z m -1.390188,0 q 0,-1.55501 -0.609103,-2.30743 -0.609103,-0.75958 -1.691157,-0.75958 -1.096385,0 -1.705489,0.75958 -0.601937,0.75242 -0.601937,2.30743 0,1.50484 0.609103,2.28593 0.609103,0.77392 1.698323,0.77392 1.074888,0 1.683991,-0.76676 0.616269,-0.77392 0.616269,-2.29309 z" />
            <path
               inkscape:connector-curvature="0"
               id="path2055"
               style="fill:#ffffff;stroke-width:0.550341"
               d="m 39.290001,185.87542 h -1.347193 v -4.55752 q 0,-0.55178 -0.06449,-1.0319 -0.06449,-0.48728 -0.236475,-0.75958 -0.179148,-0.30097 -0.515946,-0.44429 -0.336799,-0.15048 -0.874242,-0.15048 -0.551776,0 -1.153713,0.2723 -0.601937,0.27231 -1.153713,0.69509 v 5.97638 h -1.347193 v -8.00433 h 1.347193 v 0.88857 q 0.630601,-0.52311 1.304197,-0.81691 0.673596,-0.2938 1.383022,-0.2938 1.297031,0 1.977794,0.78108 0.680762,0.78109 0.680762,2.2501 z" />
            <path
               inkscape:connector-curvature="0"
               id="path2057"
               style="fill:#ffffff;stroke-width:0.550341"
               d="m 47.803113,185.37381 q -0.673596,0.32246 -1.282699,0.50161 -0.601938,0.17915 -1.2827,0.17915 -0.867076,0 -1.590834,-0.25081 -0.723757,-0.25797 -1.239703,-0.77392 -0.523113,-0.51594 -0.809749,-1.30419 -0.286637,-0.78826 -0.286637,-1.84165 0,-1.96346 1.074888,-3.08134 1.082053,-1.11788 2.852035,-1.11788 0.687928,0 1.347193,0.19348 0.66643,0.19348 1.218206,0.47295 v 1.49767 h -0.07166 q -0.616269,-0.48011 -1.275534,-0.73809 -0.652098,-0.25797 -1.275533,-0.25797 -1.146547,0 -1.812977,0.77392 -0.659265,0.76675 -0.659265,2.25726 0,1.44752 0.644933,2.2286 0.652098,0.77392 1.827309,0.77392 0.408457,0 0.831246,-0.10748 0.42279,-0.10749 0.759588,-0.27948 0.293802,-0.15048 0.551775,-0.3153 0.257973,-0.17198 0.408458,-0.2938 h 0.07166 z" />
            <path
               inkscape:connector-curvature="0"
               id="path2059"
               style="fill:#ffffff;stroke-width:0.550341"
               d="m 54.531911,179.3401 h -0.07166 q -0.300968,-0.0717 -0.587605,-0.10032 -0.279471,-0.0358 -0.66643,-0.0358 -0.623435,0 -1.203875,0.27947 -0.580439,0.27231 -1.117883,0.70943 v 5.68257 h -1.347192 v -8.00433 h 1.347192 v 1.18238 q 0.802583,-0.64494 1.411686,-0.91008 0.616269,-0.2723 1.254036,-0.2723 0.35113,0 0.50878,0.0215 0.15765,0.0143 0.47295,0.0645 z" />
            <path
               inkscape:connector-curvature="0"
               id="path2061"
               style="fill:#ffffff;stroke-width:0.550341"
               d="m 62.514744,182.01299 h -5.897551 q 0,0.73809 0.222144,1.28987 0.222143,0.54461 0.609103,0.89574 0.372627,0.34396 0.881408,0.51594 0.515946,0.17198 1.132215,0.17198 0.816914,0 1.640995,-0.32246 0.831246,-0.32963 1.182376,-0.64494 h 0.07166 v 1.46902 q -0.680763,0.28663 -1.390189,0.48011 -0.709425,0.19348 -1.490511,0.19348 -1.992125,0 -3.110008,-1.07488 -1.117883,-1.08206 -1.117883,-3.06702 0,-1.96346 1.067722,-3.11717 1.074887,-1.15371 2.823371,-1.15371 1.619498,0 2.49374,0.9459 0.881408,0.9459 0.881408,2.68722 z m -1.311363,-1.03189 q -0.0072,-1.06056 -0.537444,-1.641 -0.523112,-0.58044 -1.598,-0.58044 -1.082054,0 -1.726986,0.63777 -0.637767,0.63777 -0.723758,1.58367 z" />
            <path
               inkscape:connector-curvature="0"
               id="path2063"
               style="fill:#ffffff;stroke-width:0.550341"
               d="m 68.713263,185.80376 q -0.379794,0.10032 -0.831246,0.16482 -0.444287,0.0645 -0.795417,0.0645 -1.225372,0 -1.863139,-0.65926 -0.637767,-0.65927 -0.637767,-2.11395 v -4.25655 h -0.910071 v -1.13222 h 0.910071 v -2.30026 h 1.347193 v 2.30026 h 2.780376 v 1.13222 h -2.780376 v 3.64745 q 0,0.6306 0.02866,0.98889 0.02866,0.35113 0.200646,0.65927 0.15765,0.28664 0.429955,0.42279 0.279471,0.12898 0.845579,0.12898 0.329632,0 0.687928,-0.0931 0.358296,-0.10033 0.515946,-0.16482 h 0.07166 z" />
            <path
               inkscape:connector-curvature="0"
               id="path2065"
               style="fill:#ffffff;stroke-width:0.550341"
               d="m 77.047226,182.01299 h -5.897551 q 0,0.73809 0.222144,1.28987 0.222143,0.54461 0.609103,0.89574 0.372628,0.34396 0.881408,0.51594 0.515946,0.17198 1.132215,0.17198 0.816914,0 1.640995,-0.32246 0.831247,-0.32963 1.182377,-0.64494 h 0.07166 v 1.46902 q -0.680763,0.28663 -1.390188,0.48011 -0.709426,0.19348 -1.490511,0.19348 -1.992126,0 -3.110009,-1.07488 -1.117883,-1.08206 -1.117883,-3.06702 0,-1.96346 1.067722,-3.11717 1.074887,-1.15371 2.823371,-1.15371 1.619498,0 2.49374,0.9459 0.881408,0.9459 0.881408,2.68722 z m -1.311363,-1.03189 q -0.0072,-1.06056 -0.537444,-1.641 -0.523112,-0.58044 -1.598,-0.58044 -1.082053,0 -1.726986,0.63777 -0.637767,0.63777 -0.723758,1.58367 z" />
            <path
               inkscape:connector-curvature="0"
               id="path2067"
               style="fill:#ffffff;stroke-width:0.550341"
               d="m 91.070929,181.87684 q 0,1.95629 -1.003229,3.08851 -1.003228,1.13221 -2.687219,1.13221 -1.698323,0 -2.701551,-1.13221 -0.996063,-1.13222 -0.996063,-3.08851 0,-1.9563 0.996063,-3.08851 1.003228,-1.13938 2.701551,-1.13938 1.683991,0 2.687219,1.13938 1.003229,1.13221 1.003229,3.08851 z m -1.390188,0 q 0,-1.55501 -0.609103,-2.30743 -0.609104,-0.75958 -1.691157,-0.75958 -1.096386,0 -1.705489,0.75958 -0.601937,0.75242 -0.601937,2.30743 0,1.50484 0.609103,2.28593 0.609103,0.77392 1.698323,0.77392 1.074888,0 1.683991,-0.76676 0.616269,-0.77392 0.616269,-2.29309 z" />
            <path
               inkscape:connector-curvature="0"
               id="path2069"
               style="fill:#ffffff;stroke-width:0.550341"
               d="M 99.799013,185.87542 H 98.45182 v -0.88857 q -0.680762,0.53744 -1.304197,0.82408 -0.623435,0.28663 -1.375856,0.28663 -1.261202,0 -1.963462,-0.76675 -0.70226,-0.77392 -0.70226,-2.26443 v -5.19529 h 1.347193 v 4.55752 q 0,0.60911 0.05733,1.04623 0.05733,0.42995 0.243642,0.73809 0.193479,0.3153 0.501614,0.45862 0.308134,0.14331 0.89574,0.14331 0.523112,0 1.139381,-0.2723 0.623435,-0.27231 1.160878,-0.69509 v -5.97638 h 1.347193 z" />
            <path
               inkscape:connector-curvature="0"
               id="path2071"
               style="fill:#ffffff;stroke-width:0.550341"
               d="m 106.60664,185.80376 q -0.3798,0.10032 -0.83125,0.16482 -0.44429,0.0645 -0.79542,0.0645 -1.22537,0 -1.86313,-0.65926 -0.63777,-0.65927 -0.63777,-2.11395 v -4.25655 H 101.569 v -1.13222 h 0.91007 v -2.30026 h 1.34719 v 2.30026 h 2.78038 v 1.13222 h -2.78038 v 3.64745 q 0,0.6306 0.0287,0.98889 0.0287,0.35113 0.20064,0.65927 0.15765,0.28664 0.42996,0.42279 0.27947,0.12898 0.84557,0.12898 0.32964,0 0.68793,-0.0931 0.3583,-0.10033 0.51595,-0.16482 h 0.0717 z" />
            <path
               inkscape:connector-curvature="0"
               id="path2073"
               style="fill:#ffffff;stroke-width:0.550341"
               d="m 115.28457,181.77652 q 0,0.97456 -0.27948,1.78431 -0.27947,0.80258 -0.78825,1.36152 -0.47295,0.53028 -1.11788,0.82408 -0.63777,0.28664 -1.35436,0.28664 -0.62343,0 -1.13221,-0.13615 -0.50162,-0.13615 -1.02473,-0.42279 v 3.35365 h -1.34719 v -10.95669 h 1.34719 v 0.83841 q 0.53744,-0.45145 1.20387,-0.75242 0.6736,-0.30813 1.43319,-0.30813 1.44751,0 2.2501,1.09638 0.80975,1.08922 0.80975,3.03119 z m -1.39019,0.0358 q 0,-1.44751 -0.49445,-2.1641 -0.49445,-0.71659 -1.51918,-0.71659 -0.58044,0 -1.16804,0.2508 -0.58761,0.25081 -1.12505,0.65927 v 4.53602 q 0.57327,0.25798 0.98173,0.35113 0.41562,0.0932 0.93874,0.0932 1.12505,0 1.75565,-0.75959 0.6306,-0.75958 0.6306,-2.2501 z" />
            <path
               inkscape:connector-curvature="0"
               id="path2075"
               style="fill:#ffffff;stroke-width:0.550341"
               d="m 124.01982,185.87542 h -1.3472 v -0.88857 q -0.68076,0.53744 -1.30419,0.82408 -0.62344,0.28663 -1.37586,0.28663 -1.2612,0 -1.96346,-0.76675 -0.70226,-0.77392 -0.70226,-2.26443 v -5.19529 h 1.34719 v 4.55752 q 0,0.60911 0.0573,1.04623 0.0573,0.42995 0.24364,0.73809 0.19348,0.3153 0.50161,0.45862 0.30814,0.14331 0.89574,0.14331 0.52311,0 1.13938,-0.2723 0.62344,-0.27231 1.16088,-0.69509 v -5.97638 h 1.3472 z" />
            <path
               inkscape:connector-curvature="0"
               id="path2077"
               style="fill:#ffffff;stroke-width:0.550341"
               d="m 130.82744,185.80376 q -0.37979,0.10032 -0.83125,0.16482 -0.44428,0.0645 -0.79541,0.0645 -1.22537,0 -1.86314,-0.65926 -0.63777,-0.65927 -0.63777,-2.11395 v -4.25655 h -0.91007 v -1.13222 h 0.91007 v -2.30026 h 1.34719 v 2.30026 h 2.78038 v 1.13222 h -2.78038 v 3.64745 q 0,0.6306 0.0287,0.98889 0.0287,0.35113 0.20064,0.65927 0.15765,0.28664 0.42996,0.42279 0.27947,0.12898 0.84558,0.12898 0.32963,0 0.68793,-0.0931 0.35829,-0.10033 0.51594,-0.16482 h 0.0717 z" />
            <path
               inkscape:connector-curvature="0"
               id="path2079"
               style="fill:#ffffff;stroke-width:0.550341"
               d="m 134.66121,185.87542 h -1.71266 v -2.04229 h 1.71266 z" />
            <path
               inkscape:connector-curvature="0"
               id="path2081"
               style="font-weight:bold"
               d="m 24.413555,195.6139 h -3.332152 v 8.60627 h -2.751712 v -8.60627 h -3.332152 v -2.06378 h 9.416016 z" />
            <path
               inkscape:connector-curvature="0"
               id="path2083"
               style="font-weight:bold"
               d="m 34.00872,204.22017 h -2.594062 v -3.99142 q 0,-0.48728 -0.05016,-0.96739 -0.05016,-0.48729 -0.171982,-0.7166 -0.143318,-0.26514 -0.422789,-0.38696 -0.272305,-0.12182 -0.766753,-0.12182 -0.35113,0 -0.716592,0.11466 -0.358296,0.11465 -0.781085,0.36546 v 5.70407 H 25.925564 V 193.07 h 2.579731 v 3.99142 q 0.687928,-0.53745 1.318529,-0.82408 0.637767,-0.28664 1.411686,-0.28664 1.304197,0 2.035121,0.75959 0.738089,0.75959 0.738089,2.27159 z" />
            <path
               inkscape:connector-curvature="0"
               id="path2085"
               style="font-weight:bold"
               d="m 44.31331,200.67304 h -5.904716 q 0.05733,0.9459 0.716591,1.44752 0.666431,0.50161 1.956296,0.50161 0.816915,0 1.583668,-0.2938 0.766753,-0.2938 1.21104,-0.6306 h 0.286637 v 2.07095 q -0.874242,0.35113 -1.648161,0.50878 -0.773919,0.15765 -1.712655,0.15765 -2.42208,0 -3.711945,-1.08922 -1.289866,-1.08922 -1.289866,-3.10284 0,-1.99213 1.218206,-3.15301 1.225372,-1.16804 3.35365,-1.16804 1.963462,0 2.952358,0.99606 0.988897,0.9889 0.988897,2.85204 z m -2.565399,-1.51201 q -0.0215,-0.80975 -0.401291,-1.2182 -0.379794,-0.40846 -1.182376,-0.40846 -0.745256,0 -1.225372,0.38696 -0.480117,0.38696 -0.537444,1.2397 z" />
            <path
               inkscape:connector-curvature="0"
               id="path2087"
               style="font-weight:bold"
               d="m 54.216608,204.22017 h -2.594063 v -3.99142 q 0,-0.48728 -0.05016,-0.96739 -0.05016,-0.48729 -0.171982,-0.7166 -0.143318,-0.26514 -0.422789,-0.38696 -0.272305,-0.12182 -0.766753,-0.12182 -0.35113,0 -0.716592,0.11466 -0.358296,0.11465 -0.781085,0.36546 v 5.70407 h -2.579731 v -8.04733 h 2.579731 v 0.88858 q 0.687928,-0.53745 1.318529,-0.82408 0.637766,-0.28664 1.411685,-0.28664 1.304198,0 2.035121,0.75959 0.73809,0.75959 0.73809,2.27159 z" />
            <path
               inkscape:connector-curvature="0"
               id="path2089"
               style="fill:#ffffff;stroke-width:0.550341"
               d="m 59.497891,202.17788 -2.020789,4.69368 h -1.046224 l 1.24687,-4.69368 z" />
            <path
               inkscape:connector-curvature="0"
               id="path2091"
               style="fill:#ffffff;stroke-width:0.550341"
               d="m 71.500802,194.3742 h -0.07166 q -0.222144,-0.0645 -0.58044,-0.12899 -0.358296,-0.0717 -0.630601,-0.0717 -0.867076,0 -1.261201,0.38696 -0.38696,0.3798 -0.38696,1.38303 v 0.2723 h 2.429246 v 1.13222 h -2.38625 v 6.87211 h -1.347193 v -6.87211 h -0.910071 v -1.13222 h 0.910071 v -0.26514 q 0,-1.42602 0.709426,-2.1856 0.709426,-0.76676 2.049453,-0.76676 0.451452,0 0.809748,0.043 0.365462,0.043 0.666431,0.10032 z" />
            <path
               inkscape:connector-curvature="0"
               id="path2093"
               style="fill:#ffffff;stroke-width:0.550341"
               d="m 79.05368,200.35774 h -5.89755 q 0,0.73809 0.222143,1.28987 0.222144,0.54461 0.609103,0.89574 0.372628,0.34396 0.881408,0.51594 0.515946,0.17198 1.132215,0.17198 0.816915,0 1.640995,-0.32246 0.831247,-0.32963 1.182377,-0.64493 h 0.07166 v 1.46901 q -0.680762,0.28664 -1.390188,0.48012 -0.709426,0.19347 -1.490511,0.19347 -1.992125,0 -3.110008,-1.07488 -1.117884,-1.08206 -1.117884,-3.06702 0,-1.96346 1.067722,-3.11717 1.074888,-1.15371 2.823372,-1.15371 1.619497,0 2.493739,0.9459 0.881408,0.9459 0.881408,2.68722 z m -1.311363,-1.03189 q -0.0072,-1.06056 -0.537444,-1.641 -0.523112,-0.58044 -1.597999,-0.58044 -1.082054,0 -1.726987,0.63777 -0.637766,0.63777 -0.723757,1.58367 z" />
            <path
               inkscape:connector-curvature="0"
               id="path2095"
               style="fill:#ffffff;stroke-width:0.550341"
               d="M 87.796101,200.35774 H 81.89855 q 0,0.73809 0.222143,1.28987 0.222144,0.54461 0.609103,0.89574 0.372628,0.34396 0.881408,0.51594 0.515946,0.17198 1.132215,0.17198 0.816915,0 1.640996,-0.32246 0.831246,-0.32963 1.182376,-0.64493 h 0.07166 v 1.46901 q -0.680762,0.28664 -1.390188,0.48012 -0.709426,0.19347 -1.490511,0.19347 -1.992125,0 -3.110008,-1.07488 -1.117883,-1.08206 -1.117883,-3.06702 0,-1.96346 1.067721,-3.11717 1.074888,-1.15371 2.823372,-1.15371 1.619498,0 2.49374,0.9459 0.881408,0.9459 0.881408,2.68722 z m -1.311363,-1.03189 q -0.0072,-1.06056 -0.537444,-1.641 -0.523112,-0.58044 -1.598,-0.58044 -1.082054,0 -1.726986,0.63777 -0.637767,0.63777 -0.723758,1.58367 z" />
            <path
               inkscape:connector-curvature="0"
               id="path2097"
               style="fill:#ffffff;stroke-width:0.550341"
               d="M 91.199916,204.22017 H 89.852723 V 193.07 h 1.347193 z" />
            <path
               inkscape:connector-curvature="0"
               id="path2099"
               style="fill:#ffffff;stroke-width:0.550341"
               d="m 103.19566,204.14851 q -0.3798,0.10032 -0.83125,0.16482 -0.44429,0.0645 -0.79542,0.0645 -1.22537,0 -1.863134,-0.65926 -0.637767,-0.65927 -0.637767,-2.11395 v -4.25655 h -0.910071 v -1.13222 h 0.910071 v -2.30026 h 1.347191 v 2.30026 h 2.78038 v 1.13222 h -2.78038 v 3.64745 q 0,0.6306 0.0287,0.98889 0.0287,0.35113 0.20064,0.65927 0.15765,0.28664 0.42996,0.42279 0.27947,0.12898 0.84557,0.12898 0.32964,0 0.68793,-0.0931 0.3583,-0.10033 0.51595,-0.16482 h 0.0717 z" />
            <path
               inkscape:connector-curvature="0"
               id="path2101"
               style="fill:#ffffff;stroke-width:0.550341"
               d="m 111.52246,204.22017 h -1.3472 v -4.55752 q 0,-0.55178 -0.0645,-1.0319 -0.0645,-0.48728 -0.23648,-0.75958 -0.17914,-0.30097 -0.51594,-0.44429 -0.3368,-0.15048 -0.87424,-0.15048 -0.55178,0 -1.15372,0.2723 -0.60193,0.27231 -1.15371,0.6951 v 5.97637 h -1.34719 V 193.07 h 1.34719 v 4.03441 q 0.6306,-0.52311 1.3042,-0.81691 0.67359,-0.2938 1.38302,-0.2938 1.29703,0 1.97779,0.78108 0.68077,0.78109 0.68077,2.2501 z" />
            <path
               inkscape:connector-curvature="0"
               id="path2103"
               style="fill:#ffffff;stroke-width:0.550341"
               d="m 120.81665,200.35774 h -5.89755 q 0,0.73809 0.22215,1.28987 0.22214,0.54461 0.6091,0.89574 0.37263,0.34396 0.88141,0.51594 0.51594,0.17198 1.13221,0.17198 0.81692,0 1.641,-0.32246 0.83124,-0.32963 1.18237,-0.64493 h 0.0717 v 1.46901 q -0.68076,0.28664 -1.39018,0.48012 -0.70943,0.19347 -1.49052,0.19347 -1.99212,0 -3.11,-1.07488 -1.11789,-1.08206 -1.11789,-3.06702 0,-1.96346 1.06772,-3.11717 1.07489,-1.15371 2.82338,-1.15371 1.61949,0 2.49374,0.9459 0.8814,0.9459 0.8814,2.68722 z m -1.31136,-1.03189 q -0.007,-1.06056 -0.53744,-1.641 -0.52311,-0.58044 -1.598,-0.58044 -1.08206,0 -1.72699,0.63777 -0.63777,0.63777 -0.72376,1.58367 z" />
            <path
               inkscape:connector-curvature="0"
               id="path2105"
               style="fill:#ffffff;stroke-width:0.550341"
               d="m 135.0625,200.12127 q 0,0.97456 -0.27947,1.78431 -0.27948,0.80258 -0.78826,1.36152 -0.47295,0.53028 -1.11788,0.82408 -0.63777,0.28664 -1.35436,0.28664 -0.62343,0 -1.13221,-0.13615 -0.50162,-0.13615 -1.02473,-0.42279 v 3.35365 h -1.34719 v -10.95669 h 1.34719 v 0.83841 q 0.53745,-0.45145 1.20388,-0.75242 0.67359,-0.30813 1.43318,-0.30813 1.44751,0 2.2501,1.09638 0.80975,1.08922 0.80975,3.03119 z m -1.39019,0.0358 q 0,-1.44752 -0.49445,-2.16411 -0.49445,-0.71659 -1.51917,-0.71659 -0.58044,0 -1.16805,0.2508 -0.5876,0.25081 -1.12505,0.65927 v 4.53602 q 0.57328,0.25798 0.98173,0.35113 0.41563,0.0932 0.93874,0.0932 1.12505,0 1.75565,-0.75959 0.6306,-0.75958 0.6306,-2.25009 z" />
            <path
               inkscape:connector-curvature="0"
               id="path2107"
               style="fill:#ffffff;stroke-width:0.550341"
               d="m 142.15676,197.68485 h -0.0717 q -0.30097,-0.0717 -0.58761,-0.10032 -0.27947,-0.0358 -0.66643,-0.0358 -0.62343,0 -1.20387,0.27947 -0.58044,0.27231 -1.11788,0.70943 v 5.68257 h -1.3472 v -8.00433 h 1.3472 v 1.18238 q 0.80258,-0.64494 1.41168,-0.91007 0.61627,-0.27231 1.25404,-0.27231 0.35113,0 0.50878,0.0215 0.15765,0.0143 0.47295,0.0645 z" />
            <path
               inkscape:connector-curvature="0"
               id="path2109"
               style="fill:#ffffff;stroke-width:0.550341"
               d="m 149.4015,204.22017 h -1.34002 v -0.85274 q -0.17915,0.12182 -0.48729,0.34396 -0.30097,0.21498 -0.5876,0.34396 -0.3368,0.16482 -0.77392,0.27231 -0.43712,0.11465 -1.02473,0.11465 -1.08205,0 -1.83447,-0.71659 -0.75242,-0.71659 -0.75242,-1.82731 0,-0.91007 0.38696,-1.46901 0.39412,-0.56611 1.11788,-0.88857 0.73092,-0.32247 1.75565,-0.43712 1.02472,-0.11466 2.19994,-0.17199 v -0.20781 q 0,-0.45862 -0.16482,-0.75959 -0.15765,-0.30096 -0.45862,-0.47295 -0.28664,-0.16481 -0.68793,-0.22214 -0.40129,-0.0573 -0.83841,-0.0573 -0.53028,0 -1.18238,0.14332 -0.6521,0.13615 -1.34719,0.40129 h -0.0717 v -1.36869 q 0.39413,-0.10749 1.13938,-0.23647 0.74526,-0.12899 1.46902,-0.12899 0.84557,0 1.46901,0.14332 0.6306,0.13615 1.08922,0.47295 0.45145,0.32963 0.68793,0.85274 0.23647,0.52312 0.23647,1.29704 z m -1.34002,-1.97063 v -2.2286 q -0.61627,0.0358 -1.45469,0.10749 -0.83124,0.0717 -1.31853,0.20781 -0.58043,0.16482 -0.93873,0.51595 -0.3583,0.34396 -0.3583,0.95307 0,0.68792 0.41563,1.03905 0.41562,0.34397 1.26836,0.34397 0.70943,0 1.29704,-0.27231 0.5876,-0.27947 1.08922,-0.66643 z" />
            <path
               inkscape:connector-curvature="0"
               id="path2111"
               style="fill:#ffffff;stroke-width:0.550341"
               d="m 157.92895,203.71856 q -0.6736,0.32246 -1.2827,0.50161 -0.60194,0.17915 -1.2827,0.17915 -0.86708,0 -1.59083,-0.25081 -0.72376,-0.25797 -1.23971,-0.77392 -0.52311,-0.51594 -0.80975,-1.30419 -0.28663,-0.78826 -0.28663,-1.84165 0,-1.96346 1.07488,-3.08134 1.08206,-1.11788 2.85204,-1.11788 0.68793,0 1.34719,0.19348 0.66643,0.19348 1.21821,0.47295 v 1.49767 h -0.0717 q -0.61627,-0.48011 -1.27553,-0.73809 -0.6521,-0.25797 -1.27554,-0.25797 -1.14654,0 -1.81298,0.77392 -0.65926,0.76675 -0.65926,2.25726 0,1.44752 0.64493,2.22861 0.6521,0.77391 1.82731,0.77391 0.40846,0 0.83125,-0.10748 0.42279,-0.10749 0.75959,-0.27948 0.2938,-0.15048 0.55177,-0.3153 0.25797,-0.17198 0.40846,-0.2938 h 0.0717 z" />
            <path
               inkscape:connector-curvature="0"
               id="path2113"
               style="fill:#ffffff;stroke-width:0.550341"
               d="m 163.81933,204.14851 q -0.37979,0.10032 -0.83125,0.16482 -0.44428,0.0645 -0.79541,0.0645 -1.22537,0 -1.86314,-0.65926 -0.63777,-0.65927 -0.63777,-2.11395 v -4.25655 h -0.91007 v -1.13222 h 0.91007 v -2.30026 h 1.34719 v 2.30026 h 2.78038 v 1.13222 h -2.78038 v 3.64745 q 0,0.6306 0.0287,0.98889 0.0287,0.35113 0.20064,0.65927 0.15765,0.28664 0.42996,0.42279 0.27947,0.12898 0.84558,0.12898 0.32963,0 0.68793,-0.0931 0.35829,-0.10033 0.51594,-0.16482 h 0.0717 z" />
            <path
               inkscape:connector-curvature="0"
               id="path2115"
               style="fill:#ffffff;stroke-width:0.550341"
               d="m 166.90067,194.87581 h -1.51918 v -1.39735 h 1.51918 z m -0.086,9.34436 h -1.3472 v -8.00433 h 1.3472 z" />
            <path
               inkscape:connector-curvature="0"
               id="path2117"
               style="fill:#ffffff;stroke-width:0.550341"
               d="m 175.41378,203.71856 q -0.6736,0.32246 -1.2827,0.50161 -0.60194,0.17915 -1.2827,0.17915 -0.86707,0 -1.59083,-0.25081 -0.72376,-0.25797 -1.23971,-0.77392 -0.52311,-0.51594 -0.80974,-1.30419 -0.28664,-0.78826 -0.28664,-1.84165 0,-1.96346 1.07489,-3.08134 1.08205,-1.11788 2.85203,-1.11788 0.68793,0 1.34719,0.19348 0.66644,0.19348 1.21821,0.47295 v 1.49767 h -0.0717 q -0.61627,-0.48011 -1.27553,-0.73809 -0.6521,-0.25797 -1.27553,-0.25797 -1.14655,0 -1.81298,0.77392 -0.65927,0.76675 -0.65927,2.25726 0,1.44752 0.64494,2.22861 0.65209,0.77391 1.82731,0.77391 0.40845,0 0.83124,-0.10748 0.42279,-0.10749 0.75959,-0.27948 0.2938,-0.15048 0.55177,-0.3153 0.25798,-0.17198 0.40846,-0.2938 h 0.0717 z" />
            <path
               inkscape:connector-curvature="0"
               id="path2119"
               style="fill:#ffffff;stroke-width:0.550341"
               d="m 183.36795,204.22017 h -1.34003 v -0.85274 q -0.17915,0.12182 -0.48728,0.34396 -0.30097,0.21498 -0.58761,0.34396 -0.33679,0.16482 -0.77392,0.27231 -0.43712,0.11465 -1.02472,0.11465 -1.08206,0 -1.83448,-0.71659 -0.75242,-0.71659 -0.75242,-1.82731 0,-0.91007 0.38696,-1.46901 0.39413,-0.56611 1.11788,-0.88857 0.73093,-0.32247 1.75565,-0.43712 1.02473,-0.11466 2.19994,-0.17199 v -0.20781 q 0,-0.45862 -0.16481,-0.75959 -0.15766,-0.30096 -0.45862,-0.47295 -0.28664,-0.16481 -0.68793,-0.22214 -0.40129,-0.0573 -0.83841,-0.0573 -0.53028,0 -1.18238,0.14332 -0.6521,0.13615 -1.34719,0.40129 h -0.0717 v -1.36869 q 0.39412,-0.10749 1.13938,-0.23647 0.74525,-0.12899 1.46901,-0.12899 0.84558,0 1.46901,0.14332 0.63061,0.13615 1.08922,0.47295 0.45146,0.32963 0.68793,0.85274 0.23648,0.52312 0.23648,1.29704 z m -1.34003,-1.97063 v -2.2286 q -0.61627,0.0358 -1.45468,0.10749 -0.83125,0.0717 -1.31853,0.20781 -0.58044,0.16482 -0.93873,0.51595 -0.3583,0.34396 -0.3583,0.95307 0,0.68792 0.41562,1.03905 0.41563,0.34397 1.26837,0.34397 0.70943,0 1.29703,-0.27231 0.58761,-0.27947 1.08922,-0.66643 z" />
            <path
               inkscape:connector-curvature="0"
               id="path2121"
               style="fill:#ffffff;stroke-width:0.550341"
               d="m 187.33787,204.22017 h -1.34719 V 193.07 h 1.34719 z" />
            <path
               inkscape:connector-curvature="0"
               id="path2123"
               style="fill:#ffffff;stroke-width:0.550341"
               d="m 22.249448,222.56492 h -1.340027 v -0.85274 q -0.179148,0.12182 -0.487282,0.34396 -0.300969,0.21498 -0.587605,0.34397 -0.336798,0.16481 -0.773919,0.2723 -0.437121,0.11465 -1.024727,0.11465 -1.082053,0 -1.834475,-0.71659 -0.752421,-0.71659 -0.752421,-1.82731 0,-0.91007 0.386959,-1.46901 0.394126,-0.56611 1.117884,-0.88857 0.730923,-0.32247 1.75565,-0.43712 1.024726,-0.11466 2.199936,-0.17199 v -0.20781 q 0,-0.45862 -0.164816,-0.75959 -0.15765,-0.30096 -0.458618,-0.47295 -0.286637,-0.16481 -0.687929,-0.22214 -0.401291,-0.0573 -0.838412,-0.0573 -0.530278,0 -1.182377,0.14332 -0.652098,0.13615 -1.347192,0.40129 h -0.07166 v -1.36869 q 0.394125,-0.10749 1.139381,-0.23647 0.745255,-0.12899 1.469013,-0.12899 0.845578,0 1.469013,0.14332 0.630601,0.13615 1.08922,0.47295 0.451452,0.32963 0.687928,0.85274 0.236475,0.52312 0.236475,1.29704 z m -1.340027,-1.97063 v -2.2286 q -0.616269,0.0358 -1.454681,0.10749 -0.831246,0.0717 -1.318529,0.20781 -0.580439,0.16482 -0.938735,0.51595 -0.358296,0.34396 -0.358296,0.95307 0,0.68793 0.415623,1.03906 0.415623,0.34396 1.268368,0.34396 0.709426,0 1.297031,-0.27231 0.587605,-0.27947 1.089219,-0.66643 z" />
            <path
               inkscape:connector-curvature="0"
               id="path2125"
               style="fill:#ffffff;stroke-width:0.550341"
               d="m 31.350164,222.56492 h -1.347193 v -0.83841 q -0.580439,0.50161 -1.21104,0.78108 -0.6306,0.27947 -1.36869,0.27947 -1.433184,0 -2.278762,-1.10355 -0.838412,-1.10355 -0.838412,-3.05984 0,-1.01756 0.286636,-1.81298 0.293803,-0.79542 0.788251,-1.35436 0.487283,-0.54461 1.132215,-0.83125 0.652099,-0.28663 1.347193,-0.28663 0.630601,0 1.117883,0.13615 0.487283,0.12899 1.024726,0.40846 v -3.46831 h 1.347193 z m -1.347193,-1.97063 v -4.59335 q -0.544609,-0.24364 -0.974564,-0.3368 -0.429955,-0.0932 -0.938736,-0.0932 -1.132215,0 -1.762816,0.78825 -0.6306,0.78825 -0.6306,2.23576 0,1.42602 0.487282,2.17128 0.487283,0.73809 1.56217,0.73809 0.573274,0 1.160879,-0.25081 0.587605,-0.25797 1.096385,-0.65927 z" />
            <path
               inkscape:connector-curvature="0"
               id="path2127"
               style="fill:#ffffff;stroke-width:0.550341"
               d="m 40.92383,214.56059 -3.238995,8.00433 h -1.354358 l -3.217497,-8.00433 h 1.461847 l 2.479407,6.3705 2.45791,-6.3705 z" />
            <path
               inkscape:connector-curvature="0"
               id="path2129"
               style="fill:#ffffff;stroke-width:0.550341"
               d="M 48.620027,222.56492 H 47.28 v -0.85274 q -0.179148,0.12182 -0.487282,0.34396 -0.300969,0.21498 -0.587606,0.34397 -0.336798,0.16481 -0.773919,0.2723 -0.437121,0.11465 -1.024726,0.11465 -1.082054,0 -1.834475,-0.71659 -0.752421,-0.71659 -0.752421,-1.82731 0,-0.91007 0.386959,-1.46901 0.394126,-0.56611 1.117883,-0.88857 0.730924,-0.32247 1.75565,-0.43712 1.024727,-0.11466 2.199937,-0.17199 v -0.20781 q 0,-0.45862 -0.164816,-0.75959 -0.15765,-0.30096 -0.458619,-0.47295 -0.286636,-0.16481 -0.687928,-0.22214 -0.401291,-0.0573 -0.838412,-0.0573 -0.530278,0 -1.182377,0.14332 -0.652098,0.13615 -1.347192,0.40129 h -0.07166 v -1.36869 q 0.394126,-0.10749 1.139381,-0.23647 0.745256,-0.12899 1.469014,-0.12899 0.845578,0 1.469013,0.14332 0.630601,0.13615 1.089219,0.47295 0.451453,0.32963 0.687929,0.85274 0.236475,0.52312 0.236475,1.29704 z M 47.28,220.59429 v -2.2286 q -0.616269,0.0358 -1.454681,0.10749 -0.831247,0.0717 -1.318529,0.20781 -0.58044,0.16482 -0.938735,0.51595 -0.358296,0.34396 -0.358296,0.95307 0,0.68793 0.415623,1.03906 0.415623,0.34396 1.268367,0.34396 0.709426,0 1.297032,-0.27231 0.587605,-0.27947 1.089219,-0.66643 z" />
            <path
               inkscape:connector-curvature="0"
               id="path2131"
               style="fill:#ffffff;stroke-width:0.550341"
               d="m 57.921389,222.56492 h -1.347193 v -4.55752 q 0,-0.55178 -0.06449,-1.03189 -0.06449,-0.48729 -0.236476,-0.75959 -0.179148,-0.30097 -0.515946,-0.44429 -0.336798,-0.15048 -0.874242,-0.15048 -0.551775,0 -1.153713,0.2723 -0.601937,0.27231 -1.153712,0.6951 v 5.97637 h -1.347193 v -8.00433 h 1.347193 v 0.88857 q 0.6306,-0.52311 1.304197,-0.81691 0.673596,-0.2938 1.383022,-0.2938 1.297031,0 1.977793,0.78108 0.680763,0.78109 0.680763,2.2501 z" />
            <path
               inkscape:connector-curvature="0"
               id="path2133"
               style="fill:#ffffff;stroke-width:0.550341"
               d="m 64.671683,222.49326 q -0.379794,0.10033 -0.831247,0.16482 -0.444287,0.0645 -0.795417,0.0645 -1.225372,0 -1.863138,-0.65926 -0.637767,-0.65927 -0.637767,-2.11395 v -4.25655 h -0.910072 v -1.13222 h 0.910072 v -2.30026 h 1.347193 v 2.30026 h 2.780376 v 1.13222 h -2.780376 v 3.64745 q 0,0.6306 0.02866,0.98889 0.02866,0.35113 0.200646,0.65927 0.15765,0.28664 0.429955,0.42279 0.279471,0.12899 0.845578,0.12899 0.329633,0 0.687929,-0.0932 0.358295,-0.10032 0.515946,-0.16482 h 0.07166 z" />
            <path
               inkscape:connector-curvature="0"
               id="path2135"
               style="fill:#ffffff;stroke-width:0.550341"
               d="m 72.525529,222.56492 h -1.340027 v -0.85274 q -0.179147,0.12182 -0.487282,0.34396 -0.300969,0.21498 -0.587605,0.34397 -0.336798,0.16481 -0.773919,0.2723 -0.437121,0.11465 -1.024727,0.11465 -1.082053,0 -1.834475,-0.71659 -0.752421,-0.71659 -0.752421,-1.82731 0,-0.91007 0.386959,-1.46901 0.394126,-0.56611 1.117884,-0.88857 0.730923,-0.32247 1.75565,-0.43712 1.024726,-0.11466 2.199936,-0.17199 v -0.20781 q 0,-0.45862 -0.164816,-0.75959 -0.15765,-0.30096 -0.458618,-0.47295 -0.286637,-0.16481 -0.687929,-0.22214 -0.401291,-0.0573 -0.838412,-0.0573 -0.530278,0 -1.182376,0.14332 -0.652099,0.13615 -1.347193,0.40129 h -0.07166 v -1.36869 q 0.394125,-0.10749 1.139381,-0.23647 0.745255,-0.12899 1.469013,-0.12899 0.845578,0 1.469013,0.14332 0.630601,0.13615 1.08922,0.47295 0.451453,0.32963 0.687928,0.85274 0.236475,0.52312 0.236475,1.29704 z m -1.340027,-1.97063 v -2.2286 q -0.616268,0.0358 -1.454681,0.10749 -0.831246,0.0717 -1.318529,0.20781 -0.580439,0.16482 -0.938735,0.51595 -0.358296,0.34396 -0.358296,0.95307 0,0.68793 0.415623,1.03906 0.415623,0.34396 1.268368,0.34396 0.709426,0 1.297031,-0.27231 0.587605,-0.27947 1.089219,-0.66643 z" />
            <path
               inkscape:connector-curvature="0"
               id="path2137"
               style="fill:#ffffff;stroke-width:0.550341"
               d="m 81.626245,221.65485 q 0,2.03512 -0.924403,2.98819 -0.924404,0.95306 -2.84487,0.95306 -0.637766,0 -1.24687,-0.0932 -0.601937,-0.086 -1.189542,-0.25081 v -1.37586 h 0.07166 q 0.329632,0.12899 1.046224,0.3153 0.716592,0.19348 1.433184,0.19348 0.687928,0 1.139381,-0.16481 0.451453,-0.16482 0.70226,-0.45862 0.250807,-0.27947 0.358296,-0.6736 0.107489,-0.39412 0.107489,-0.8814 v -0.73093 q -0.609103,0.48728 -1.168045,0.73093 -0.551776,0.23647 -1.411686,0.23647 -1.433184,0 -2.278762,-1.03189 -0.838412,-1.03906 -0.838412,-2.9237 0,-1.03189 0.286636,-1.77714 0.293803,-0.75243 0.795417,-1.29703 0.465785,-0.50879 1.132215,-0.78826 0.666431,-0.28663 1.325695,-0.28663 0.695094,0 1.160879,0.14332 0.472951,0.13615 0.996063,0.42278 l 0.08599,-0.34396 h 1.261201 z m -1.347192,-1.28987 v -4.36404 q -0.537444,-0.24364 -1.003229,-0.34396 -0.458619,-0.10749 -0.917237,-0.10749 -1.110718,0 -1.748485,0.74525 -0.637766,0.74526 -0.637766,2.16411 0,1.34719 0.47295,2.04229 0.472951,0.69509 1.569336,0.69509 0.587606,0 1.175211,-0.22214 0.594771,-0.22931 1.08922,-0.60911 z" />
            <path
               inkscape:connector-curvature="0"
               id="path2139"
               style="fill:#ffffff;stroke-width:0.550341"
               d="m 90.977764,218.70249 h -5.897551 q 0,0.73809 0.222144,1.28987 0.222143,0.54461 0.609103,0.89574 0.372628,0.34396 0.881408,0.51594 0.515946,0.17198 1.132215,0.17198 0.816915,0 1.640995,-0.32246 0.831247,-0.32963 1.182377,-0.64493 h 0.07166 v 1.46901 q -0.680762,0.28664 -1.390188,0.48012 -0.709426,0.19348 -1.490511,0.19348 -1.992125,0 -3.110009,-1.07489 -1.117883,-1.08206 -1.117883,-3.06702 0,-1.96346 1.067722,-3.11717 1.074888,-1.15371 2.823372,-1.15371 1.619497,0 2.493739,0.9459 0.881408,0.9459 0.881408,2.68722 z m -1.311363,-1.03189 q -0.0072,-1.06056 -0.537444,-1.641 -0.523112,-0.58044 -1.598,-0.58044 -1.082053,0 -1.726986,0.63777 -0.637767,0.63777 -0.723758,1.58367 z" />
            <path
               inkscape:connector-curvature="0"
               id="path2141"
               style="fill:#ffffff;stroke-width:0.550341"
               d="m 95.219991,222.56492 h -1.712654 v -2.04229 h 1.712654 z" />
          </g>
        </g>
      </g>
    </g>
  </g>
</svg>
