<?xml version="1.0" encoding="UTF-8" standalone="no"?>
<svg
   xmlns:dc="http://purl.org/dc/elements/1.1/"
   xmlns:cc="http://creativecommons.org/ns#"
   xmlns:rdf="http://www.w3.org/1999/02/22-rdf-syntax-ns#"
   xmlns:svg="http://www.w3.org/2000/svg"
   xmlns="http://www.w3.org/2000/svg"
   xmlns:sodipodi="http://sodipodi.sourceforge.net/DTD/sodipodi-0.dtd"
   xmlns:inkscape="http://www.inkscape.org/namespaces/inkscape"
   inkscape:version="1.0beta1 (08a003b, 2019-11-10)"
   sodipodi:docname="ll_logo.svg"
   id="svg8"
   version="1.1"
   viewBox="0 0 277.84496 38.297221"
   height="108.55906pt"
   width="787.59058pt">
  <defs
     id="defs2" />
  <sodipodi:namedview
     units="pt"
     inkscape:window-maximized="1"
     inkscape:window-y="0"
     inkscape:window-x="0"
     inkscape:window-height="1003"
     inkscape:window-width="1920"
     showgrid="false"
     inkscape:document-rotation="0"
     inkscape:current-layer="ll_logo_multiColor"
     inkscape:document-units="mm"
     inkscape:cy="177.46247"
     inkscape:cx="538.11232"
     inkscape:zoom="0.70710678"
     inkscape:pageshadow="2"
     inkscape:pageopacity="0.0"
     borderopacity="1.0"
     bordercolor="#666666"
     pagecolor="#ffffff"
     id="base" />
  <metadata
     id="metadata5">
    <rdf:RDF>
      <cc:Work
         rdf:about="">
        <dc:format>image/svg+xml</dc:format>
        <dc:type
           rdf:resource="http://purl.org/dc/dcmitype/StillImage" />
        <dc:title />
      </cc:Work>
    </rdf:RDF>
  </metadata>
  <g
     id="layer1"
     inkscape:groupmode="layer"
     inkscape:label="Layer 1">
    <g
       id="Group_12"
       data-name="Group 12"
       transform="matrix(0.0951121,0,0,0.0951121,163.78401,41.755658)">
      <g
         style="opacity:1"
         transform="matrix(1.0008338,0,0,1.002366,1.4358787,1.0387206)"
         id="g3287">
        <g
           transform="matrix(1.4176956,0,0,0.86704399,719.27165,-58.543001)"
           data-name="Group 9"
           id="Group_9">
          <g
             transform="matrix(0.99991584,0,0,0.98160937,-0.14492869,-8.0737442)"
             id="ll_logo_multiColor">
            <g
               id="g1857">
              <path
                 inkscape:connector-curvature="0"
                 d="M -1722,-438.82928 H 337 V 33.170725 h -2059 z"
                 style="fill:#f69d01"
                 id="Rectangle_1" />
              <path
                 inkscape:connector-curvature="0"
                 id="Path_4"
                 data-name="Path 4"
                 d="m -1176.933,-81.819 -0.47,113.915"
                 fill="#190404"
                 stroke="#f69d01"
                 stroke-width="35" />
              <g
                 id="g1633"
                 transform="matrix(0.58014352,0,0,1.0059883,-608.00593,0.03661292)">
                <path
                   inkscape:connector-curvature="0"
                   stroke-width="35"
                   stroke="#fff"
                   fill="none"
                   d="M 0.084,0 V 472"
                   data-name="Path 1"
                   id="Path_1-3"
                   transform="translate(-1638.552,-439)" />
                <g
                   transform="translate(55,-62.225)"
                   data-name="Group 2"
                   id="Group_2-7">
                  <path
                     inkscape:connector-curvature="0"
                     stroke-width="35"
                     stroke="#fff"
                     fill="none"
                     transform="translate(-1581.507,-149.465)"
                     d="M 0,0 C 0,0 0.054,183.345 0.054,244.678"
                     data-name="Path 3"
                     id="Path_3-0" />
                  <g
                     aria-label="."
                     transform="translate(-1618,-211.775)"
                     id="_.-29"
                     style="font-size:334px;font-family:SegoeUI, 'Segoe UI';fill:#ffffff">
                    <path
                       d="m 36.368164,3.5878906 q -7.501953,0 -12.883789,-5.3818359 -5.21875,-5.3818359 -5.21875,-12.8837887 0,-7.501953 5.21875,-12.883789 5.381836,-5.544922 12.883789,-5.544922 7.665039,0 13.046875,5.544922 5.381836,5.381836 5.381836,12.883789 0,7.5019528 -5.381836,12.8837887 -5.381836,5.3818359 -13.046875,5.3818359 z"
                       id="path2474"
                       inkscape:connector-curvature="0" />
                  </g>
                </g>
                <g
                   transform="translate(79)"
                   data-name="Group 6"
                   id="Group_6-9">
                  <g
                     transform="translate(12)"
                     data-name="Group 1"
                     id="Group_1-8">
                    <g
                       aria-label="d"
                       transform="translate(-1562,28)"
                       id="d-6"
                       style="font-size:426px;font-family:Swiss721BT-RomanCondensed, 'Swis721 Cn BT';fill:#ffffff">
                      <path
                         d="m 146.64551,-121.47656 q 0,-52.41797 -10.40039,-73.01074 -10.19239,-20.59278 -34.94532,-20.59278 -23.504878,0 -34.7373,22.25684 -11.232422,22.25683 -11.232422,68.85058 0,52.001957 10.608399,75.50684 10.816406,23.296875 34.113283,23.296875 24.75293,0 35.56933,-22.048828 11.02442,-22.048829 11.02442,-74.258787 z M 178.05469,0 h -31.40918 v -30.161133 q -4.57617,15.808594 -18.72071,25.3769533 -14.14453,9.5683594 -33.281245,9.5683594 -37.025391,0 -56.578125,-33.6972657 -19.344727,-33.905273 -19.344727,-98.387694 0,-55.9541 19.552734,-86.73926 19.552735,-30.99316 54.498047,-30.99316 18.928716,0 33.281246,8.52832 14.56055,8.52832 18.30469,21.84082 v -105.66797 h 33.69727 z"
                         id="path2477"
                         inkscape:connector-curvature="0" />
                    </g>
                    <path
                       inkscape:connector-curvature="0"
                       stroke-width="35"
                       stroke="#fff"
                       fill="none"
                       transform="translate(-1400.817,-439.014)"
                       d="M 0.091,0 V 472.014"
                       data-name="Path 2"
                       id="Path_2-3" />
                  </g>
                </g>
                <path
                   inkscape:connector-curvature="0"
                   stroke-width="35"
                   stroke="#f69d01"
                   fill="#190404"
                   transform="translate(-1179.803,-81.819)"
                   d="M 2.87,0 2.4,113.915"
                   data-name="Path 4"
                   id="Path_4-5" />
                <g
                   aria-label="r"
                   transform="translate(-1069,33)"
                   id="r-8"
                   style="font-size:426px;font-family:Swiss721BT-RomanCondensed, 'Swis721 Cn BT';fill:#ffffff;stroke:#ffffff;stroke-width:1">
                  <path
                     d="m 25.584961,0 v -239.41699 h 30.993164 v 39.10547 q 7.280273,-21.00879 21.84082,-32.86524 14.768555,-11.85644 33.697265,-11.85644 5.61621,0 8.52832,0.208 3.12012,0.20801 5.82422,0.62403 v 35.77734 q -2.7041,-1.45605 -6.03223,-2.08008 -3.12011,-0.83203 -7.07226,-0.83203 -25.792971,0 -40.14551,17.05664 -14.352539,17.05664 -14.352539,47.63379 V 0 Z"
                     id="path2480"
                     inkscape:connector-curvature="0" />
                </g>
                <g
                   aria-label="."
                   transform="translate(-1006,28)"
                   id="_.-2-6"
                   style="font-size:426px;font-family:SegoeUI, 'Segoe UI';opacity:0.56;fill:#ffffff">
                  <path
                     d="m 46.385742,4.5761719 q -9.568359,0 -16.432617,-6.8642578 -6.65625,-6.8642579 -6.65625,-16.4326171 0,-9.568359 6.65625,-16.432617 6.864258,-7.072266 16.432617,-7.072266 9.776367,0 16.640625,7.072266 6.864258,6.864258 6.864258,16.432617 0,9.5683592 -6.864258,16.4326171 -6.864258,6.8642578 -16.640625,6.8642578 z"
                     id="path2483"
                     inkscape:connector-curvature="0" />
                </g>
                <g
                   opacity="0.59"
                   transform="translate(213)"
                   data-name="Group 4"
                   id="Group_4-2">
                  <path
                     inkscape:connector-curvature="0"
                     stroke-width="35"
                     stroke="#000"
                     fill="none"
                     transform="translate(-1106.552,-438.988)"
                     d="M 0.06,0 V 471.988"
                     data-name="Path 5"
                     id="Path_5-1" />
                  <g
                     aria-label="o"
                     transform="translate(-988.5,26.5)"
                     id="o-9"
                     style="font-size:426px;font-family:Swiss721BT-RomanCondensed, 'Swis721 Cn BT';stroke:#000000;stroke-width:1">
                    <path
                       d="m 18.720703,-119.60449 q 0,-64.48242 20.592774,-95.47559 20.800781,-31.20117 63.442383,-31.20117 43.26562,0 63.65039,30.78516 20.59277,30.78515 20.59277,95.8916 0,65.106443 -20.38476,95.683592 -20.38477,30.3691402 -63.8584,30.3691402 -43.681641,0 -63.858399,-30.1611332 -20.176758,-30.36914 -20.176758,-95.891599 z m 35.777344,0 q 0,53.666013 11.024414,75.714842 11.024414,21.84082 37.233399,21.84082 25.79297,0 36.81738,-22.256836 11.23242,-22.464844 11.23242,-75.298826 0,-53.25 -11.23242,-75.09082 -11.02441,-22.04883 -36.81738,-22.04883 -26.000977,0 -37.233399,21.84082 -11.024414,21.63281 -11.024414,75.29883 z"
                       id="path2486"
                       inkscape:connector-curvature="0" />
                  </g>
                  <g
                     aria-label="n"
                     transform="translate(-797.5,32.5)"
                     id="n-0"
                     style="font-size:426px;font-family:Swiss721BT-RomanCondensed, 'Swis721 Cn BT';stroke:#000000;stroke-width:1">
                    <path
                       d="m 25.584961,0 v -239.41699 h 31.40918 v 29.74512 q 8.736328,-17.47266 23.71289,-26.20899 14.976563,-8.73633 36.401369,-8.73633 31.61719,0 44.92969,16.0166 13.5205,16.01661 13.5205,55.12207 V 0 h -33.69726 v -175.97461 q 0,-19.55273 -8.32031,-29.12109 -8.32032,-9.56836 -25.37696,-9.56836 -22.464841,0 -35.777341,14.14453 -13.104492,14.14453 -13.104492,38.27344 V 0 Z"
                       id="path2489"
                       inkscape:connector-curvature="0" />
                  </g>
                  <g
                     transform="translate(556,-62.225)"
                     data-name="Group 3"
                     id="Group_3-8">
                    <path
                       inkscape:connector-curvature="0"
                       stroke-width="35"
                       stroke="#000"
                       transform="translate(-1581.507,-149.465)"
                       d="M 0,0 C 0,0 0.054,183.345 0.054,244.678"
                       data-name="Path 3"
                       id="Path_3-2-3" />
                    <g
                       aria-label="."
                       transform="translate(-1618,-211.775)"
                       id="_.-3-2"
                       style="font-size:334px;font-family:SegoeUI, 'Segoe UI'">
                      <path
                         d="m 36.368164,3.5878906 q -7.501953,0 -12.883789,-5.3818359 -5.21875,-5.3818359 -5.21875,-12.8837887 0,-7.501953 5.21875,-12.883789 5.381836,-5.544922 12.883789,-5.544922 7.665039,0 13.046875,5.544922 5.381836,5.381836 5.381836,12.883789 0,7.5019528 -5.381836,12.8837887 -5.381836,5.3818359 -13.046875,5.3818359 z"
                         id="path2492"
                         inkscape:connector-curvature="0" />
                    </g>
                  </g>
                  <g
                     aria-label="n"
                     transform="translate(-617.5,32.5)"
                     id="n-2-8"
                     style="font-size:426px;font-family:Swiss721BT-RomanCondensed, 'Swis721 Cn BT';stroke:#000000;stroke-width:1">
                    <path
                       d="m 25.584961,0 v -239.41699 h 31.40918 v 29.74512 q 8.736328,-17.47266 23.71289,-26.20899 14.976563,-8.73633 36.401369,-8.73633 31.61719,0 44.92969,16.0166 13.5205,16.01661 13.5205,55.12207 V 0 h -33.69726 v -175.97461 q 0,-19.55273 -8.32031,-29.12109 -8.32032,-9.56836 -25.37696,-9.56836 -22.464841,0 -35.777341,14.14453 -13.104492,14.14453 -13.104492,38.27344 V 0 Z"
                       id="path2495"
                       inkscape:connector-curvature="0" />
                  </g>
                </g>
                <g
                   transform="translate(93)"
                   data-name="Group 8"
                   id="Group_8-0">
                  <g
                     aria-label="a"
                     transform="translate(-1356,28)"
                     id="a-8"
                     style="font-size:426px;font-family:Swiss721BT-RomanCondensed, 'Swis721 Cn BT';fill:#ffffff">
                    <path
                       d="m 128.13281,-129.17285 q -7.90429,8.73633 -34.94531,18.51269 -2.288086,0.83203 -3.328125,1.24805 -23.296875,8.11231 -30.369141,18.304688 -7.072265,10.192383 -7.072265,30.161133 0,17.888672 7.904297,27.665039 7.904296,9.776367 22.256836,9.776367 20.800778,0 33.073238,-15.808594 12.48047,-15.808593 12.48047,-42.433593 z M 181.1748,0.41601563 q -6.44824,1.04003907 -11.23242,1.45605467 -4.57617,0.6240235 -8.52832,0.6240235 -14.14453,0 -22.25683,-8.944336 -8.11231,-8.9443358 -8.73633,-25.3769528 -7.69629,18.304687 -22.25684,28.0810544 -14.560544,9.7763672 -34.529294,9.7763672 -26.000977,0 -40.561524,-17.4726566 -14.352539,-17.472656 -14.352539,-49.089843 0,-30.993164 13.3125,-47.217777 13.520508,-16.22461 58.03418,-31.20117 l 0.624023,-0.20801 q 36.609374,-12.27246 36.609374,-28.70507 v -22.04883 q 0,-14.76856 -8.52832,-21.42481 -8.32031,-6.86426 -26.833007,-6.86426 -17.888672,0 -26.625,9.36036 -8.736328,9.36035 -8.736328,28.70507 v 4.16016 h -31.40918 q 0.624024,-36.60937 17.472657,-53.45801 16.848632,-16.84863 53.25,-16.84863 34.113278,0 49.713868,15.60059 15.80859,15.39257 15.80859,48.88183 v 139.98926 q 0,9.360351 3.32813,13.520508 3.32812,3.952148 10.8164,3.952148 1.45606,0 4.57618,-0.624023 0.41601,0 0.83203,-0.208008 z"
                       id="path2498"
                       inkscape:connector-curvature="0" />
                  </g>
                  <path
                     inkscape:connector-curvature="0"
                     stroke-width="33"
                     stroke="#fff"
                     fill="none"
                     transform="translate(-1267.801,-132.663)"
                     d="M 56.716,0 V 0 165.663"
                     data-name="Path 8"
                     id="Path_8-0" />
                  <path
                     inkscape:connector-curvature="0"
                     stroke-width="33"
                     stroke="#f69d01"
                     fill="none"
                     transform="translate(-1249.214,-131.397)"
                     d="m 70.811,0 0.8,-0.994 -0.8,164.523 v 0.9"
                     data-name="Path 9"
                     id="Path_9-1" />
                  <path
                     inkscape:connector-curvature="0"
                     stroke-width="80"
                     stroke="#f69d01"
                     fill="none"
                     transform="rotate(64,-1343.4764,-160.8955)"
                     d="m -1345.52,-199.378 53.34,26.8"
                     data-name="Path 10"
                     id="Path_10-5" />
                </g>
              </g>
            </g>
          </g>
        </g>
      </g>
    </g>
  </g>
</svg>
