<?xml version="1.0" encoding="UTF-8" standalone="no"?>
<svg
   xmlns:osb="http://www.openswatchbook.org/uri/2009/osb"
   xmlns:dc="http://purl.org/dc/elements/1.1/"
   xmlns:cc="http://creativecommons.org/ns#"
   xmlns:rdf="http://www.w3.org/1999/02/22-rdf-syntax-ns#"
   xmlns:svg="http://www.w3.org/2000/svg"
   xmlns="http://www.w3.org/2000/svg"
   xmlns:sodipodi="http://sodipodi.sourceforge.net/DTD/sodipodi-0.dtd"
   xmlns:inkscape="http://www.inkscape.org/namespaces/inkscape"
   inkscape:export-ydpi="96"
   inkscape:export-xdpi="96"
   inkscape:export-filename="E:\HTML\svg of laguages text\tamil.png"
   width="61mm"
   height="31mm"
   viewBox="0 0 61.000031 31.000155"
   version="1.1"
   id="svg1386"
   inkscape:version="1.0beta1 (08a003b, 2019-11-10)"
   sodipodi:docname="malayalam.svg">
  <defs
     id="defs1380">
    <inkscape:path-effect
       simplify_just_coalesce="false"
       simplify_individual_paths="false"
       helper_size="0"
       smooth_angles="360"
       threshold="0.00108696"
       steps="1"
       is_visible="true"
       id="path-effect1551"
       effect="simplify" />
    <inkscape:path-effect
       simplify_just_coalesce="false"
       simplify_individual_paths="false"
       helper_size="0"
       smooth_angles="360"
       threshold="0.00108696"
       steps="1"
       is_visible="true"
       id="path-effect1547"
       effect="simplify" />
    <inkscape:path-effect
       simplify_just_coalesce="false"
       simplify_individual_paths="false"
       helper_size="0"
       smooth_angles="360"
       threshold="0.00108696"
       steps="1"
       is_visible="true"
       id="path-effect1530"
       effect="simplify" />
    <inkscape:path-effect
       simplify_just_coalesce="false"
       simplify_individual_paths="false"
       helper_size="0"
       smooth_angles="360"
       threshold="0.00108696"
       steps="1"
       is_visible="true"
       id="path-effect1526"
       effect="simplify" />
    <inkscape:path-effect
       simplify_just_coalesce="false"
       simplify_individual_paths="false"
       helper_size="0"
       smooth_angles="360"
       threshold="0.00108696"
       steps="1"
       is_visible="true"
       id="path-effect1504"
       effect="simplify" />
    <inkscape:path-effect
       effect="simplify"
       id="path-effect877"
       is_visible="true"
       steps="1"
       threshold="0.00108696"
       smooth_angles="360"
       helper_size="0"
       simplify_individual_paths="false"
       simplify_just_coalesce="false" />
    <inkscape:path-effect
       effect="simplify"
       id="path-effect1999"
       is_visible="true"
       steps="1"
       threshold="0.5"
       smooth_angles="360"
       helper_size="0"
       simplify_individual_paths="false"
       simplify_just_coalesce="false" />
    <linearGradient
       id="linearGradient1985"
       osb:paint="solid">
      <stop
         style="stop-color:#ba9d01;stop-opacity:1;"
         offset="0"
         id="stop1983" />
    </linearGradient>
    <inkscape:path-effect
       effect="simplify"
       id="path-effect1981"
       is_visible="true"
       steps="1"
       threshold="0.5"
       smooth_angles="360"
       helper_size="0"
       simplify_individual_paths="false"
       simplify_just_coalesce="false" />
    <inkscape:path-effect
       effect="simplify"
       id="path-effect1504-5"
       is_visible="true"
       steps="1"
       threshold="0.00108696"
       smooth_angles="360"
       helper_size="0"
       simplify_individual_paths="false"
       simplify_just_coalesce="false" />
  </defs>
  <sodipodi:namedview
     inkscape:snap-others="false"
     id="base"
     pagecolor="#ffffff"
     bordercolor="#666666"
     borderopacity="1.0"
     inkscape:pageopacity="0.0"
     inkscape:pageshadow="2"
     inkscape:zoom="2.8284271"
     inkscape:cx="112.71679"
     inkscape:cy="96.350761"
     inkscape:document-units="mm"
     inkscape:current-layer="layer1"
     inkscape:document-rotation="0"
     showgrid="false"
     units="mm"
     inkscape:window-width="1920"
     inkscape:window-height="1003"
     inkscape:window-x="0"
     inkscape:window-y="0"
     inkscape:window-maximized="1" />
  <metadata
     id="metadata1383">
    <rdf:RDF>
      <cc:Work
         rdf:about="">
        <dc:format>image/svg+xml</dc:format>
        <dc:type
           rdf:resource="http://purl.org/dc/dcmitype/StillImage" />
        <dc:title></dc:title>
      </cc:Work>
    </rdf:RDF>
  </metadata>
  <g
     inkscape:label="Layer 1"
     inkscape:groupmode="layer"
     id="layer1">
    <g
       transform="matrix(1.0128696,0,0,1.0216313,-21.084884,-152.15581)"
       id="g1620">
      <rect
         style="fill:#4d4d4d;fill-opacity:0;stroke:#f69d01;stroke-width:0.969585;stroke-linecap:square;paint-order:markers stroke fill"
         id="rect841"
         width="59.253551"
         height="29.375877"
         x="21.305452"
         y="149.41724" />
      <g
         aria-label="മലയാളം"
         transform="matrix(0.53661188,0,0,0.591824,-39.248983,-22.084793)"
         style="font-style:normal;font-variant:normal;font-weight:bold;font-stretch:normal;font-size:16.9333px;line-height:1.25;font-family:'Nirmala UI';-inkscape-font-specification:'Nirmala UI Bold';letter-spacing:0px;word-spacing:0px;fill:#4d4d4d;fill-opacity:1;stroke:none;stroke-width:0.265309"
         id="text12-5">
        <path
           d="m 130.10552,318.2071 v -5.63618 q 0,-1.1231 0.38585,-1.94992 0.39274,-0.83372 1.08176,-1.37804 0.69591,-0.55122 1.64675,-0.81994 0.95085,-0.26871 2.08084,-0.26871 1.07487,0 1.97748,0.2825 0.90262,0.2756 1.55719,0.8406 0.66146,0.5581 1.02664,1.39871 0.36518,0.8406 0.36518,1.9637 v 5.56728 z m 5.09185,-6.6766 q 0,-0.88194 -0.34451,-1.32981 -0.33762,-0.44786 -0.95085,-0.44786 -0.39274,0 -0.75103,0.19982 -0.3514,0.19981 -0.62012,0.5581 -0.26872,0.3514 -0.43408,0.8475 -0.16536,0.49609 -0.17914,1.09554 -0.007,0.15158 -0.0138,0.29627 0,0.1447 0,0.2825 v 3.61735 q 0.93706,-0.80615 1.57096,-1.51584 0.6339,-0.70969 1.01286,-1.3367 0.38585,-0.627 0.54432,-1.18511 0.16537,-0.56499 0.16537,-1.08176 z m 3.2315,1.50206 q 0,-0.1378 -0.007,-0.2825 0,-0.14469 -0.007,-0.29627 -0.0207,-0.57189 -0.19293,-1.0542 -0.17225,-0.48232 -0.48231,-0.84061 -0.30317,-0.36518 -0.73036,-0.58566 -0.4272,-0.22738 -0.95085,-0.2825 0.41341,0.31006 0.64079,0.81304 0.23426,0.4961 0.23426,1.15755 0,0.53744 -0.17914,1.13689 -0.17915,0.59944 -0.53744,1.24023 -0.35829,0.6339 -0.88883,1.29536 -0.52365,0.66145 -1.21267,1.31602 h 4.31326 z"
           style="font-style:normal;font-variant:normal;font-weight:bold;font-stretch:normal;font-size:14.1111px;font-family:'Nirmala UI';-inkscape-font-specification:'Nirmala UI Bold';fill:#4d4d4d;fill-opacity:1;stroke-width:0.265309"
           id="path9-2"
           inkscape:connector-curvature="0" />
        <path
           d="m 153.89734,316.6568 v -8.32335 h 1.79834 v 9.87365 h -12.88465 v -5.4846 q 0,-1.13688 0.2756,-1.99126 0.2825,-0.85438 0.81305,-1.42627 0.53743,-0.57189 1.31602,-0.86127 0.7786,-0.28939 1.78456,-0.28939 1.07487,0 1.84657,0.28939 0.77171,0.28938 1.27469,0.86127 0.50298,0.57189 0.73725,1.42627 0.24116,0.85438 0.24116,1.99126 v 1.98438 h -6.49056 v 1.94992 z m -9.28797,-3.50021 h 4.69222 v -0.37896 q 0,-0.13092 0,-0.28939 0,-0.15848 -0.007,-0.29628 -0.0138,-0.66146 -0.19293,-1.12999 -0.17225,-0.46854 -0.48231,-0.76481 -0.31006,-0.30317 -0.73725,-0.44098 -0.42719,-0.14469 -0.93018,-0.14469 -0.46164,0 -0.87505,0.12402 -0.41341,0.12403 -0.73036,0.41342 -0.31695,0.28938 -0.51677,0.76481 -0.19292,0.47542 -0.21359,1.17822 -0.007,0.15847 -0.007,0.33073 0,0.16536 0,0.30317 z"
           style="font-style:normal;font-variant:normal;font-weight:bold;font-stretch:normal;font-size:14.1111px;font-family:'Nirmala UI';-inkscape-font-specification:'Nirmala UI Bold';fill:#4d4d4d;fill-opacity:1;stroke-width:0.265309"
           id="path11-3"
           inkscape:connector-curvature="0" />
        <path
           d="m 172.17013,308.1612 q 0.43408,0.5581 0.75792,1.17133 0.32384,0.61323 0.53744,1.24023 0.21359,0.62012 0.31695,1.24713 0.11024,0.62012 0.11024,1.19889 0,1.24713 -0.40652,2.2462 -0.39963,0.99219 -1.10932,1.6881 -0.70969,0.68902 -1.67432,1.06109 -0.95774,0.37207 -2.07395,0.37207 -0.32384,0 -0.67524,-0.0413 -0.34451,-0.0344 -0.68212,-0.11024 -0.33762,-0.0689 -0.65457,-0.16537 -0.31006,-0.10335 -0.55811,-0.22737 -0.47542,0.24804 -1.09554,0.39274 -0.61323,0.15158 -1.34359,0.15158 -0.86816,0 -1.62608,-0.20671 -0.75792,-0.21359 -1.39182,-0.59944 -0.6339,-0.38585 -1.13688,-0.92329 -0.49609,-0.54432 -0.8406,-1.19889 -0.34451,-0.66146 -0.53055,-1.41938 -0.17914,-0.76481 -0.17914,-1.58474 0,-1.0542 0.31694,-1.86036 0.31695,-0.80615 0.84061,-1.34358 0.52365,-0.54433 1.192,-0.81993 0.67524,-0.27561 1.39182,-0.27561 0.41341,0 0.74414,0.0827 0.33762,0.0758 0.59945,0.22738 0.26182,0.14469 0.46853,0.35829 0.20671,0.2067 0.36518,0.46164 h 0.0482 q 0.39963,-0.53744 1.04042,-0.83371 0.64768,-0.29628 1.44005,-0.29628 0.64768,0 1.24712,0.24804 0.59945,0.24116 1.06109,0.74414 0.46164,0.4961 0.73725,1.25402 0.2825,0.75792 0.2825,1.79145 0,0.65457 -0.17225,1.32292 -0.17226,0.66834 -0.46165,1.27468 -0.2825,0.59945 -0.64768,1.10932 -0.36518,0.50988 -0.75103,0.85439 0.19293,0.062 0.4961,0.11024 0.31006,0.0413 0.59255,0.0413 0.66835,0 1.25402,-0.26183 0.59256,-0.26871 1.03353,-0.76481 0.44786,-0.49609 0.7028,-1.19889 0.26182,-0.7028 0.26182,-1.57786 0,-0.53743 -0.10335,-1.09554 -0.0965,-0.56499 -0.30317,-1.1231 -0.2067,-0.56499 -0.53054,-1.11621 -0.32384,-0.5581 -0.77859,-1.08865 z m -8.41292,8.74365 q 0.19981,0 0.41341,-0.0413 0.22049,-0.0413 0.35829,-0.0965 -0.46164,-0.34451 -0.82682,-0.82683 -0.35829,-0.4892 -0.60634,-1.06109 -0.24805,-0.57188 -0.37896,-1.19889 -0.13091,-0.6339 -0.13091,-1.27468 0,-0.19982 0.0138,-0.39964 0.0207,-0.2067 0.0413,-0.39963 0.0207,-0.19292 0.0345,-0.36518 0.0207,-0.17225 0.0207,-0.31006 0,-0.24115 -0.0689,-0.46164 -0.062,-0.22048 -0.19293,-0.38585 -0.13091,-0.17225 -0.33073,-0.26872 -0.19981,-0.10335 -0.46853,-0.10335 -0.33073,0 -0.66146,0.16537 -0.32384,0.16536 -0.58567,0.50987 -0.25493,0.33762 -0.4203,0.86127 -0.15847,0.51677 -0.15847,1.23335 0,0.97151 0.30317,1.78456 0.31005,0.80615 0.8406,1.39871 0.53743,0.58566 1.25401,0.91639 0.72347,0.32384 1.5503,0.32384 z m 0.69591,-4.51997 q 0,1.17134 0.38585,2.09462 0.39274,0.9164 1.27468,1.64676 0.38585,-0.3514 0.69591,-0.78548 0.31006,-0.44098 0.53055,-0.93018 0.22048,-0.49609 0.33762,-1.03353 0.11713,-0.53743 0.11713,-1.09554 0,-0.61323 -0.11024,-1.08865 -0.11025,-0.48231 -0.31695,-0.80615 -0.19982,-0.33073 -0.48921,-0.50298 -0.28249,-0.17226 -0.64078,-0.17226 -0.39274,0 -0.72347,0.17226 -0.33073,0.17225 -0.565,0.51676 -0.23427,0.33762 -0.36518,0.8406 -0.13091,0.4961 -0.13091,1.14377 z"
           style="font-style:normal;font-variant:normal;font-weight:bold;font-stretch:normal;font-size:14.1111px;font-family:'Nirmala UI';-inkscape-font-specification:'Nirmala UI Bold';fill:#4d4d4d;fill-opacity:1;stroke-width:0.265309"
           id="path13-0"
           inkscape:connector-curvature="0" />
        <path
           d="m 181.22384,313.20482 q 0,-0.81305 -0.11713,-1.46072 -0.11024,-0.65457 -0.3514,-1.10243 -0.24116,-0.44787 -0.61323,-0.68902 -0.36518,-0.24116 -0.86816,-0.24116 -0.42719,0 -0.7717,0.18604 -0.33762,0.17914 -0.58567,0.51676 -0.24116,0.33762 -0.37896,0.81993 -0.13091,0.47543 -0.14469,1.06109 h -1.86725 q 0.0207,-0.87505 0.27561,-1.62608 0.26183,-0.75792 0.73725,-1.31603 0.47543,-0.5581 1.15755,-0.87505 0.68902,-0.32384 1.57097,-0.32384 0.99219,0 1.71566,0.37207 0.73036,0.36518 1.19889,1.03353 0.47542,0.66145 0.7028,1.58474 0.23426,0.9164 0.23426,2.01194 0,1.17133 -0.23426,2.13596 -0.22738,0.96462 -0.7028,1.65364 -0.46853,0.68213 -1.19889,1.06109 -0.72347,0.37896 -1.71566,0.37896 -0.88195,0 -1.57097,-0.28939 -0.68212,-0.29628 -1.16444,-0.81304 -0.47542,-0.51676 -0.73036,-1.22645 -0.25493,-0.71658 -0.27561,-1.55719 h 1.86725 q 0.0207,0.53744 0.15158,0.97152 0.1378,0.43408 0.37896,0.73725 0.24116,0.29628 0.57878,0.46164 0.34451,0.15848 0.7717,0.15848 0.50298,0 0.86816,-0.25494 0.37207,-0.26183 0.61323,-0.73725 0.24116,-0.47542 0.3514,-1.14377 0.11713,-0.66835 0.11713,-1.48828 z"
           style="font-style:normal;font-variant:normal;font-weight:bold;font-stretch:normal;font-size:14.1111px;font-family:'Nirmala UI';-inkscape-font-specification:'Nirmala UI Bold';fill:#4d4d4d;fill-opacity:1;stroke-width:0.265309"
           id="path15-0"
           inkscape:connector-curvature="0" />
        <path
           d="m 192.18613,316.55345 q 0.60634,0 1.04042,-0.0758 0.43408,-0.0758 0.70969,-0.24116 0.2825,-0.16536 0.41341,-0.4203 0.13092,-0.26183 0.13092,-0.62701 0,-0.53743 -0.4203,-0.86127 -0.42031,-0.33073 -1.30914,-0.33073 h -1.25402 v -1.51584 h 0.96463 q 0.70969,0 1.04731,-0.2825 0.33762,-0.28939 0.33762,-0.82682 0,-0.39963 -0.24805,-0.7028 -0.24115,-0.31006 -0.66835,-0.51677 -0.42719,-0.21359 -1.00596,-0.31695 -0.57189,-0.11024 -1.22646,-0.11024 -0.79237,0 -1.44005,0.13091 -0.64079,0.13092 -1.14377,0.37207 -0.49609,0.23427 -0.84749,0.57189 -0.34451,0.33762 -0.54433,0.74414 h 0.0482 q 0.27561,-0.24116 0.66835,-0.36518 0.39963,-0.13091 0.90261,-0.13091 0.41342,0 0.80616,0.15158 0.39963,0.1447 0.70969,0.43408 0.31695,0.28939 0.50987,0.70969 0.19293,0.42031 0.19293,0.95774 0,0.66146 -0.22738,1.17822 -0.22738,0.50988 -0.62701,0.86817 -0.39274,0.3514 -0.93017,0.53743 -0.53055,0.18604 -1.14377,0.18604 -0.67524,0 -1.21268,-0.24805 -0.53054,-0.25494 -0.89572,-0.68902 -0.36518,-0.43408 -0.55811,-1.01286 -0.19292,-0.57877 -0.19292,-1.23334 0,-1.06798 0.4203,-1.94304 0.42719,-0.87505 1.20578,-1.49517 0.77859,-0.62011 1.88791,-0.95773 1.10932,-0.33762 2.47358,-0.33762 1.15066,0 2.06706,0.22737 0.92328,0.22049 1.57096,0.62701 0.64768,0.40652 0.99219,0.97841 0.34451,0.57188 0.34451,1.26779 0,0.26183 -0.0689,0.52366 -0.0689,0.25493 -0.2136,0.49609 -0.14469,0.23427 -0.37207,0.43408 -0.22737,0.19982 -0.54432,0.33762 v 0.0413 q 0.39963,0.0482 0.73725,0.22049 0.34451,0.16536 0.58566,0.44786 0.24116,0.27561 0.37897,0.66835 0.1378,0.38585 0.1378,0.87506 0,0.70279 -0.26183,1.23334 -0.26183,0.52365 -0.7717,0.87505 -0.50298,0.3514 -1.24712,0.52366 -0.73725,0.17225 -1.6881,0.17225 h -4.83691 q -0.46165,0 -0.68902,0.18604 -0.22738,0.19292 -0.22738,0.51676 0,0.33073 0.22738,0.50988 0.22737,0.18603 0.68902,0.18603 h 7.85481 v 1.55029 h -7.92372 q -0.64767,0 -1.15755,-0.1378 -0.50987,-0.13091 -0.86127,-0.40652 -0.3514,-0.26872 -0.53744,-0.68213 -0.18603,-0.41341 -0.18603,-0.97152 0,-0.57188 0.19292,-0.99907 0.19293,-0.43409 0.55122,-0.72347 0.35829,-0.28939 0.85438,-0.43409 0.4961,-0.14469 1.10932,-0.14469 z m -4.59575,-4.10655 q -0.22738,0 -0.42031,0.0758 -0.18603,0.0758 -0.33072,0.21359 -0.13781,0.13781 -0.22049,0.32384 -0.0758,0.18604 -0.0758,0.40652 0,0.22738 0.0689,0.42031 0.0758,0.19292 0.20671,0.33762 0.1378,0.14469 0.33072,0.22737 0.19293,0.0827 0.4272,0.0827 0.49609,0 0.7717,-0.28938 0.27561,-0.29628 0.27561,-0.80616 0,-0.2067 -0.0689,-0.38585 -0.0689,-0.18603 -0.20671,-0.31695 -0.13091,-0.1378 -0.32384,-0.21359 -0.19292,-0.0758 -0.43408,-0.0758 z"
           style="font-style:normal;font-variant:normal;font-weight:bold;font-stretch:normal;font-size:14.1111px;font-family:'Nirmala UI';-inkscape-font-specification:'Nirmala UI Bold';fill:#4d4d4d;fill-opacity:1;stroke-width:0.265309"
           id="path17"
           inkscape:connector-curvature="0" />
        <path
           d="m 201.98399,316.82906 q 0.45475,0 0.84749,-0.16537 0.39274,-0.17225 0.67524,-0.47542 0.2825,-0.30317 0.44097,-0.72347 0.16537,-0.4203 0.16537,-0.93018 0,-0.50987 -0.16537,-0.93017 -0.15847,-0.42719 -0.44097,-0.73036 -0.2825,-0.31006 -0.67524,-0.47543 -0.39274,-0.17225 -0.84749,-0.17225 -0.45475,0 -0.84749,0.17225 -0.39275,0.16537 -0.67524,0.47543 -0.2825,0.30317 -0.44787,0.73036 -0.15847,0.4203 -0.15847,0.93017 0,0.50988 0.15847,0.93018 0.16537,0.4203 0.44787,0.72347 0.28249,0.30317 0.67524,0.47542 0.39274,0.16537 0.84749,0.16537 z m 0,1.55718 q -0.86127,0 -1.59853,-0.26872 -0.73725,-0.2756 -1.27468,-0.7717 -0.53744,-0.50298 -0.84749,-1.21267 -0.30317,-0.71658 -0.30317,-1.59853 0,-0.88194 0.30317,-1.59163 0.31005,-0.71658 0.84749,-1.21956 0.53743,-0.50988 1.27468,-0.7786 0.73726,-0.2756 1.59853,-0.2756 0.86127,0 1.59852,0.2756 0.73725,0.26872 1.27469,0.7786 0.53743,0.50298 0.8406,1.21956 0.31006,0.70969 0.31006,1.59163 0,0.87506 -0.31006,1.59164 -0.30317,0.70969 -0.8406,1.21267 -0.53744,0.50299 -1.27469,0.77859 -0.73725,0.26872 -1.59852,0.26872 z"
           style="font-style:normal;font-variant:normal;font-weight:bold;font-stretch:normal;font-size:14.1111px;font-family:'Nirmala UI';-inkscape-font-specification:'Nirmala UI Bold';fill:#4d4d4d;fill-opacity:1;stroke-width:0.265309"
           id="path19"
           inkscape:connector-curvature="0" />
      </g>
    </g>
    <g
       transform="translate(162.4546,41.775144)"
       id="g1629">
      <rect
         y="149.41724"
         x="104.26056"
         height="29.375877"
         width="59.253551"
         id="rect960"
         style="fill:#4d4d4d;fill-opacity:0;stroke:#f69d01;stroke-width:0.969585;stroke-linecap:square;paint-order:markers stroke fill" />
      <g
         transform="matrix(0.75613699,0,0,0.60509064,96.080361,-0.47946593)"
         aria-label="বাংলা"
         style="font-style:normal;font-variant:normal;font-weight:bold;font-stretch:normal;font-size:16.9333px;line-height:1.25;font-family:'Nirmala UI';-inkscape-font-specification:'Nirmala UI Bold';letter-spacing:0px;word-spacing:0px;opacity:0.999;fill:#4d4d4d;fill-opacity:1;stroke:none;stroke-width:0.264583"
         id="text12-4">
        <path
           d="m 36.345021,267.02253 h -8.474935 v -1.86035 h 12.749609 v 1.86035 h -2.116667 v 10.79831 h -1.215429 q -0.314193,-0.62012 -0.810287,-1.14101 -0.496094,-0.52917 -1.116211,-0.96739 -0.611849,-0.44648 -1.322916,-0.80202 -0.711068,-0.3638 -1.463477,-0.63665 -0.74414,-0.28112 -1.504817,-0.47956 -0.752409,-0.2067 -1.463477,-0.33899 v -2.39779 q 0.181901,-0.1571 0.587044,-0.43822 0.405144,-0.28938 0.950847,-0.63665 0.545703,-0.34726 1.198893,-0.71934 0.65319,-0.37207 1.339453,-0.69453 0.686263,-0.33073 1.364258,-0.5705 0.686263,-0.24805 1.298112,-0.339 z m -3.96875,4.78731 v 0.0992 q 0.818554,0.28939 1.438672,0.56224 0.628385,0.27285 1.091406,0.53743 0.471289,0.25632 0.802018,0.4961 0.338997,0.23151 0.587044,0.44648 h 0.04961 v -4.01009 q -0.248047,0.0165 -0.711068,0.17363 -0.454753,0.14883 -1.016992,0.40515 -0.553972,0.24804 -1.149284,0.58704 -0.587044,0.33073 -1.091406,0.7028 z"
           style="font-size:16.9333px;fill:#4d4d4d;fill-opacity:1;stroke-width:0.264583"
           id="path9-4"
           inkscape:connector-curvature="0" />
        <path
           d="m 41.504395,268.27931 q 0,-0.25632 -0.107487,-0.47956 -0.09922,-0.23151 -0.28112,-0.40514 -0.181901,-0.17364 -0.438216,-0.27286 -0.248047,-0.0992 -0.545703,-0.0992 h -0.65319 v -1.86035 h 1.050065 q 0.198438,0 0.454753,0.0413 0.264583,0.0331 0.545703,0.1323 0.28112,0.0909 0.553971,0.24804 0.28112,0.14883 0.51263,0.37207 v -0.0661 q 0,-0.3142 0.14056,-0.5209 0.148828,-0.20671 0.380339,-0.20671 h 2.654101 v 1.86035 h -0.711068 q -0.297656,0 -0.553971,0.0992 -0.248047,0.0992 -0.438216,0.27286 -0.190169,0.17363 -0.297656,0.40514 -0.107487,0.22324 -0.107487,0.47956 v 9.2108 h -2.158008 z"
           style="font-size:16.9333px;fill:#4d4d4d;fill-opacity:1;stroke-width:0.264583"
           id="path11-4"
           inkscape:connector-curvature="0" />
        <path
           d="m 50.367935,278.83783 q -0.157096,-0.51263 -0.446484,-1.05833 -0.289388,-0.5457 -0.677995,-1.09141 -0.380338,-0.5457 -0.843359,-1.0666 -0.454753,-0.5209 -0.950846,-0.97565 -0.487826,-0.46302 -0.992188,-0.83509 -0.504362,-0.37207 -0.983919,-0.62012 v -0.0992 l 1.694987,-1.17408 q 0.818554,0.46302 1.604036,1.12448 0.79375,0.66145 1.455208,1.43867 0.669727,0.77721 1.157552,1.62057 0.496094,0.83509 0.719336,1.64538 l -1.637109,1.0914 z m -1.240234,-7.59023 q -0.51263,0 -0.950846,-0.19844 -0.438216,-0.19844 -0.760677,-0.52916 -0.322461,-0.339 -0.512631,-0.77722 -0.181901,-0.43821 -0.181901,-0.91777 0,-0.50436 0.19017,-0.93431 0.198437,-0.43822 0.529166,-0.76068 0.330729,-0.32246 0.760677,-0.50436 0.438216,-0.1819 0.909506,-0.1819 0.504361,0 0.942578,0.19017 0.446484,0.19017 0.768945,0.5209 0.330729,0.32246 0.520898,0.76067 0.19017,0.42995 0.19017,0.90951 0,0.51263 -0.198438,0.95084 -0.190169,0.43822 -0.520898,0.76895 -0.33073,0.33073 -0.768946,0.5209 -0.438216,0.1819 -0.917773,0.1819 z m 0,-3.15846 q -0.157096,0 -0.297656,0.0661 -0.132292,0.0579 -0.239779,0.1571 -0.09922,0.0992 -0.157096,0.23978 -0.05788,0.13229 -0.05788,0.28112 0,0.32246 0.214974,0.5457 0.214974,0.22324 0.520899,0.22324 0.157096,0 0.297656,-0.0661 0.14056,-0.0662 0.248047,-0.16537 0.107487,-0.10749 0.165364,-0.24805 0.05788,-0.14056 0.05788,-0.28938 0,-0.1571 -0.06615,-0.28939 -0.05788,-0.14056 -0.165365,-0.23978 -0.09922,-0.0992 -0.239778,-0.1571 -0.132292,-0.0579 -0.28112,-0.0579 z"
           style="font-size:16.9333px;fill:#4d4d4d;fill-opacity:1;stroke-width:0.264583"
           id="path13-1"
           inkscape:connector-curvature="0" />
        <path
           d="m 62.728937,277.49011 v -6.77168 q -0.305924,-0.34726 -0.669726,-0.52916 -0.355534,-0.1819 -0.735873,-0.1819 -0.289388,0 -0.578776,0.12402 -0.28112,0.11575 -0.537435,0.3638 0.0083,0.008 0.08268,0.17363 0.08268,0.1571 0.181901,0.34727 0.09922,0.19017 0.181901,0.3638 0.08268,0.16537 0.09095,0.19017 l -1.422135,0.8847 h -0.03307 q -0.08268,-0.14883 -0.181901,-0.37207 -0.09922,-0.23151 -0.239779,-0.47956 -0.132291,-0.25631 -0.305924,-0.50436 -0.165365,-0.25631 -0.388607,-0.45475 -0.214974,-0.20671 -0.487825,-0.33073 -0.264584,-0.12402 -0.595313,-0.12402 -0.272851,0 -0.496094,0.10748 -0.223242,0.0992 -0.388606,0.27285 -0.157097,0.17364 -0.248047,0.39688 -0.08268,0.21497 -0.08268,0.44648 0,0.11576 0.01654,0.24805 0.02481,0.12402 0.05788,0.22324 l 0.06614,0.008 q 0.231511,-0.24805 0.496094,-0.3638 0.272852,-0.11576 0.545703,-0.11576 0.28112,0 0.545703,0.11576 0.272852,0.10749 0.479558,0.31419 0.206705,0.19844 0.330729,0.47956 0.124023,0.28112 0.124023,0.61185 0,0.31419 -0.124023,0.62838 -0.115755,0.3142 -0.363802,0.56224 -0.239779,0.24805 -0.611849,0.40515 -0.363802,0.14882 -0.859896,0.14882 -0.587044,0 -1.066602,-0.22324 -0.479557,-0.23151 -0.818554,-0.62838 -0.338998,-0.39688 -0.520899,-0.94258 -0.181901,-0.55397 -0.181901,-1.19889 0,-0.69454 0.214974,-1.34773 0.214974,-0.65319 0.611849,-1.15755 0.396875,-0.50436 0.959115,-0.80202 0.570508,-0.30592 1.265039,-0.30592 0.553971,0 1.107942,0.21497 0.56224,0.21498 1.107943,0.73588 h 0.04961 q 0.396875,-0.4961 0.942579,-0.72761 0.553971,-0.23151 1.141015,-0.23151 0.727604,0 1.339453,0.339 v -1.3808 H 52.509406 v -1.86035 h 14.485937 v 1.86035 h -2.108398 v 10.46758 z"
           style="font-size:16.9333px;fill:#4d4d4d;fill-opacity:1;stroke-width:0.264583"
           id="path15-2"
           inkscape:connector-curvature="0" />
        <path
           d="m 67.863507,268.27931 q 0,-0.25632 -0.107487,-0.47956 -0.09922,-0.23151 -0.28112,-0.40514 -0.181901,-0.17364 -0.438216,-0.27286 -0.248047,-0.0992 -0.545703,-0.0992 h -0.65319 v -1.86035 h 1.050065 q 0.198437,0 0.454752,0.0413 0.264584,0.0331 0.545704,0.1323 0.281119,0.0909 0.553971,0.24804 0.28112,0.14883 0.51263,0.37207 v -0.0661 q 0,-0.3142 0.14056,-0.5209 0.148828,-0.20671 0.380338,-0.20671 h 2.654102 v 1.86035 h -0.711068 q -0.297656,0 -0.553971,0.0992 -0.248047,0.0992 -0.438216,0.27286 -0.190169,0.17363 -0.297656,0.40514 -0.107487,0.22324 -0.107487,0.47956 v 9.2108 h -2.158008 z"
           style="font-size:16.9333px;fill:#4d4d4d;fill-opacity:1;stroke-width:0.264583"
           id="path17-7"
           inkscape:connector-curvature="0" />
      </g>
    </g>
    <g
       transform="translate(-143.93372,-9.5752341)"
       id="g1638">
      <rect
         style="fill:#4d4d4d;fill-opacity:0;stroke:#f69d01;stroke-width:0.969585;stroke-linecap:square;paint-order:markers stroke fill"
         id="rect845"
         width="59.253551"
         height="29.375877"
         x="21.305452"
         y="197.89348" />
      <g
         aria-label="मराठी"
         style="font-style:normal;font-variant:normal;font-weight:bold;font-stretch:normal;font-size:16.9333px;line-height:1.25;font-family:'Nirmala UI';-inkscape-font-specification:'Nirmala UI Bold';letter-spacing:0px;word-spacing:0px;fill:#4d4d4d;fill-opacity:1;stroke:none;stroke-width:0.264583"
         id="text12-6"
         transform="matrix(0.65883718,0,0,0.59997613,17.990376,49.387847)">
        <path
           d="m 40.450198,269.99083 h -1.802474 v 10.46757 h -2.158008 v -4.28294 h -3.712434 v 1.18236 q 0,0.16536 -0.01654,0.34726 -0.0083,0.17364 -0.07441,0.32247 -0.05788,0.14882 -0.181901,0.24804 -0.124023,0.0992 -0.347266,0.0992 -0.305924,0 -0.661458,-0.17363 -0.355534,-0.1819 -0.719336,-0.47129 -0.363802,-0.28939 -0.702799,-0.66146 -0.330729,-0.38034 -0.587044,-0.76894 -0.256316,-0.38861 -0.413412,-0.76068 -0.157096,-0.38034 -0.157096,-0.678 0,-0.0992 0.0248,-0.19843 0.0248,-0.0992 0.107487,-0.17364 0.09095,-0.0744 0.239779,-0.12402 0.157096,-0.0496 0.42168,-0.0496 h 0.909505 v -4.32428 h -2.89388 v -1.86035 h 12.724804 z m -7.672916,0 v 4.32428 h 3.712434 v -4.32428 z"
           style="text-align:center;text-anchor:middle;fill:#4d4d4d;fill-opacity:1;stroke-width:0.264583"
           id="path3727"
           inkscape:connector-curvature="0" />
        <path
           d="m 49.446031,269.99083 h -2.769857 q 0.314193,0.64492 0.496094,1.2733 0.190169,0.62012 0.190169,1.29812 0,0.60358 -0.165364,1.13274 -0.157096,0.52917 -0.496094,0.95912 -0.338997,0.42168 -0.868164,0.71933 -0.520898,0.29766 -1.248502,0.42995 l -0.01654,0.0331 q 0.347266,0.4961 0.7028,0.95912 0.363802,0.46302 0.760677,0.9095 0.396875,0.44649 0.843359,0.8847 0.446484,0.43822 0.975651,0.88471 l -1.364258,1.51308 q -0.65319,-0.51263 -1.256771,-1.12448 -0.60358,-0.62012 -1.149283,-1.28984 -0.545703,-0.66973 -1.025261,-1.35599 -0.479557,-0.68626 -0.8847,-1.33945 -0.396875,-0.65319 -0.719336,-1.24024 -0.314193,-0.59531 -0.537435,-1.0666 l 1.827279,-0.93431 q 0.281119,0.74414 0.60358,1.05007 0.322461,0.30592 0.677995,0.30592 0.23151,0 0.438216,-0.10749 0.206706,-0.10748 0.363802,-0.31419 0.157097,-0.21497 0.248047,-0.51263 0.09922,-0.30592 0.09922,-0.7028 0,-0.55397 -0.198438,-1.19062 -0.198437,-0.63666 -0.578776,-1.17409 h -4.530989 v -1.86035 h 9.582877 z"
           style="text-align:center;text-anchor:middle;fill:#4d4d4d;fill-opacity:1;stroke-width:0.264583"
           id="path3729"
           inkscape:connector-curvature="0" />
        <path
           d="m 54.646747,269.99083 h -1.802474 v 10.46757 h -2.158008 v -10.46757 h -1.827279 v -1.86035 h 5.787761 z"
           style="text-align:center;text-anchor:middle;fill:#4d4d4d;fill-opacity:1;stroke-width:0.264583"
           id="path3731"
           inkscape:connector-curvature="0" />
        <path
           d="m 65.387176,276.38217 q 0,0.92604 -0.338997,1.71152 -0.330729,0.77721 -0.950846,1.34772 -0.611849,0.57051 -1.488282,0.89297 -0.876432,0.32246 -1.951302,0.32246 -1.215429,0 -2.158007,-0.3886 -0.93431,-0.38861 -1.579232,-1.03353 -0.636654,-0.64493 -0.975651,-1.48002 -0.330729,-0.83509 -0.330729,-1.72806 0,-0.85989 0.28112,-1.49655 0.281119,-0.63665 0.719336,-1.0914 0.446484,-0.45475 0.992187,-0.74414 0.545703,-0.29766 1.07487,-0.47129 0.529166,-0.17363 0.926041,-0.27285 0.405144,-0.0992 0.694532,-0.27285 0.214973,-0.12403 0.305924,-0.29766 0.09922,-0.1819 0.09922,-0.48783 v -0.90123 h -6.622851 v -1.86035 h 12.97285 v 1.86035 h -4.191992 v 0.94258 q 0,0.42994 -0.07441,0.77721 -0.06614,0.339 -0.198437,0.62012 1.389062,0.7276 2.091862,1.71979 0.702799,0.98392 0.702799,2.33164 z m -7.573697,-0.12403 q 0,0.56224 0.198437,1.02526 0.198438,0.46303 0.553971,0.80202 0.355534,0.33073 0.84336,0.5209 0.487825,0.1819 1.058333,0.1819 0.578776,0 1.083138,-0.19844 0.51263,-0.19843 0.884701,-0.5457 0.380338,-0.35553 0.595312,-0.84336 0.214974,-0.48782 0.214974,-1.0666 0,-0.43822 -0.124023,-0.79375 -0.115756,-0.3638 -0.305925,-0.64492 -0.190169,-0.28939 -0.429948,-0.50436 -0.239778,-0.22325 -0.479557,-0.37207 -0.239779,-0.1571 -0.454753,-0.25632 -0.206705,-0.0992 -0.347265,-0.14883 -0.297657,0.0992 -0.661459,0.20671 -0.355533,0.10749 -0.719335,0.25631 -0.363803,0.14056 -0.711068,0.339 -0.347266,0.19844 -0.611849,0.47956 -0.264583,0.28112 -0.429948,0.66973 -0.157096,0.38033 -0.157096,0.89296 z"
           style="text-align:center;text-anchor:middle;fill:#4d4d4d;fill-opacity:1;stroke-width:0.264583"
           id="path3733"
           inkscape:connector-curvature="0" />
        <path
           d="m 72.274609,269.99083 h -1.802473 v 10.46757 h -2.158008 v -10.46757 h -1.827279 v -1.86035 h 1.860352 q -0.157097,-0.76895 -0.396875,-1.30638 -0.239779,-0.53744 -0.520899,-0.90124 -0.281119,-0.3638 -0.587044,-0.57051 -0.297656,-0.20671 -0.578776,-0.31419 -0.28112,-0.10749 -0.520898,-0.13229 -0.248047,-0.0331 -0.405143,-0.0331 -0.785482,0 -1.174089,0.34727 -0.388607,0.339 -0.388607,0.85989 0,0.4961 0.322461,1.0418 0.314193,0.5457 0.917774,1.09968 h -2.38125 q -0.520899,-0.62839 -0.777214,-1.28985 -0.264583,-0.66146 -0.264583,-1.28157 0,-0.54571 0.223242,-1.02526 0.223242,-0.48783 0.669727,-0.84336 0.446484,-0.35554 1.124479,-0.56224 0.669726,-0.20671 1.579231,-0.20671 1.256771,0 2.158008,0.40515 0.909505,0.39687 1.521354,1.0914 0.611849,0.68626 0.967383,1.62057 0.355534,0.93431 0.504362,2.00092 h 1.934765 z"
           style="text-align:center;text-anchor:middle;fill:#4d4d4d;fill-opacity:1;stroke-width:0.264583"
           id="path3735"
           inkscape:connector-curvature="0" />
      </g>
    </g>
    <g
       transform="translate(157.16292,61.912798)"
       id="g1643">
      <rect
         y="197.89348"
         x="104.26056"
         height="29.375877"
         width="59.253551"
         id="rect962"
         style="fill:#4d4d4d;fill-opacity:0;stroke:#f69d01;stroke-width:0.969585;stroke-linecap:square;paint-order:markers stroke fill" />
      <text
         xml:space="preserve"
         style="font-style:normal;font-variant:normal;font-weight:normal;font-stretch:normal;font-size:13.8263px;line-height:1.25;font-family:'Nirmala UI';-inkscape-font-specification:'Nirmala UI';letter-spacing:0px;word-spacing:0px;fill:#4d4d4d;fill-opacity:1;stroke:none;stroke-width:0.216036"
         x="113.4501"
         y="220.71178"
         id="text12-64"
         transform="scale(1.0178418,0.98247094)"><tspan
           sodipodi:role="line"
           id="tspan10"
           x="113.4501"
           y="220.71178"
           style="font-style:normal;font-variant:normal;font-weight:bold;font-stretch:normal;font-size:11.522px;font-family:'Yu Gothic';-inkscape-font-specification:'Yu Gothic Bold';fill:#4d4d4d;fill-opacity:1;stroke-width:0.216036">日本語</tspan></text>
    </g>
  </g>
</svg>
